SplineFontDB: 3.0
FontName: GargiBernard
FullName: GargiBernard
FamilyName: GargiBernard
Weight: Medium
Copyright: Open Type rules and extra glyphsets made by the Localization Team HBCSE,TIFR,\nHomi Bhabha Centre For Science Education, Tata Institute Of Fundamental Research V.N. Purav Marg, Mankhurd, Mumbai 400 088, INDIA.\n\nCore Devanagari Glyphs (c) Cyberscape Multimedia ltd,\n#101, Mahalakshmi Mansion\n21st Main, 22nd "A" Cross\nBanashankari 2nd Stage\nBangalore 560 070, India.\n\nThe matching English glyphs: Copyright (URW)++,Copyright 1999 by (URW)++ Design & Development; Cyrillic glyphs added by Valek Filippov (C) 2001-2002. \n\nDevanagari character shapes improved and maintained by Monika Shah and Sonali Sonania of janabhaaratii Team, C-DAC, Mumbai.\n\nThis font is released under GNU GPL version 2 by Dr. Alka Irani and Prof Jitendra Shah,janabhaaratii Team,C-DAC, Mumbai.\ngargi is free software; you can redistribute it and/or modify it under the terms of the GNU General Public License as published by the Free Software Foundation; either version 2 of the License, or (at your option) any later version.\n\ngargi is distributed in the hope that it will be useful, but WITHOUT ANY WARRANTY; without even the implied warranty of MERCHANTABILITY or FITNESS FOR A PARTICULAR PURPOSE.  See the\nGNU General Public License for more details. \nYou should have received a copy of the GNU General Public License along with gargi; if not, write to the Free Software Foundation, Inc., 51 Franklin St, Fifth Floor, Boston, MA  02110-1301  USA\n\njanabhaaratii is localisation project at C-DAC Mumbai (formerly National\nCentre for Software Technology) ; funded by TDIL, Govt. of India.\n\nContact:monika_shah@lycos.com,sonalisonania@yahoo.com,\njitendras@vsnl.com,alka@ncst.ernet.in\nwebsite : www.janabhaaratii.org.in
Version: 1.9
ItalicAngle: 0
UnderlinePosition: -133
UnderlineWidth: 20
Ascent: 819
Descent: 205
LayerCount: 2
Layer: 0 1 "Back"  1
Layer: 1 1 "Fore"  0
NeedsXUIDChange: 1

StartChar: .notdef
Encoding: 0 -1 0
Width: 414
Flags: W
LayerCount: 2
Fore
SplineSet
36 0 m 1,0,-1
 36 716 l 1,1,-1
 394 716 l 1,2,-1
 394 0 l 1,3,-1
 36 0 l 1,0,-1
71 36 m 1,4,-1
 358 36 l 1,5,-1
 358 680 l 1,6,-1
 71 680 l 1,7,-1
 71 36 l 1,4,-1
EndSplineSet
Validated: 1
EndChar

StartChar: exclam
Encoding: 4 33 5
Width: 289
GlyphClass: 2
Flags: W
LayerCount: 2
Fore
SplineSet
216 758 m 1,0,-1
 216 407 l 1,1,-1
 193 175 l 1,2,-1
 153 175 l 1,3,-1
 130 407 l 1,4,-1
 130 758 l 1,5,-1
 216 758 l 1,0,-1
216 108 m 1,6,-1
 216 0 l 1,7,-1
 129 0 l 1,8,-1
 129 108 l 1,9,-1
 216 108 l 1,6,-1
EndSplineSet
Validated: 1
EndChar

StartChar: quotedbl
Encoding: 5 34 6
Width: 369
GlyphClass: 2
Flags: W
LayerCount: 2
Fore
SplineSet
54 737 m 1,0,-1
 151 737 l 1,1,-1
 151 622 l 1,2,-1
 123 483 l 1,3,-1
 82 483 l 1,4,-1
 54 622 l 1,5,-1
 54 737 l 1,0,-1
220 737 m 1,6,-1
 317 737 l 1,7,-1
 317 622 l 1,8,-1
 289 483 l 1,9,-1
 249 483 l 1,10,-1
 220 622 l 1,11,-1
 220 737 l 1,6,-1
EndSplineSet
Validated: 1
EndChar

StartChar: numbersign
Encoding: 6 35 7
Width: 578
GlyphClass: 2
Flags: W
LayerCount: 2
Fore
SplineSet
504 725 m 1,0,-1
 467 521 l 1,1,-1
 564 521 l 1,2,-1
 564 450 l 1,3,-1
 453 450 l 1,4,-1
 421 269 l 1,5,-1
 530 269 l 1,6,-1
 530 199 l 1,7,-1
 409 199 l 1,8,-1
 368 -21 l 1,9,-1
 289 -21 l 1,10,-1
 329 199 l 1,11,-1
 200 199 l 1,12,-1
 159 -21 l 1,13,-1
 80 -21 l 1,14,-1
 120 199 l 1,15,-1
 15 199 l 1,16,-1
 15 269 l 1,17,-1
 133 269 l 1,18,-1
 165 450 l 1,19,-1
 53 450 l 1,20,-1
 53 521 l 1,21,-1
 179 521 l 1,22,-1
 216 725 l 1,23,-1
 295 725 l 1,24,-1
 258 521 l 1,25,-1
 388 521 l 1,26,-1
 424 725 l 1,27,-1
 504 725 l 1,0,-1
374 450 m 1,28,-1
 245 450 l 1,29,-1
 212 269 l 1,30,-1
 342 269 l 1,31,-1
 374 450 l 1,28,-1
EndSplineSet
Validated: 1
EndChar

StartChar: dollar
Encoding: 7 36 8
Width: 578
GlyphClass: 2
Flags: W
LayerCount: 2
Fore
SplineSet
253 801 m 1,0,-1
 314 801 l 1,1,-1
 314 745 l 1,2,3
 445 735 445 735 494 639 c 0,4,5
 516 595 516 595 516 540 c 1,6,-1
 434 540 l 1,7,8
 433 620 433 620 373 655 c 0,9,10
 346 671 346 671 314 672 c 1,11,-1
 314 413 l 1,12,13
 418 381 418 381 450 363 c 0,14,15
 539 313 539 313 539 203 c 0,16,17
 539 95 539 95 468 31 c 0,18,19
 457 21 457 21 443 12 c 0,20,21
 392 -18 392 -18 314 -24 c 1,22,-1
 314 -131 l 1,23,-1
 253 -131 l 1,24,-1
 253 -24 l 1,25,26
 93 -14 93 -14 48 108 c 0,27,28
 34 146 34 146 34 193 c 0,29,30
 34 196 34 196 34 199 c 128,-1,31
 34 202 34 202 34 216 c 1,32,-1
 116 216 l 1,33,34
 124 139 124 139 138 114 c 0,35,36
 140 111 140 111 142 107 c 0,37,38
 179 57 179 57 253 48 c 1,39,-1
 253 331 l 1,40,41
 156 360 156 360 122 385 c 0,42,43
 48 438 48 438 48 537 c 0,44,45
 48 688 48 688 193 732 c 0,46,47
 220 740 220 740 253 745 c 1,48,-1
 253 801 l 1,0,-1
253 421 m 1,49,-1
 253 671 l 1,50,51
 153 657 153 657 135 578 c 0,52,53
 132 564 132 564 132 547 c 0,54,55
 132 453 132 453 253 421 c 1,49,-1
314 321 m 1,56,-1
 314 48 l 1,57,58
 378 55 378 55 410 86 c 0,59,60
 453 128 453 128 453 190 c 0,61,62
 453 254 453 254 405 285 c 0,63,64
 374 304 374 304 314 321 c 1,56,-1
EndSplineSet
Validated: 1
EndChar

StartChar: percent
Encoding: 8 37 9
Width: 924
GlyphClass: 2
Flags: W
LayerCount: 2
Fore
SplineSet
207 712 m 0,0,1
 294 712 294 712 347 644 c 0,2,3
 385 596 385 596 385 532 c 0,4,5
 385 450 385 450 319 397 c 0,6,7
 270 357 270 357 208 357 c 0,8,9
 124 357 124 357 70 422 c 0,10,11
 30 472 30 472 30 535 c 0,12,13
 30 619 30 619 96 673 c 0,14,15
 145 712 145 712 207 712 c 0,0,1
207 640 m 0,16,17
 151 640 151 640 120 592 c 0,18,19
 102 566 102 566 102 535 c 0,20,21
 102 479 102 479 149 447 c 0,22,23
 176 430 176 430 208 430 c 0,24,25
 264 430 264 430 295 476 c 0,26,27
 313 502 313 502 313 534 c 0,28,29
 313 593 313 593 263 624 c 0,30,31
 238 640 238 640 207 640 c 0,16,17
633 737 m 1,32,-1
 702 737 l 1,33,-1
 291 -21 l 1,34,-1
 223 -21 l 1,35,-1
 633 737 l 1,32,-1
716 335 m 0,36,37
 804 335 804 335 857 266 c 0,38,39
 893 218 893 218 893 156 c 0,40,41
 893 74 893 74 828 21 c 0,42,43
 779 -20 779 -20 717 -20 c 0,44,45
 632 -20 632 -20 578 46 c 0,46,47
 539 96 539 96 539 158 c 0,48,49
 539 242 539 242 605 295 c 0,50,51
 654 335 654 335 716 335 c 0,36,37
716 262 m 0,52,53
 659 262 659 262 628 215 c 0,54,55
 610 189 610 189 610 158 c 0,56,57
 610 101 610 101 659 70 c 0,58,59
 685 53 685 53 717 53 c 0,60,61
 773 53 773 53 804 100 c 0,62,63
 822 126 822 126 822 156 c 0,64,65
 822 215 822 215 772 246 c 0,66,67
 747 262 747 262 716 262 c 0,52,53
EndSplineSet
Validated: 1
EndChar

StartChar: ampersand
Encoding: 9 38 10
Width: 693
GlyphClass: 2
Flags: W
LayerCount: 2
Fore
SplineSet
513 347 m 1,0,-1
 596 347 l 1,1,2
 596 250 596 250 536 157 c 1,3,-1
 662 0 l 1,4,-1
 549 0 l 1,5,-1
 485 81 l 1,6,7
 434 31 434 31 405 14 c 0,8,9
 346 -24 346 -24 267 -24 c 0,10,11
 147 -24 147 -24 88 61 c 0,12,13
 54 112 54 112 54 183 c 0,14,15
 54 267 54 267 108 322 c 0,16,17
 146 360 146 360 223 405 c 1,18,19
 150 496 150 496 140 546 c 0,20,21
 138 560 138 560 138 574 c 0,22,23
 138 654 138 654 206 703 c 0,24,25
 254 737 254 737 316 737 c 0,26,27
 410 737 410 737 458 669 c 0,28,29
 486 628 486 628 486 574 c 0,30,31
 486 502 486 502 428 451 c 0,32,33
 398 424 398 424 342 393 c 1,34,-1
 480 224 l 1,35,36
 513 280 513 280 513 342 c 0,37,38
 513 345 513 345 513 347 c 1,0,-1
296 448 m 1,39,40
 381 501 381 501 396 540 c 0,41,42
 404 555 404 555 404 576 c 0,43,44
 404 630 404 630 357 654 c 0,45,46
 337 665 337 665 313 665 c 0,47,48
 251 665 251 665 230 613 c 0,49,50
 224 596 224 596 224 575 c 0,51,52
 224 541 224 541 250 504 c 0,53,54
 264 486 264 486 296 448 c 1,39,40
435 142 m 1,55,-1
 268 350 l 1,56,57
 171 288 171 288 150 236 c 0,58,59
 141 215 141 215 141 190 c 0,60,61
 141 123 141 123 198 83 c 0,62,63
 234 57 234 57 278 57 c 0,64,65
 347 57 347 57 418 125 c 0,66,67
 426 133 426 133 435 142 c 1,55,-1
EndSplineSet
Validated: 1
EndChar

StartChar: quotesingle
Encoding: 10 39 11
Width: 229
GlyphClass: 2
Flags: W
LayerCount: 2
Fore
SplineSet
67 758 m 1,0,-1
 163 758 l 1,1,-1
 163 653 l 2,2,3
 163 535 163 535 79 519 c 2,4,-1
 67 517 l 1,5,-1
 67 556 l 1,6,7
 113 563 113 563 116 631 c 2,8,-1
 116 650 l 1,9,-1
 67 650 l 1,10,-1
 67 758 l 1,0,-1
EndSplineSet
Validated: 1
EndChar

StartChar: parenleft
Encoding: 11 40 12
Width: 346
GlyphClass: 2
Flags: W
LayerCount: 2
Fore
SplineSet
245 758 m 1,0,-1
 303 758 l 1,1,2
 174 550 174 550 161 312 c 0,3,4
 160 290 160 290 160 269 c 0,5,6
 160 27 160 27 287 -194 c 0,7,8
 294 -208 294 -208 303 -220 c 1,9,-1
 245 -220 l 1,10,11
 128 -67 128 -67 89 133 c 0,12,13
 76 204 76 204 76 269 c 0,14,15
 76 456 76 456 173 642 c 0,16,17
 205 705 205 705 245 758 c 1,0,-1
EndSplineSet
Validated: 1
EndChar

StartChar: parenright
Encoding: 12 41 13
Width: 346
GlyphClass: 2
Flags: W
LayerCount: 2
Fore
SplineSet
97 -220 m 1,0,-1
 40 -220 l 1,1,2
 168 -12 168 -12 181 226 c 0,3,4
 182 248 182 248 182 268 c 0,5,6
 182 511 182 511 55 732 c 0,7,8
 48 746 48 746 40 758 c 1,9,-1
 97 758 l 1,10,11
 214 604 214 604 253 405 c 0,12,13
 266 334 266 334 266 268 c 0,14,15
 266 82 266 82 170 -104 c 0,16,17
 137 -167 137 -167 97 -220 c 1,0,-1
EndSplineSet
Validated: 1
EndChar

StartChar: asterisk
Encoding: 13 42 14
Width: 404
GlyphClass: 2
Flags: W
LayerCount: 2
Fore
SplineSet
166 758 m 1,0,-1
 232 758 l 1,1,-1
 227 642 l 1,2,-1
 337 681 l 1,3,-1
 357 620 l 1,4,-1
 244 589 l 1,5,-1
 317 496 l 1,6,-1
 264 459 l 1,7,-1
 200 555 l 1,8,-1
 134 459 l 1,9,-1
 82 496 l 1,10,-1
 154 589 l 1,11,-1
 42 620 l 1,12,-1
 61 681 l 1,13,-1
 172 642 l 1,14,-1
 166 758 l 1,0,-1
EndSplineSet
Validated: 1
EndChar

StartChar: plus
Encoding: 14 43 15
Width: 607
GlyphClass: 2
Flags: W
LayerCount: 2
Fore
SplineSet
555 278 m 1,0,-1
 555 205 l 1,1,-1
 340 205 l 1,2,-1
 340 -10 l 1,3,-1
 267 -10 l 1,4,-1
 267 205 l 1,5,-1
 52 205 l 1,6,-1
 52 278 l 1,7,-1
 267 278 l 1,8,-1
 267 493 l 1,9,-1
 340 493 l 1,10,-1
 340 278 l 1,11,-1
 555 278 l 1,0,-1
EndSplineSet
Validated: 1
EndChar

StartChar: comma
Encoding: 15 44 16
Width: 289
GlyphClass: 2
Flags: W
LayerCount: 2
Fore
SplineSet
90 108 m 1,0,-1
 200 108 l 1,1,-1
 200 -17 l 2,2,3
 200 -153 200 -153 90 -153 c 1,4,-1
 90 -113 l 1,5,6
 135 -111 135 -111 146 -79 c 0,7,8
 153 -59 153 -59 153 -19 c 2,9,-1
 153 0 l 1,10,-1
 90 0 l 1,11,-1
 90 108 l 1,0,-1
EndSplineSet
Validated: 1
EndChar

StartChar: hyphen
Encoding: 16 45 17
Width: 346
GlyphClass: 2
Flags: W
LayerCount: 2
Fore
SplineSet
295 324 m 1,0,-1
 295 250 l 1,1,-1
 48 250 l 1,2,-1
 48 324 l 1,3,-1
 295 324 l 1,0,-1
EndSplineSet
Validated: 1
EndChar

StartChar: period
Encoding: 17 46 18
Width: 289
GlyphClass: 2
Flags: W
LayerCount: 2
Fore
SplineSet
199 108 m 1,0,-1
 199 0 l 1,1,-1
 90 0 l 1,2,-1
 90 108 l 1,3,-1
 199 108 l 1,0,-1
EndSplineSet
Validated: 1
EndChar

StartChar: slash
Encoding: 18 47 19
Width: 289
GlyphClass: 2
Flags: W
LayerCount: 2
Fore
SplineSet
238 758 m 1,0,-1
 295 758 l 1,1,-1
 49 -21 l 1,2,-1
 -8 -21 l 1,3,-1
 238 758 l 1,0,-1
EndSplineSet
Validated: 1
EndChar

StartChar: zero
Encoding: 19 48 20
Width: 578
GlyphClass: 2
Flags: W
LayerCount: 2
Fore
SplineSet
286 737 m 2,0,1
 393 737 393 737 456 656 c 0,2,3
 527 558 527 558 527 350 c 0,4,5
 527 69 527 69 384 -3 c 0,6,7
 340 -24 340 -24 286 -24 c 0,8,9
 103 -24 103 -24 58 201 c 0,10,11
 45 269 45 269 45 357 c 0,12,13
 45 560 45 560 116 656 c 0,14,15
 173 730 173 730 271 737 c 2,16,-1
 286 737 l 2,0,1
286 656 m 0,17,18
 138 656 138 656 138 356 c 0,19,20
 138 52 138 52 284 52 c 0,21,22
 407 52 407 52 428 252 c 0,23,24
 434 300 434 300 434 359 c 0,25,26
 434 656 434 656 286 656 c 0,17,18
EndSplineSet
Validated: 1
EndChar

StartChar: one
Encoding: 20 49 21
Width: 578
GlyphClass: 2
Flags: W
LayerCount: 2
Fore
SplineSet
269 525 m 1,0,-1
 106 525 l 1,1,-1
 106 591 l 1,2,3
 212 604 212 604 243 628 c 0,4,5
 275 651 275 651 296 725 c 2,6,-1
 301 737 l 1,7,-1
 361 737 l 1,8,-1
 361 0 l 1,9,-1
 269 0 l 1,10,-1
 269 525 l 1,0,-1
EndSplineSet
Validated: 1
EndChar

StartChar: two
Encoding: 21 50 22
Width: 578
GlyphClass: 2
Flags: W
LayerCount: 2
Fore
SplineSet
526 90 m 1,0,-1
 526 0 l 1,1,-1
 35 0 l 1,2,3
 43 133 43 133 95 203 c 0,4,5
 138 260 138 260 242 319 c 2,6,-1
 338 373 l 2,7,8
 438 431 438 431 438 519 c 0,9,10
 438 594 438 594 375 634 c 0,11,12
 339 657 339 657 292 657 c 0,13,14
 214 657 214 657 173 598 c 0,15,16
 168 592 168 592 165 586 c 0,17,18
 148 552 148 552 144 482 c 1,19,-1
 52 482 l 1,20,21
 55 586 55 586 92 642 c 0,22,23
 154 737 154 737 295 737 c 0,24,25
 398 737 398 737 463 679 c 0,26,27
 531 617 531 617 531 521 c 0,28,29
 531 384 531 384 375 298 c 2,30,-1
 271 242 l 2,31,32
 177 187 177 187 152 136 c 0,33,34
 142 115 142 115 138 90 c 1,35,-1
 526 90 l 1,0,-1
EndSplineSet
Validated: 1
EndChar

StartChar: three
Encoding: 22 51 23
Width: 578
GlyphClass: 2
Flags: W
LayerCount: 2
Fore
SplineSet
230 338 m 1,0,-1
 230 416 l 1,1,2
 317 417 317 417 352 432 c 0,3,4
 411 456 411 456 411 531 c 0,5,6
 411 620 411 620 338 648 c 0,7,8
 313 657 313 657 281 657 c 0,9,10
 199 657 199 657 162 601 c 0,11,12
 159 596 159 596 157 592 c 0,13,14
 141 562 141 562 140 499 c 1,15,-1
 49 499 l 1,16,17
 53 718 53 718 246 736 c 0,18,19
 262 737 262 737 280 737 c 0,20,21
 425 737 425 737 479 640 c 0,22,23
 504 595 504 595 504 535 c 0,24,25
 504 422 504 422 401 382 c 1,26,27
 498 348 498 348 519 269 c 0,28,29
 526 242 526 242 526 206 c 0,30,31
 526 78 526 78 428 16 c 0,32,33
 366 -24 366 -24 277 -24 c 0,34,35
 123 -24 123 -24 66 83 c 0,36,37
 38 133 38 133 33 214 c 1,38,-1
 125 214 l 1,39,40
 133 77 133 77 242 60 c 0,41,42
 260 57 260 57 280 57 c 0,43,44
 388 57 388 57 421 139 c 0,45,46
 433 168 433 168 433 205 c 0,47,48
 433 339 433 339 280 339 c 2,49,-1
 241 338 l 1,50,-1
 230 338 l 1,0,-1
EndSplineSet
Validated: 1
EndChar

StartChar: four
Encoding: 23 52 24
Width: 578
GlyphClass: 2
Flags: W
LayerCount: 2
Fore
SplineSet
340 177 m 1,0,-1
 29 177 l 1,1,-1
 29 274 l 1,2,-1
 364 737 l 1,3,-1
 432 737 l 1,4,-1
 432 259 l 1,5,-1
 541 259 l 1,6,-1
 541 177 l 1,7,-1
 432 177 l 1,8,-1
 432 0 l 1,9,-1
 340 0 l 1,10,-1
 340 177 l 1,0,-1
340 259 m 1,11,-1
 340 581 l 1,12,-1
 109 259 l 1,13,-1
 340 259 l 1,11,-1
EndSplineSet
Validated: 1
EndChar

StartChar: five
Encoding: 24 53 25
Width: 578
GlyphClass: 2
Flags: W
LayerCount: 2
Fore
SplineSet
495 737 m 1,0,-1
 495 647 l 1,1,-1
 188 647 l 1,2,-1
 159 441 l 1,3,4
 220 486 220 486 295 486 c 0,5,6
 420 486 420 486 487 395 c 0,7,8
 534 332 534 332 534 240 c 0,9,10
 534 106 534 106 443 31 c 0,11,12
 376 -24 376 -24 281 -24 c 0,13,14
 164 -24 164 -24 97 46 c 0,15,16
 88 55 88 55 81 64 c 0,17,18
 53 99 53 99 36 181 c 1,19,-1
 128 181 l 1,20,21
 160 57 160 57 279 57 c 0,22,23
 384 57 384 57 423 141 c 0,24,25
 440 179 440 179 440 228 c 0,26,27
 440 341 440 341 361 385 c 0,28,29
 326 405 326 405 279 405 c 0,30,31
 212 405 212 405 165 360 c 0,32,33
 155 349 155 349 144 336 c 1,34,-1
 59 336 l 1,35,-1
 114 737 l 1,36,-1
 495 737 l 1,0,-1
EndSplineSet
Validated: 1
EndChar

StartChar: six
Encoding: 25 54 26
Width: 578
GlyphClass: 2
Flags: W
LayerCount: 2
Fore
SplineSet
518 545 m 1,0,-1
 426 545 l 1,1,2
 408 636 408 636 332 653 c 0,3,4
 318 656 318 656 303 656 c 0,5,6
 187 656 187 656 152 506 c 0,7,8
 138 450 138 450 138 376 c 1,9,10
 199 459 199 459 308 459 c 0,11,12
 423 459 423 459 488 372 c 0,13,14
 534 311 534 311 534 225 c 0,15,16
 534 101 534 101 448 30 c 0,17,18
 384 -24 384 -24 292 -24 c 0,19,20
 168 -24 168 -24 107 68 c 0,21,22
 47 159 47 159 45 324 c 2,23,-1
 45 336 l 2,24,25
 45 528 45 528 111 632 c 0,26,27
 170 720 170 720 274 735 c 0,28,29
 291 737 291 737 309 737 c 0,30,31
 428 737 428 737 486 641 c 0,32,33
 510 600 510 600 518 545 c 1,0,-1
296 378 m 0,34,35
 208 378 208 378 166 309 c 0,36,37
 144 271 144 271 144 223 c 0,38,39
 144 133 144 133 207 85 c 0,40,41
 244 57 244 57 293 57 c 0,42,43
 372 57 372 57 414 123 c 0,44,45
 440 164 440 164 440 217 c 0,46,47
 440 323 440 323 366 362 c 0,48,49
 336 378 336 378 296 378 c 0,34,35
EndSplineSet
Validated: 1
EndChar

StartChar: seven
Encoding: 26 55 27
Width: 578
GlyphClass: 2
Flags: W
LayerCount: 2
Fore
SplineSet
541 737 m 1,0,-1
 541 660 l 1,1,2
 331 382 331 382 262 100 c 0,3,4
 250 51 250 51 241 0 c 1,5,-1
 144 0 l 1,6,7
 196 227 196 227 292 405 c 0,8,9
 349 510 349 510 446 647 c 1,10,-1
 48 647 l 1,11,-1
 48 737 l 1,12,-1
 541 737 l 1,0,-1
EndSplineSet
Validated: 1
EndChar

StartChar: eight
Encoding: 27 56 28
Width: 578
GlyphClass: 2
Flags: W
LayerCount: 2
Fore
SplineSet
407 388 m 1,0,1
 534 328 534 328 534 204 c 0,2,3
 534 87 534 87 444 24 c 0,4,5
 379 -24 379 -24 286 -24 c 0,6,7
 157 -24 157 -24 87 61 c 0,8,9
 38 122 38 122 38 205 c 0,10,11
 38 328 38 328 164 388 c 1,12,13
 89 435 89 435 73 485 c 0,14,15
 64 509 64 509 64 541 c 0,16,17
 64 644 64 644 149 699 c 0,18,19
 206 737 206 737 286 737 c 0,20,21
 407 737 407 737 468 658 c 0,22,23
 508 608 508 608 508 541 c 0,24,25
 508 470 508 470 461 427 c 0,26,27
 441 409 441 409 407 388 c 1,0,1
286 656 m 0,28,29
 203 656 203 656 172 596 c 0,30,31
 158 571 158 571 158 540 c 0,32,33
 158 467 158 467 222 438 c 0,34,35
 250 424 250 424 286 424 c 0,36,37
 369 424 369 424 400 484 c 0,38,39
 414 509 414 509 414 539 c 0,40,41
 414 617 414 617 346 645 c 0,42,43
 320 656 320 656 286 656 c 0,28,29
286 347 m 0,44,45
 193 347 193 347 153 281 c 0,46,47
 132 246 132 246 132 203 c 0,48,49
 132 118 132 118 201 78 c 0,50,51
 236 57 236 57 284 57 c 0,52,53
 379 57 379 57 419 125 c 0,54,55
 440 159 440 159 440 203 c 0,56,57
 440 288 440 288 370 328 c 0,58,59
 334 347 334 347 286 347 c 0,44,45
EndSplineSet
Validated: 1
EndChar

StartChar: nine
Encoding: 28 57 29
Width: 578
GlyphClass: 2
Flags: W
LayerCount: 2
Fore
SplineSet
55 168 m 1,0,-1
 147 168 l 1,1,2
 165 77 165 77 241 60 c 0,3,4
 255 57 255 57 270 57 c 0,5,6
 386 57 386 57 421 207 c 0,7,8
 435 263 435 263 435 337 c 1,9,10
 362 257 362 257 266 255 c 0,11,12
 150 255 150 255 85 341 c 0,13,14
 40 402 40 402 40 489 c 0,15,16
 40 613 40 613 125 683 c 0,17,18
 189 737 189 737 281 737 c 0,19,20
 405 737 405 737 467 646 c 0,21,22
 527 554 527 554 529 389 c 0,23,24
 529 384 529 384 529 378 c 0,25,26
 529 185 529 185 462 81 c 0,27,28
 407 -3 407 -3 306 -21 c 0,29,30
 285 -24 285 -24 264 -24 c 0,31,32
 145 -24 145 -24 87 73 c 0,33,34
 63 114 63 114 55 168 c 1,0,-1
280 657 m 0,35,36
 201 657 201 657 159 591 c 0,37,38
 133 550 133 550 133 496 c 0,39,40
 133 390 133 390 207 352 c 0,41,42
 237 336 237 336 277 336 c 0,43,44
 363 336 363 336 406 404 c 0,45,46
 430 441 430 441 430 491 c 0,47,48
 430 581 430 581 366 629 c 0,49,50
 328 657 328 657 280 657 c 0,35,36
EndSplineSet
Validated: 1
EndChar

StartChar: colon
Encoding: 29 58 30
Width: 289
GlyphClass: 2
Flags: W
LayerCount: 2
Fore
SplineSet
223 108 m 1,0,-1
 223 0 l 1,1,-1
 114 0 l 1,2,-1
 114 108 l 1,3,-1
 223 108 l 1,0,-1
223 545 m 1,4,-1
 223 437 l 1,5,-1
 114 437 l 1,6,-1
 114 545 l 1,7,-1
 223 545 l 1,4,-1
EndSplineSet
Validated: 1
EndChar

StartChar: semicolon
Encoding: 30 59 31
Width: 289
GlyphClass: 2
Flags: W
LayerCount: 2
Fore
SplineSet
224 545 m 1,0,-1
 224 437 l 1,1,-1
 115 437 l 1,2,-1
 115 545 l 1,3,-1
 224 545 l 1,0,-1
114 108 m 1,4,-1
 224 108 l 1,5,-1
 224 -17 l 2,6,7
 224 -153 224 -153 114 -153 c 1,8,-1
 114 -113 l 1,9,10
 159 -111 159 -111 170 -79 c 0,11,12
 177 -59 177 -59 177 -19 c 2,13,-1
 177 0 l 1,14,-1
 114 0 l 1,15,-1
 114 108 l 1,4,-1
EndSplineSet
Validated: 1
EndChar

StartChar: less
Encoding: 31 60 32
Width: 607
GlyphClass: 2
Flags: W
LayerCount: 2
Fore
SplineSet
47 206 m 1,0,-1
 47 278 l 1,1,-1
 555 493 l 1,2,-1
 555 411 l 1,3,-1
 146 243 l 1,4,-1
 555 73 l 1,5,-1
 555 -9 l 1,6,-1
 47 206 l 1,0,-1
EndSplineSet
Validated: 1
EndChar

StartChar: equal
Encoding: 32 61 33
Width: 607
GlyphClass: 2
Flags: W
LayerCount: 2
Fore
SplineSet
555 367 m 1,0,-1
 555 294 l 1,1,-1
 52 294 l 1,2,-1
 52 367 l 1,3,-1
 555 367 l 1,0,-1
555 188 m 1,4,-1
 555 115 l 1,5,-1
 52 115 l 1,6,-1
 52 188 l 1,7,-1
 555 188 l 1,4,-1
EndSplineSet
Validated: 1
EndChar

StartChar: greater
Encoding: 33 62 34
Width: 607
GlyphClass: 2
Flags: W
LayerCount: 2
Fore
SplineSet
561 278 m 1,0,-1
 561 206 l 1,1,-1
 52 -9 l 1,2,-1
 52 73 l 1,3,-1
 462 240 l 1,4,-1
 52 411 l 1,5,-1
 52 493 l 1,6,-1
 561 278 l 1,0,-1
EndSplineSet
Validated: 1
EndChar

StartChar: question
Encoding: 34 63 35
Width: 578
GlyphClass: 2
Flags: W
LayerCount: 2
Fore
SplineSet
343 207 m 1,0,-1
 250 207 l 1,1,-1
 250 264 l 2,2,3
 250 316 250 316 279 355 c 0,4,5
 296 378 296 378 333 412 c 0,6,7
 340 418 340 418 358 434 c 0,8,9
 435 502 435 502 436 571 c 0,10,11
 436 644 436 644 372 675 c 0,12,13
 341 690 341 690 303 690 c 0,14,15
 217 690 217 690 186 629 c 0,16,17
 168 594 168 594 168 527 c 1,18,-1
 80 527 l 1,19,20
 80 747 80 747 267 769 c 0,21,22
 287 771 287 771 308 771 c 0,23,24
 439 771 439 771 497 684 c 0,25,26
 529 636 529 636 529 571 c 0,27,28
 529 498 529 498 476 437 c 0,29,30
 457 413 457 413 425 385 c 0,31,32
 360 324 360 324 349 296 c 0,33,34
 343 281 343 281 343 256 c 2,35,-1
 343 207 l 1,0,-1
343 108 m 1,36,-1
 343 0 l 1,37,-1
 250 0 l 1,38,-1
 250 108 l 1,39,-1
 343 108 l 1,36,-1
EndSplineSet
Validated: 1
EndChar

StartChar: at
Encoding: 35 64 36
Width: 1055
GlyphClass: 2
Flags: W
LayerCount: 2
Fore
SplineSet
692 521 m 1,0,-1
 778 521 l 1,1,-1
 684 230 l 2,2,3
 672 193 672 193 672 178 c 0,4,5
 672 150 672 150 702 136 c 0,6,7
 712 132 712 132 724 132 c 0,8,9
 790 132 790 132 846 207 c 0,10,11
 899 281 899 281 899 371 c 0,12,13
 899 496 899 496 798 589 c 0,14,15
 695 684 695 684 548 691 c 0,16,17
 541 691 541 691 532 691 c 0,18,19
 380 691 380 691 262 584 c 0,20,21
 148 482 148 482 127 336 c 0,22,23
 124 310 124 310 124 284 c 0,24,25
 124 137 124 137 233 36 c 0,26,27
 345 -68 345 -68 514 -68 c 0,28,29
 596 -68 596 -68 714 -34 c 1,30,-1
 744 -104 l 1,31,32
 627 -148 627 -148 509 -148 c 0,33,34
 321 -148 321 -148 185 -36 c 0,35,36
 58 68 58 68 38 220 c 0,37,38
 35 244 35 244 35 268 c 0,39,40
 35 428 35 428 134 564 c 0,41,42
 163 604 163 604 200 636 c 0,43,44
 312 738 312 738 469 764 c 0,45,46
 508 771 508 771 546 771 c 0,47,48
 719 771 719 771 847 666 c 0,49,50
 967 568 967 568 986 427 c 0,51,52
 989 406 989 406 989 384 c 0,53,54
 989 258 989 258 900 152 c 0,55,56
 821 59 821 59 706 59 c 0,57,58
 607 59 607 59 592 139 c 1,59,60
 523 64 523 64 444 64 c 0,61,62
 359 64 359 64 310 136 c 0,63,64
 275 187 275 187 275 255 c 0,65,66
 275 368 275 368 357 456 c 0,67,68
 437 542 437 542 542 543 c 0,69,70
 629 543 629 543 669 452 c 1,71,-1
 692 521 l 1,0,-1
536 476 m 0,72,73
 467 476 467 476 416 405 c 0,74,75
 368 338 368 338 368 254 c 0,76,77
 368 184 368 184 417 149 c 0,78,79
 442 131 442 131 471 131 c 0,80,81
 531 131 531 131 577 199 c 0,82,83
 612 249 612 249 628 336 c 0,84,85
 632 359 632 359 633 376 c 2,86,-1
 631 404 l 2,87,88
 620 453 620 453 571 470 c 0,89,90
 554 476 554 476 536 476 c 0,72,73
EndSplineSet
Validated: 1
EndChar

StartChar: A
Encoding: 36 65 37
Width: 693
GlyphClass: 2
Flags: W
LayerCount: 2
Fore
SplineSet
493 228 m 1,0,-1
 201 228 l 1,1,-1
 121 0 l 1,2,-1
 18 0 l 1,3,-1
 288 758 l 1,4,-1
 413 758 l 1,5,-1
 679 0 l 1,6,-1
 571 0 l 1,7,-1
 493 228 l 1,0,-1
466 309 m 1,8,-1
 349 654 l 1,9,-1
 225 309 l 1,10,-1
 466 309 l 1,8,-1
EndSplineSet
Validated: 1
EndChar

StartChar: B
Encoding: 37 66 38
Width: 693
GlyphClass: 2
Flags: W
LayerCount: 2
Fore
SplineSet
82 0 m 1,0,-1
 82 758 l 1,1,-1
 390 758 l 2,2,3
 497 758 497 758 554 705 c 0,4,5
 615 651 615 651 615 566 c 0,6,7
 615 449 615 449 510 400 c 1,8,9
 619 358 619 358 641 275 c 0,10,11
 648 249 648 249 648 216 c 0,12,13
 648 125 648 125 590 63 c 0,14,15
 530 0 530 0 424 0 c 2,16,-1
 82 0 l 1,0,-1
179 432 m 1,17,-1
 366 432 l 2,18,19
 441 432 441 432 476 459 c 0,20,21
 518 491 518 491 518 552.5 c 128,-1,22
 518 614 518 614 476 646 c 0,23,24
 441 673 441 673 366 673 c 2,25,-1
 179 673 l 1,26,-1
 179 432 l 1,17,-1
179 85 m 1,27,-1
 415 85 l 2,28,29
 483 85 483 85 516 122 c 0,30,31
 551 159 551 159 551 215 c 0,32,33
 551 272 551 272 516 310 c 0,34,35
 483 346 483 346 415 346 c 2,36,-1
 179 346 l 1,37,-1
 179 85 l 1,27,-1
EndSplineSet
Validated: 1
EndChar

StartChar: C
Encoding: 38 67 39
Width: 750
GlyphClass: 2
Flags: W
LayerCount: 2
Fore
SplineSet
688 523 m 1,0,-1
 590 523 l 1,1,2
 574 601 574 601 535 638 c 0,3,4
 478 683 478 683 385 685 c 0,5,6
 252 685 252 685 188 566 c 0,7,8
 147 488 147 488 147 371 c 0,9,10
 147 194 147 194 245 112 c 0,11,12
 307 61 307 61 393 61 c 0,13,14
 506 61 506 61 560 141 c 0,15,16
 566 150 566 150 570 159 c 0,17,18
 593 203 593 203 604 277 c 1,19,-1
 704 277 l 1,20,21
 670 -24 670 -24 392 -24 c 0,22,23
 245 -24 245 -24 160 64 c 0,24,25
 50 178 50 178 50 370 c 0,26,27
 50 561 50 561 156 676 c 0,28,29
 241 771 241 771 396 771 c 0,30,31
 644 771 644 771 688 523 c 1,0,-1
EndSplineSet
Validated: 1
EndChar

StartChar: D
Encoding: 39 68 40
Width: 750
GlyphClass: 2
Flags: W
LayerCount: 2
Fore
SplineSet
93 0 m 1,0,-1
 93 758 l 1,1,-1
 385 758 l 2,2,3
 554 758 554 758 636 621 c 0,4,5
 694 525 694 525 694 380 c 0,6,7
 694 162 694 162 573 63 c 0,8,9
 497 0 497 0 385 0 c 2,10,-1
 93 0 l 1,0,-1
189 85 m 1,11,-1
 368 85 l 2,12,13
 549 85 549 85 588 274 c 0,14,15
 597 320 597 320 597 379 c 0,16,17
 597 634 597 634 422 668 c 0,18,19
 396 673 396 673 368 673 c 2,20,-1
 189 673 l 1,21,-1
 189 85 l 1,11,-1
EndSplineSet
Validated: 1
EndChar

StartChar: E
Encoding: 40 69 41
Width: 693
GlyphClass: 2
Flags: W
LayerCount: 2
Fore
SplineSet
190 345 m 1,0,-1
 190 85 l 1,1,-1
 638 85 l 1,2,-1
 638 0 l 1,3,-1
 94 0 l 1,4,-1
 94 758 l 1,5,-1
 619 758 l 1,6,-1
 619 673 l 1,7,-1
 190 673 l 1,8,-1
 190 431 l 1,9,-1
 603 431 l 1,10,-1
 603 345 l 1,11,-1
 190 345 l 1,0,-1
EndSplineSet
Validated: 1
EndChar

StartChar: F
Encoding: 41 70 42
Width: 635
GlyphClass: 2
Flags: W
LayerCount: 2
Fore
SplineSet
190 345 m 1,0,-1
 190 0 l 1,1,-1
 94 0 l 1,2,-1
 94 758 l 1,3,-1
 602 758 l 1,4,-1
 602 673 l 1,5,-1
 190 673 l 1,6,-1
 190 431 l 1,7,-1
 552 431 l 1,8,-1
 552 345 l 1,9,-1
 190 345 l 1,0,-1
EndSplineSet
Validated: 1
EndChar

StartChar: G
Encoding: 42 71 43
Width: 809
GlyphClass: 2
Flags: W
LayerCount: 2
Fore
SplineSet
737 400 m 1,0,-1
 737 -4 l 1,1,-1
 676 -4 l 1,2,-1
 652 97 l 1,3,4
 544 -24 544 -24 393 -24 c 0,5,6
 234 -24 234 -24 136 95 c 0,7,8
 46 203 46 203 46 371 c 0,9,10
 46 554 46 554 152 669 c 0,11,12
 166 684 166 684 183 698 c 0,13,14
 271 771 271 771 410 771 c 0,15,16
 596 771 596 771 680 648 c 0,17,18
 714 597 714 597 727 528 c 1,19,-1
 628 528 l 1,20,21
 606 630 606 630 508 668 c 0,22,23
 464 685 464 685 409 685 c 0,24,25
 271 685 271 685 198 577 c 0,26,27
 142 496 142 496 142 376 c 0,28,29
 142 245 142 245 206 158 c 0,30,31
 214 148 214 148 223 138 c 0,32,33
 297 63 297 63 414 61 c 0,34,35
 532 61 532 61 601 145 c 0,36,37
 652 207 652 207 652 294 c 2,38,-1
 652 315 l 1,39,-1
 421 315 l 1,40,-1
 421 400 l 1,41,-1
 737 400 l 1,0,-1
EndSplineSet
Validated: 1
EndChar

StartChar: H
Encoding: 43 72 44
Width: 750
GlyphClass: 2
Flags: W
LayerCount: 2
Fore
SplineSet
573 345 m 1,0,-1
 184 345 l 1,1,-1
 184 0 l 1,2,-1
 86 0 l 1,3,-1
 86 758 l 1,4,-1
 183 758 l 1,5,-1
 183 431 l 1,6,-1
 573 431 l 1,7,-1
 573 758 l 1,8,-1
 670 758 l 1,9,-1
 670 0 l 1,10,-1
 573 0 l 1,11,-1
 573 345 l 1,0,-1
EndSplineSet
Validated: 1
EndChar

StartChar: I
Encoding: 44 73 45
Width: 289
GlyphClass: 2
Flags: W
LayerCount: 2
Fore
SplineSet
202 758 m 1,0,-1
 202 0 l 1,1,-1
 104 0 l 1,2,-1
 104 758 l 1,3,-1
 202 758 l 1,0,-1
EndSplineSet
Validated: 1
EndChar

StartChar: J
Encoding: 45 74 46
Width: 520
GlyphClass: 2
Flags: W
LayerCount: 2
Fore
SplineSet
346 758 m 1,0,-1
 443 758 l 1,1,-1
 443 189 l 2,2,3
 443 60 443 60 349 5 c 0,4,5
 298 -24 298 -24 229 -24 c 0,6,7
 100 -24 100 -24 46 66 c 0,8,9
 18 113 18 113 18 177 c 2,10,-1
 18 243 l 1,11,-1
 116 243 l 1,12,-1
 116 194 l 2,13,14
 116 80 116 80 199 60 c 0,15,16
 213 57 213 57 230 57 c 0,17,18
 290 57 290 57 322 104 c 0,19,20
 346 139 346 139 346 225 c 2,21,-1
 346 758 l 1,0,-1
EndSplineSet
Validated: 1
EndChar

StartChar: K
Encoding: 46 75 47
Width: 693
GlyphClass: 2
Flags: W
LayerCount: 2
Fore
SplineSet
179 265 m 1,0,-1
 179 0 l 1,1,-1
 82 0 l 1,2,-1
 82 758 l 1,3,-1
 179 758 l 1,4,-1
 179 374 l 1,5,-1
 556 758 l 1,6,-1
 681 758 l 1,7,-1
 372 449 l 1,8,-1
 684 0 l 1,9,-1
 570 0 l 1,10,-1
 303 389 l 1,11,-1
 179 265 l 1,0,-1
EndSplineSet
Validated: 1
EndChar

StartChar: L
Encoding: 47 76 48
Width: 578
GlyphClass: 2
Flags: W
LayerCount: 2
Fore
SplineSet
180 758 m 1,0,-1
 180 85 l 1,1,-1
 554 85 l 1,2,-1
 554 0 l 1,3,-1
 83 0 l 1,4,-1
 83 758 l 1,5,-1
 180 758 l 1,0,-1
EndSplineSet
Validated: 1
EndChar

StartChar: M
Encoding: 48 77 49
Width: 866
GlyphClass: 2
Flags: W
LayerCount: 2
Fore
SplineSet
487 0 m 1,0,-1
 385 0 l 1,1,-1
 170 635 l 1,2,-1
 170 0 l 1,3,-1
 78 0 l 1,4,-1
 78 758 l 1,5,-1
 212 758 l 1,6,-1
 437 98 l 1,7,-1
 657 758 l 1,8,-1
 791 758 l 1,9,-1
 791 0 l 1,10,-1
 700 0 l 1,11,-1
 700 635 l 1,12,-1
 487 0 l 1,0,-1
EndSplineSet
Validated: 1
EndChar

StartChar: N
Encoding: 49 78 50
Width: 750
GlyphClass: 2
Flags: W
LayerCount: 2
Fore
SplineSet
672 758 m 1,0,-1
 672 0 l 1,1,-1
 563 0 l 1,2,-1
 171 615 l 1,3,-1
 171 0 l 1,4,-1
 79 0 l 1,5,-1
 79 758 l 1,6,-1
 184 758 l 1,7,-1
 580 138 l 1,8,-1
 580 758 l 1,9,-1
 672 758 l 1,0,-1
EndSplineSet
Validated: 1
EndChar

StartChar: O
Encoding: 50 79 51
Width: 809
GlyphClass: 2
Flags: W
LayerCount: 2
Fore
SplineSet
405 771 m 0,0,1
 586 771 586 771 686 643 c 0,2,3
 772 535 772 535 772 367 c 0,4,5
 772 213 772 213 686 104 c 0,6,7
 666 77 666 77 641 56 c 0,8,9
 546 -24 546 -24 406 -24 c 0,10,11
 232 -24 232 -24 130 98 c 0,12,13
 40 206 40 206 40 373 c 0,14,15
 40 565 40 565 155 676 c 0,16,17
 254 771 254 771 405 771 c 0,0,1
405 685 m 0,18,19
 269 685 269 685 194 579 c 0,20,21
 136 496 136 496 136 373 c 0,22,23
 136 209 136 209 235 123 c 0,24,25
 305 61 305 61 406 61 c 0,26,27
 540 61 540 61 615 165 c 0,28,29
 675 248 675 248 675 369 c 0,30,31
 675 541 675 541 573 627 c 0,32,33
 504 685 504 685 405 685 c 0,18,19
EndSplineSet
Validated: 1
EndChar

StartChar: P
Encoding: 51 80 52
Width: 693
GlyphClass: 2
Flags: W
LayerCount: 2
Fore
SplineSet
191 321 m 1,0,-1
 191 0 l 1,1,-1
 95 0 l 1,2,-1
 95 758 l 1,3,-1
 408 758 l 2,4,5
 575 758 575 758 624 635 c 0,6,7
 642 593 642 593 642 536 c 0,8,9
 642 435 642 435 576 375 c 0,10,11
 516 321 516 321 430 321 c 2,12,-1
 191 321 l 1,0,-1
191 407 m 1,13,-1
 393 407 l 2,14,15
 499 407 499 407 530 484 c 0,16,17
 541 509 541 509 541 540 c 0,18,19
 541 633 541 633 459 662 c 0,20,21
 430 673 430 673 393 673 c 2,22,-1
 191 673 l 1,23,-1
 191 407 l 1,13,-1
EndSplineSet
Validated: 1
EndChar

StartChar: Q
Encoding: 52 81 53
Width: 809
GlyphClass: 2
Flags: W
LayerCount: 2
Fore
SplineSet
762 -1 m 1,0,-1
 713 -61 l 1,1,-1
 604 29 l 1,2,3
 515 -24 515 -24 406 -24 c 0,4,5
 232 -24 232 -24 130 98 c 0,6,7
 40 206 40 206 40 373 c 0,8,9
 40 565 40 565 155 676 c 0,10,11
 255 771 255 771 406 771 c 0,12,13
 578 771 578 771 680 650 c 0,14,15
 772 542 772 542 772 375 c 0,16,17
 772 197 772 197 665 79 c 1,18,-1
 762 -1 l 1,0,-1
500 213 m 1,19,-1
 593 137 l 1,20,21
 675 230 675 230 675 374 c 0,22,23
 675 538 675 538 577 624 c 0,24,25
 506 685 506 685 406 685 c 0,26,27
 269 685 269 685 194 579 c 0,28,29
 136 496 136 496 136 373 c 0,30,31
 136 208 136 208 235 122 c 0,32,33
 305 61 305 61 405 61 c 0,34,35
 467 61 467 61 529 90 c 1,36,-1
 452 155 l 1,37,-1
 500 213 l 1,19,-1
EndSplineSet
Validated: 1
EndChar

StartChar: R
Encoding: 53 82 54
Width: 750
GlyphClass: 2
Flags: W
LayerCount: 2
Fore
SplineSet
193 327 m 1,0,-1
 193 0 l 1,1,-1
 97 0 l 1,2,-1
 97 758 l 1,3,-1
 446 758 l 2,4,5
 623 758 623 758 666 633 c 0,6,7
 677 599 677 599 677 555 c 0,8,9
 677 453 677 453 602 400 c 0,10,11
 582 387 582 387 557 374 c 1,12,13
 622 346 622 346 642 305 c 0,14,15
 659 266 659 266 660 177 c 0,16,17
 662 77 662 77 680 49 c 0,18,19
 690 35 690 35 706 24 c 1,20,-1
 706 0 l 1,21,-1
 589 0 l 1,22,23
 567 50 567 50 567 124 c 2,24,-1
 568 191 l 2,25,26
 568 305 568 305 485 322 c 0,27,28
 466 327 466 327 443 327 c 2,29,-1
 193 327 l 1,0,-1
193 412 m 1,30,-1
 427 412 l 2,31,32
 553 412 553 412 572 501 c 0,33,34
 576 519 576 519 576 542 c 0,35,36
 576 610 576 610 537 644 c 0,37,38
 503 673 503 673 427 673 c 2,39,-1
 193 673 l 1,40,-1
 193 412 l 1,30,-1
EndSplineSet
Validated: 1
EndChar

StartChar: S
Encoding: 54 83 55
Width: 693
GlyphClass: 2
Flags: W
LayerCount: 2
Fore
SplineSet
620 536 m 1,0,-1
 528 536 l 1,1,2
 527 651 527 651 414 681 c 0,3,4
 381 690 381 690 339 690 c 0,5,6
 231 690 231 690 188 625 c 0,7,8
 170 597 170 597 170 562 c 0,9,10
 170 503 170 503 226 474 c 0,11,12
 252 461 252 461 294 449 c 2,13,-1
 485 398 l 2,14,15
 609 364 609 364 639 263 c 0,16,17
 646 237 646 237 646 208 c 0,18,19
 646 121 646 121 586 55 c 0,20,21
 574 44 574 44 563 34 c 0,22,23
 487 -24 487 -24 349 -24 c 0,24,25
 175 -24 175 -24 95 84 c 0,26,27
 51 144 51 144 50 241 c 1,28,-1
 141 241 l 1,29,-1
 145 202 l 2,30,31
 152 159 152 159 181 125 c 0,32,33
 234 61 234 61 356 61 c 0,34,35
 448 61 448 61 495 94 c 0,36,37
 541 126 541 126 548 184 c 0,38,39
 549 191 549 191 549 199 c 0,40,41
 549 278 549 278 435 314 c 0,42,43
 422 318 422 318 410 321 c 2,44,-1
 222 371 l 2,45,46
 73 410 73 410 73 548 c 0,47,48
 73 677 73 677 181 735 c 0,49,50
 248 771 248 771 342 771 c 0,51,52
 525 771 525 771 591 655 c 0,53,54
 620 604 620 604 620 536 c 1,0,-1
EndSplineSet
Validated: 1
EndChar

StartChar: T
Encoding: 55 84 56
Width: 635
GlyphClass: 2
Flags: W
LayerCount: 2
Fore
SplineSet
368 673 m 1,0,-1
 368 0 l 1,1,-1
 271 0 l 1,2,-1
 271 673 l 1,3,-1
 22 673 l 1,4,-1
 22 758 l 1,5,-1
 617 758 l 1,6,-1
 617 673 l 1,7,-1
 368 673 l 1,0,-1
EndSplineSet
Validated: 1
EndChar

StartChar: U
Encoding: 56 85 57
Width: 750
GlyphClass: 2
Flags: W
LayerCount: 2
Fore
SplineSet
574 758 m 1,0,-1
 671 758 l 1,1,-1
 671 226 l 2,2,3
 671 90 671 90 563 23 c 0,4,5
 488 -24 488 -24 379 -24 c 0,6,7
 207 -24 207 -24 131 81 c 0,8,9
 88 141 88 141 88 226 c 2,10,-1
 88 758 l 1,11,-1
 185 758 l 1,12,-1
 185 226 l 2,13,14
 185 145 185 145 240 101 c 0,15,16
 295 61 295 61 379 61 c 0,17,18
 508 61 508 61 554 145 c 0,19,20
 574 180 574 180 574 226 c 2,21,-1
 574 758 l 1,0,-1
EndSplineSet
Validated: 1
EndChar

StartChar: V
Encoding: 57 86 58
Width: 693
GlyphClass: 2
Flags: W
LayerCount: 2
Fore
SplineSet
408 0 m 1,0,-1
 304 0 l 1,1,-1
 31 758 l 1,2,-1
 135 758 l 1,3,-1
 358 116 l 1,4,-1
 568 758 l 1,5,-1
 671 758 l 1,6,-1
 408 0 l 1,0,-1
EndSplineSet
Validated: 1
EndChar

StartChar: W
Encoding: 58 87 59
Width: 981
GlyphClass: 2
Flags: W
LayerCount: 2
Fore
SplineSet
774 0 m 1,0,-1
 668 0 l 1,1,-1
 493 623 l 1,2,-1
 323 0 l 1,3,-1
 217 0 l 1,4,-1
 23 758 l 1,5,-1
 131 758 l 1,6,-1
 274 142 l 1,7,-1
 442 758 l 1,8,-1
 546 758 l 1,9,-1
 719 142 l 1,10,-1
 858 758 l 1,11,-1
 966 758 l 1,12,-1
 774 0 l 1,0,-1
EndSplineSet
Validated: 1
EndChar

StartChar: X
Encoding: 59 88 60
Width: 693
GlyphClass: 2
Flags: W
LayerCount: 2
Fore
SplineSet
407 389 m 1,0,-1
 675 0 l 1,1,-1
 555 0 l 1,2,-1
 348 316 l 1,3,-1
 140 0 l 1,4,-1
 23 0 l 1,5,-1
 291 389 l 1,6,-1
 40 758 l 1,7,-1
 157 758 l 1,8,-1
 352 461 l 1,9,-1
 547 758 l 1,10,-1
 662 758 l 1,11,-1
 407 389 l 1,0,-1
EndSplineSet
Validated: 1
EndChar

StartChar: Y
Encoding: 60 89 61
Width: 693
GlyphClass: 2
Flags: W
LayerCount: 2
Fore
SplineSet
402 297 m 1,0,-1
 402 0 l 1,1,-1
 306 0 l 1,2,-1
 306 297 l 1,3,-1
 14 758 l 1,4,-1
 133 758 l 1,5,-1
 356 389 l 1,6,-1
 572 758 l 1,7,-1
 687 758 l 1,8,-1
 402 297 l 1,0,-1
EndSplineSet
Validated: 1
EndChar

StartChar: Z
Encoding: 61 90 62
Width: 635
GlyphClass: 2
Flags: W
LayerCount: 2
Fore
SplineSet
604 758 m 1,0,-1
 604 671 l 1,1,-1
 151 85 l 1,2,-1
 606 85 l 1,3,-1
 606 0 l 1,4,-1
 29 0 l 1,5,-1
 29 85 l 1,6,-1
 485 673 l 1,7,-1
 58 673 l 1,8,-1
 58 758 l 1,9,-1
 604 758 l 1,0,-1
EndSplineSet
Validated: 1
EndChar

StartChar: bracketleft
Encoding: 62 91 63
Width: 289
GlyphClass: 2
Flags: W
LayerCount: 2
Fore
SplineSet
260 758 m 1,0,-1
 260 683 l 1,1,-1
 153 683 l 1,2,-1
 153 -146 l 1,3,-1
 260 -146 l 1,4,-1
 260 -220 l 1,5,-1
 67 -220 l 1,6,-1
 67 758 l 1,7,-1
 260 758 l 1,0,-1
EndSplineSet
Validated: 1
EndChar

StartChar: backslash
Encoding: 63 92 64
Width: 289
GlyphClass: 2
Flags: W
LayerCount: 2
Fore
SplineSet
49 758 m 1,0,-1
 295 -21 l 1,1,-1
 238 -21 l 1,2,-1
 -8 758 l 1,3,-1
 49 758 l 1,0,-1
EndSplineSet
Validated: 1
EndChar

StartChar: bracketright
Encoding: 64 93 65
Width: 289
GlyphClass: 2
Flags: W
LayerCount: 2
Fore
SplineSet
24 -220 m 1,0,-1
 24 -146 l 1,1,-1
 131 -146 l 1,2,-1
 131 683 l 1,3,-1
 24 683 l 1,4,-1
 24 758 l 1,5,-1
 217 758 l 1,6,-1
 217 -220 l 1,7,-1
 24 -220 l 1,0,-1
EndSplineSet
Validated: 1
EndChar

StartChar: asciicircum
Encoding: 65 94 66
Width: 487
GlyphClass: 2
Flags: W
LayerCount: 2
Fore
SplineSet
205 737 m 1,0,-1
 281 737 l 1,1,-1
 442 342 l 1,2,-1
 370 342 l 1,3,-1
 243 654 l 1,4,-1
 118 342 l 1,5,-1
 46 342 l 1,6,-1
 205 737 l 1,0,-1
EndSplineSet
Validated: 1
EndChar

StartChar: underscore
Encoding: 66 95 67
Width: 578
GlyphClass: 2
Flags: W
LayerCount: 2
Fore
SplineSet
601 -131 m 1,0,-1
 601 -183 l 1,1,-1
 -23 -183 l 1,2,-1
 -23 -131 l 1,3,-1
 601 -131 l 1,0,-1
EndSplineSet
Validated: 1
EndChar

StartChar: grave
Encoding: 67 96 68
Width: 230
GlyphClass: 2
Flags: W
LayerCount: 2
Fore
SplineSet
164 496 m 1,0,-1
 68 496 l 1,1,-1
 68 601 l 2,2,3
 68 716 68 716 147 734 c 0,4,5
 155 736 155 736 164 737 c 1,6,-1
 164 698 l 1,7,8
 114 691 114 691 114 610 c 2,9,-1
 114 604 l 1,10,-1
 164 604 l 1,11,-1
 164 496 l 1,0,-1
EndSplineSet
Validated: 1
EndChar

StartChar: a
Encoding: 68 97 69
Width: 578
GlyphClass: 2
Flags: W
LayerCount: 2
Fore
SplineSet
556 51 m 1,0,-1
 556 -15 l 1,1,2
 520 -24 520 -24 497 -24 c 0,3,4
 423 -24 423 -24 410 42 c 2,5,-1
 408 56 l 1,6,7
 317 -23 317 -23 223 -24 c 0,8,9
 108 -24 108 -24 63 54 c 0,10,11
 44 90 44 90 44 137 c 0,12,13
 44 243 44 243 139 283 c 0,14,15
 177 298 177 298 275 311 c 0,16,17
 291 313 291 313 314 316 c 0,18,19
 390 326 390 326 401 356 c 0,20,21
 405 364 405 364 405 376 c 2,22,-1
 405 399 l 2,23,24
 405 466 405 466 320 478 c 0,25,26
 303 480 303 480 283 480 c 0,27,28
 176 480 176 480 158 402 c 0,29,30
 156 393 156 393 155 384 c 1,31,-1
 68 384 l 1,32,33
 71 459 71 459 105 497 c 0,34,35
 162 561 162 561 286 561 c 0,36,37
 469 561 469 561 489 440 c 0,38,39
 491 426 491 426 491 412 c 2,40,-1
 491 92 l 2,41,42
 491 49 491 49 538 49 c 0,43,44
 547 49 547 49 556 51 c 1,0,-1
405 172 m 2,45,-1
 405 269 l 1,46,47
 371 254 371 254 286 242 c 0,48,49
 277 241 277 241 265 239 c 0,50,51
 155 224 155 224 138 167 c 0,52,53
 134 155 134 155 134 139 c 0,54,55
 134 72 134 72 204 56 c 0,56,57
 220 52 220 52 241 52 c 0,58,59
 316 52 316 52 370 101 c 0,60,61
 404 131 404 131 405 172 c 2,45,-1
EndSplineSet
Validated: 1
EndChar

StartChar: b
Encoding: 69 98 70
Width: 578
GlyphClass: 2
Flags: W
LayerCount: 2
Fore
SplineSet
56 758 m 1,0,-1
 142 758 l 1,1,-1
 142 471 l 1,2,3
 202 561 202 561 311 561 c 0,4,5
 444 561 444 561 505 448 c 0,6,7
 544 378 544 378 544 275 c 0,8,9
 544 107 544 107 449 27 c 0,10,11
 390 -24 390 -24 307 -24 c 0,12,13
 196 -24 196 -24 134 70 c 1,14,-1
 134 0 l 1,15,-1
 56 0 l 1,16,-1
 56 758 l 1,0,-1
294 479 m 0,17,18
 208 479 208 479 167 392 c 0,19,20
 142 340 142 340 142 268 c 0,21,22
 142 138 142 138 214 84 c 0,23,24
 249 57 249 57 294 57 c 0,25,26
 382 57 382 57 425 139 c 0,27,28
 453 192 453 192 453 265 c 0,29,30
 453 397 453 397 379 452 c 0,31,32
 342 479 342 479 294 479 c 0,17,18
EndSplineSet
Validated: 1
EndChar

StartChar: c
Encoding: 70 99 71
Width: 520
GlyphClass: 2
Flags: W
LayerCount: 2
Fore
SplineSet
490 362 m 1,0,-1
 402 362 l 1,1,2
 389 463 389 463 302 478 c 0,3,4
 288 480 288 480 274 480 c 0,5,6
 176 480 176 480 139 376 c 0,7,8
 123 329 123 329 123 263 c 0,9,10
 123 121 123 121 205 74 c 0,11,12
 235 56 235 56 276 56 c 0,13,14
 387 56 387 56 409 187 c 1,15,-1
 496 187 l 1,16,17
 485 45 485 45 376 -3 c 0,18,19
 332 -24 332 -24 274 -24 c 0,20,21
 139 -24 139 -24 75 85 c 0,22,23
 32 158 32 158 32 263 c 0,24,25
 32 430 32 430 128 510 c 0,26,27
 189 561 189 561 275 561 c 0,28,29
 385 561 385 561 445 490 c 2,30,-1
 453 479 l 2,31,32
 484 435 484 435 490 362 c 1,0,-1
EndSplineSet
Validated: 1
EndChar

StartChar: d
Encoding: 71 100 72
Width: 578
GlyphClass: 2
Flags: W
LayerCount: 2
Fore
SplineSet
515 758 m 1,0,-1
 515 0 l 1,1,-1
 438 0 l 1,2,-1
 438 72 l 1,3,4
 378 -15 378 -15 288 -23 c 0,5,6
 277 -24 277 -24 264 -24 c 0,7,8
 129 -24 129 -24 67 93 c 0,9,10
 27 166 27 166 27 274 c 0,11,12
 27 434 27 434 120 512 c 0,13,14
 179 561 179 561 261 561 c 0,15,16
 373 561 373 561 428 476 c 1,17,-1
 428 758 l 1,18,-1
 515 758 l 1,0,-1
276 479 m 0,19,20
 187 479 187 479 145 394 c 0,21,22
 118 342 118 342 118 268 c 0,23,24
 118 141 118 141 190 85 c 0,25,26
 228 57 228 57 277 57 c 0,27,28
 363 57 363 57 404 142 c 0,29,30
 428 194 428 194 428 266 c 0,31,32
 428 402 428 402 354 456 c 0,33,34
 319 479 319 479 276 479 c 0,19,20
EndSplineSet
Validated: 1
EndChar

StartChar: e
Encoding: 72 101 73
Width: 578
GlyphClass: 2
Flags: W
LayerCount: 2
Fore
SplineSet
534 243 m 1,0,-1
 132 243 l 1,1,2
 133 168 133 168 161 127 c 0,3,4
 206 56 206 56 292 56 c 0,5,6
 398 56 398 56 435 165 c 1,7,-1
 522 165 l 1,8,9
 499 40 499 40 391 -5 c 0,10,11
 345 -24 345 -24 289 -24 c 0,12,13
 148 -24 148 -24 82 90 c 0,14,15
 42 161 42 161 42 265 c 0,16,17
 42 430 42 430 139 510 c 0,18,19
 202 561 202 561 291 561 c 0,20,21
 411 561 411 561 478 475 c 0,22,23
 499 449 499 449 512 417 c 0,24,25
 534 360 534 360 534 243 c 1,0,-1
134 314 m 1,26,-1
 440 314 l 1,27,28
 441 316 441 316 441 320 c 0,29,30
 441 404 441 404 380 450 c 0,31,32
 340 480 340 480 290 480 c 0,33,34
 202 480 202 480 159 402 c 0,35,36
 138 365 138 365 134 314 c 1,26,-1
EndSplineSet
Validated: 1
EndChar

StartChar: f
Encoding: 73 102 74
Width: 289
GlyphClass: 2
Flags: W
LayerCount: 2
Fore
SplineSet
268 545 m 1,0,-1
 268 474 l 1,1,-1
 178 474 l 1,2,-1
 178 0 l 1,3,-1
 92 0 l 1,4,-1
 92 474 l 1,5,-1
 19 474 l 1,6,-1
 19 545 l 1,7,-1
 92 545 l 1,8,-1
 92 638 l 2,9,10
 92 729 92 729 168 754 c 0,11,12
 191 761 191 761 219 761 c 0,13,14
 243 761 243 761 268 756 c 1,15,-1
 268 684 l 1,16,17
 249 685 249 685 238 685 c 0,18,19
 178 685 178 685 178 630 c 2,20,-1
 178 545 l 1,21,-1
 268 545 l 1,0,-1
EndSplineSet
Validated: 1
EndChar

StartChar: g
Encoding: 74 103 75
Width: 578
GlyphClass: 2
Flags: W
LayerCount: 2
Fore
SplineSet
428 545 m 1,0,-1
 509 545 l 1,1,-1
 509 89 l 2,2,3
 509 -71 509 -71 466 -137 c 0,4,5
 459 -148 459 -148 451 -157 c 0,6,7
 401 -219 401 -219 288 -226 c 0,8,9
 277 -227 277 -227 265 -227 c 0,10,11
 122 -227 122 -227 70 -135 c 0,12,13
 52 -103 52 -103 48 -62 c 1,14,-1
 136 -62 l 1,15,16
 142 -103 142 -103 170 -125 c 0,17,18
 207 -154 207 -154 268 -154 c 0,19,20
 353 -154 353 -154 389 -103 c 0,21,22
 420 -60 420 -60 420 46 c 2,23,-1
 420 74 l 1,24,25
 359 -11 359 -11 283 -22 c 0,26,27
 269 -24 269 -24 255 -24 c 0,28,29
 168 -24 168 -24 105 43 c 2,30,-1
 99 49 l 2,31,32
 30 129 30 129 30 263 c 0,33,34
 30 422 30 422 119 504 c 0,35,36
 178 561 178 561 262 561 c 0,37,38
 364 561 364 561 428 466 c 1,39,-1
 428 545 l 1,0,-1
271 480 m 0,40,41
 181 480 181 480 141 388 c 0,42,43
 121 338 121 338 121 268 c 0,44,45
 121 124 121 124 202 75 c 0,46,47
 232 56 232 56 272 56 c 0,48,49
 365 56 365 56 401 152 c 0,50,51
 420 200 420 200 420 265 c 0,52,53
 420 421 420 421 335 466 c 0,54,55
 307 480 307 480 271 480 c 0,40,41
EndSplineSet
Validated: 1
EndChar

StartChar: h
Encoding: 75 104 76
Width: 578
GlyphClass: 2
Flags: W
LayerCount: 2
Fore
SplineSet
73 758 m 1,0,-1
 159 758 l 1,1,-1
 159 470 l 1,2,3
 215 543 215 543 284 556 c 0,4,5
 306 561 306 561 334 561 c 0,6,7
 448 561 448 561 489 484 c 0,8,9
 505 452 505 452 505 412 c 2,10,-1
 505 0 l 1,11,-1
 419 0 l 1,12,-1
 419 378 l 2,13,14
 419 435 419 435 384 460 c 0,15,16
 350 485 350 485 307 485 c 0,17,18
 219 485 219 485 181 405 c 0,19,20
 159 361 159 361 159 301 c 2,21,-1
 159 0 l 1,22,-1
 73 0 l 1,23,-1
 73 758 l 1,0,-1
EndSplineSet
Validated: 1
EndChar

StartChar: i
Encoding: 76 105 77
Width: 230
GlyphClass: 2
Flags: W
LayerCount: 2
Fore
SplineSet
156 545 m 1,0,-1
 156 0 l 1,1,-1
 70 0 l 1,2,-1
 70 545 l 1,3,-1
 156 545 l 1,0,-1
156 758 m 1,4,-1
 156 649 l 1,5,-1
 69 649 l 1,6,-1
 69 758 l 1,7,-1
 156 758 l 1,4,-1
EndSplineSet
Validated: 1
EndChar

StartChar: j
Encoding: 77 106 78
Width: 230
GlyphClass: 2
Flags: W
LayerCount: 2
Fore
SplineSet
73 545 m 1,0,-1
 159 545 l 1,1,-1
 159 -113 l 2,2,3
 159 -220 159 -220 26 -227 c 0,4,5
 19 -227 19 -227 10 -227 c 0,6,7
 -3 -227 -3 -227 -19 -224 c 1,8,-1
 -19 -150 l 1,9,10
 -1 -151 -1 -151 2 -151 c 0,11,12
 56 -151 56 -151 68 -118 c 0,13,14
 73 -103 73 -103 73 -79 c 2,15,-1
 73 545 l 1,0,-1
159 758 m 1,16,-1
 159 649 l 1,17,-1
 73 649 l 1,18,-1
 73 758 l 1,19,-1
 159 758 l 1,16,-1
EndSplineSet
Validated: 1
EndChar

StartChar: k
Encoding: 78 107 79
Width: 520
GlyphClass: 2
Flags: W
LayerCount: 2
Fore
SplineSet
147 758 m 1,0,-1
 147 314 l 1,1,-1
 378 545 l 1,2,-1
 489 545 l 1,3,-1
 300 357 l 1,4,-1
 522 0 l 1,5,-1
 415 0 l 1,6,-1
 231 295 l 1,7,-1
 147 212 l 1,8,-1
 147 0 l 1,9,-1
 60 0 l 1,10,-1
 60 758 l 1,11,-1
 147 758 l 1,0,-1
EndSplineSet
Validated: 1
EndChar

StartChar: l
Encoding: 79 108 80
Width: 230
GlyphClass: 2
Flags: W
LayerCount: 2
Fore
SplineSet
158 758 m 1,0,-1
 158 0 l 1,1,-1
 71 0 l 1,2,-1
 71 758 l 1,3,-1
 158 758 l 1,0,-1
EndSplineSet
Validated: 1
EndChar

StartChar: m
Encoding: 80 109 81
Width: 866
GlyphClass: 2
Flags: W
LayerCount: 2
Fore
SplineSet
73 545 m 1,0,-1
 153 545 l 1,1,-1
 153 468 l 1,2,3
 209 547 209 547 286 558 c 0,4,5
 302 561 302 561 320 561 c 0,6,7
 413 561 413 561 458 493 c 0,8,9
 463 486 463 486 467 477 c 1,10,11
 523 545 523 545 589 556 c 0,12,13
 609 561 609 561 634 561 c 0,14,15
 761 561 761 561 787 459 c 0,16,17
 792 436 792 436 792 409 c 2,18,-1
 792 0 l 1,19,-1
 705 0 l 1,20,-1
 705 375 l 2,21,22
 705 460 705 460 640 479 c 0,23,24
 623 485 623 485 604 485 c 0,25,26
 540 485 540 485 501 426 c 0,27,28
 476 389 476 389 476 342 c 2,29,-1
 476 0 l 1,30,-1
 389 0 l 1,31,-1
 389 375 l 2,32,33
 389 466 389 466 315 482 c 0,34,35
 303 485 303 485 288 485 c 0,36,37
 225 485 225 485 186 428 c 0,38,39
 160 390 160 390 160 342 c 2,40,-1
 160 0 l 1,41,-1
 73 0 l 1,42,-1
 73 545 l 1,0,-1
EndSplineSet
Validated: 1
EndChar

StartChar: n
Encoding: 81 110 82
Width: 578
GlyphClass: 2
Flags: W
LayerCount: 2
Fore
SplineSet
73 545 m 1,0,-1
 153 545 l 1,1,-1
 153 453 l 1,2,3
 209 542 209 542 288 556 c 0,4,5
 309 561 309 561 334 561 c 0,6,7
 443 561 443 561 487 488 c 0,8,9
 506 454 506 454 506 412 c 2,10,-1
 506 0 l 1,11,-1
 420 0 l 1,12,-1
 420 378 l 2,13,14
 420 450 420 450 359 475 c 0,15,16
 336 485 336 485 308 485 c 0,17,18
 220 485 220 485 182 405 c 0,19,20
 160 361 160 361 160 301 c 2,21,-1
 160 0 l 1,22,-1
 73 0 l 1,23,-1
 73 545 l 1,0,-1
EndSplineSet
Validated: 1
EndChar

StartChar: o
Encoding: 82 111 83
Width: 578
GlyphClass: 2
Flags: W
LayerCount: 2
Fore
SplineSet
283 561 m 0,0,1
 441 561 441 561 500 426 c 0,2,3
 530 359 530 359 530 264 c 0,4,5
 530 90 530 90 424 17 c 0,6,7
 366 -24 366 -24 284 -24 c 0,8,9
 134 -24 134 -24 72 100 c 0,10,11
 37 170 37 170 37 268 c 0,12,13
 37 449 37 449 147 522 c 0,14,15
 204 561 204 561 283 561 c 0,0,1
284 480 m 0,16,17
 187 480 187 480 148 385 c 0,18,19
 128 335 128 335 128 268 c 0,20,21
 128 126 128 126 209 76 c 0,22,23
 241 56 241 56 284 56 c 0,24,25
 378 56 378 56 418 148 c 0,26,27
 440 197 440 197 440 265 c 0,28,29
 440 416 440 416 355 464 c 0,30,31
 323 480 323 480 284 480 c 0,16,17
EndSplineSet
Validated: 1
EndChar

StartChar: p
Encoding: 83 112 84
Width: 578
GlyphClass: 2
Flags: W
LayerCount: 2
Fore
SplineSet
56 -227 m 1,0,-1
 56 545 l 1,1,-1
 136 545 l 1,2,-1
 136 463 l 1,3,4
 198 561 198 561 310 561 c 0,5,6
 442 561 442 561 504 445 c 0,7,8
 544 371 544 371 544 263 c 0,9,10
 544 103 544 103 451 25 c 0,11,12
 393 -24 393 -24 311 -24 c 0,13,14
 210 -24 210 -24 144 57 c 1,15,-1
 144 -227 l 1,16,-1
 56 -227 l 1,0,-1
295 479 m 0,17,18
 209 479 209 479 168 392 c 0,19,20
 144 340 144 340 144 268 c 0,21,22
 144 138 144 138 215 84 c 0,23,24
 250 57 250 57 295 57 c 0,25,26
 383 57 383 57 426 141 c 0,27,28
 453 193 453 193 453 265 c 0,29,30
 453 397 453 397 380 452 c 0,31,32
 343 479 343 479 295 479 c 0,17,18
EndSplineSet
Validated: 1
EndChar

StartChar: q
Encoding: 84 113 85
Width: 578
GlyphClass: 2
Flags: W
LayerCount: 2
Fore
SplineSet
515 -227 m 1,0,-1
 428 -227 l 1,1,-1
 428 62 l 1,2,3
 369 -24 369 -24 260 -24 c 0,4,5
 127 -24 127 -24 66 88 c 0,6,7
 27 159 27 159 27 262 c 0,8,9
 27 430 27 430 122 510 c 0,10,11
 181 561 181 561 264 561 c 0,12,13
 375 561 375 561 438 472 c 1,14,-1
 438 545 l 1,15,-1
 515 545 l 1,16,-1
 515 -227 l 1,0,-1
277 479 m 0,17,18
 189 479 189 479 146 395 c 0,19,20
 118 342 118 342 118 268 c 0,21,22
 118 141 118 141 190 85 c 0,23,24
 228 57 228 57 277 57 c 0,25,26
 362 57 362 57 404 141 c 0,27,28
 428 193 428 193 428 265 c 0,29,30
 428 401 428 401 355 454 c 0,31,32
 320 479 320 479 277 479 c 0,17,18
EndSplineSet
Validated: 1
EndChar

StartChar: r
Encoding: 85 114 86
Width: 346
GlyphClass: 2
Flags: W
LayerCount: 2
Fore
SplineSet
72 545 m 1,0,-1
 152 545 l 1,1,-1
 152 446 l 1,2,3
 212 543 212 543 272 557 c 0,4,5
 286 561 286 561 301 561 c 0,6,7
 312 561 312 561 334 557 c 1,8,-1
 334 469 l 1,9,10
 259 468 259 468 227 446 c 2,11,-1
 220 442 l 2,12,13
 159 397 159 397 159 283 c 2,14,-1
 159 0 l 1,15,-1
 72 0 l 1,16,-1
 72 545 l 1,0,-1
EndSplineSet
Validated: 1
EndChar

StartChar: s
Encoding: 86 115 87
Width: 520
GlyphClass: 2
Flags: W
LayerCount: 2
Fore
SplineSet
456 393 m 1,0,-1
 364 393 l 1,1,2
 361 480 361 480 255 480 c 0,3,4
 170 480 170 480 146 430 c 0,5,6
 139 415 139 415 139 398 c 0,7,8
 139 352 139 352 208 329 c 0,9,10
 223 324 223 324 240 320 c 2,11,-1
 323 301 l 2,12,13
 446 271 446 271 470 199 c 0,14,15
 477 177 477 177 477 149 c 0,16,17
 477 50 477 50 386 4 c 0,18,19
 331 -24 331 -24 253 -24 c 0,20,21
 51 -24 51 -24 36 145 c 0,22,23
 35 153 35 153 35 162 c 1,24,-1
 127 162 l 1,25,26
 133 113 133 113 152 93 c 0,27,28
 186 56 186 56 260 56 c 0,29,30
 347 56 347 56 376 105 c 0,31,32
 387 122 387 122 387 141 c 0,33,34
 387 189 387 189 331 209 c 0,35,36
 318 213 318 213 303 217 c 2,37,-1
 222 237 l 2,38,39
 98 267 98 267 66 320 c 0,40,41
 49 349 49 349 49 394 c 0,42,43
 49 491 49 491 136 535 c 0,44,45
 187 561 187 561 258 561 c 0,46,47
 409 561 409 561 445 456 c 0,48,49
 456 427 456 427 456 393 c 1,0,-1
EndSplineSet
Validated: 1
EndChar

StartChar: t
Encoding: 87 116 88
Width: 289
GlyphClass: 2
Flags: W
LayerCount: 2
Fore
SplineSet
264 545 m 1,0,-1
 264 474 l 1,1,-1
 175 474 l 1,2,-1
 175 101 l 2,3,4
 175 61 175 61 198 55 c 0,5,6
 207 52 207 52 223 52 c 0,7,8
 249 52 249 52 264 56 c 1,9,-1
 264 -17 l 1,10,11
 224 -24 224 -24 193 -24 c 0,12,13
 101 -24 101 -24 89 46 c 0,14,15
 88 53 88 53 88 62 c 2,16,-1
 88 474 l 1,17,-1
 15 474 l 1,18,-1
 15 545 l 1,19,-1
 88 545 l 1,20,-1
 88 695 l 1,21,-1
 175 695 l 1,22,-1
 175 545 l 1,23,-1
 264 545 l 1,0,-1
EndSplineSet
Validated: 1
EndChar

StartChar: u
Encoding: 88 117 89
Width: 578
GlyphClass: 2
Flags: W
LayerCount: 2
Fore
SplineSet
501 0 m 1,0,-1
 423 0 l 1,1,-1
 423 76 l 1,2,3
 365 -6 365 -6 288 -20 c 0,4,5
 267 -24 267 -24 241 -24 c 0,6,7
 130 -24 130 -24 87 49 c 0,8,9
 68 82 68 82 68 125 c 2,10,-1
 68 545 l 1,11,-1
 154 545 l 1,12,-1
 154 159 l 2,13,14
 154 86 154 86 215 61 c 0,15,16
 238 52 238 52 266 52 c 0,17,18
 355 52 355 52 394 133 c 0,19,20
 415 177 415 177 415 236 c 2,21,-1
 415 545 l 1,22,-1
 501 545 l 1,23,-1
 501 0 l 1,0,-1
EndSplineSet
Validated: 1
EndChar

StartChar: v
Encoding: 89 118 90
Width: 520
GlyphClass: 2
Flags: W
LayerCount: 2
Fore
SplineSet
296 0 m 1,0,-1
 202 0 l 1,1,-1
 10 545 l 1,2,-1
 108 545 l 1,3,-1
 254 103 l 1,4,-1
 408 545 l 1,5,-1
 505 545 l 1,6,-1
 296 0 l 1,0,-1
EndSplineSet
Validated: 1
EndChar

StartChar: w
Encoding: 90 119 91
Width: 750
GlyphClass: 2
Flags: W
LayerCount: 2
Fore
SplineSet
576 0 m 1,0,-1
 477 0 l 1,1,-1
 367 427 l 1,2,-1
 262 0 l 1,3,-1
 164 0 l 1,4,-1
 6 545 l 1,5,-1
 102 545 l 1,6,-1
 213 121 l 1,7,-1
 317 545 l 1,8,-1
 423 545 l 1,9,-1
 530 121 l 1,10,-1
 639 545 l 1,11,-1
 736 545 l 1,12,-1
 576 0 l 1,0,-1
EndSplineSet
Validated: 1
EndChar

StartChar: x
Encoding: 91 120 92
Width: 520
GlyphClass: 2
Flags: W
LayerCount: 2
Fore
SplineSet
304 282 m 1,0,-1
 492 0 l 1,1,-1
 391 0 l 1,2,-1
 255 209 l 1,3,-1
 116 0 l 1,4,-1
 18 0 l 1,5,-1
 210 278 l 1,6,-1
 28 545 l 1,7,-1
 127 545 l 1,8,-1
 258 347 l 1,9,-1
 389 545 l 1,10,-1
 487 545 l 1,11,-1
 304 282 l 1,0,-1
EndSplineSet
Validated: 1
EndChar

StartChar: y
Encoding: 92 121 93
Width: 520
GlyphClass: 2
Flags: W
LayerCount: 2
Fore
SplineSet
404 545 m 1,0,-1
 497 545 l 1,1,-1
 255 -114 l 2,2,3
 232 -174 232 -174 196 -201 c 0,4,5
 160 -227 160 -227 114 -227 c 0,6,7
 82 -227 82 -227 56 -213 c 1,8,-1
 56 -135 l 1,9,10
 84 -141 84 -141 102 -141 c 0,11,12
 149 -141 149 -141 167 -100 c 0,13,14
 170 -95 170 -95 172 -88 c 2,15,-1
 205 -2 l 1,16,-1
 21 545 l 1,17,-1
 113 545 l 1,18,-1
 253 121 l 1,19,-1
 404 545 l 1,0,-1
EndSplineSet
Validated: 1
EndChar

StartChar: z
Encoding: 93 122 94
Width: 520
GlyphClass: 2
Flags: W
LayerCount: 2
Fore
SplineSet
461 545 m 1,0,-1
 461 468 l 1,1,-1
 137 76 l 1,2,-1
 475 76 l 1,3,-1
 475 0 l 1,4,-1
 32 0 l 1,5,-1
 32 78 l 1,6,-1
 358 469 l 1,7,-1
 54 469 l 1,8,-1
 54 545 l 1,9,-1
 461 545 l 1,0,-1
EndSplineSet
Validated: 1
EndChar

StartChar: braceleft
Encoding: 94 123 95
Width: 347
GlyphClass: 2
Flags: W
LayerCount: 2
Fore
SplineSet
287 758 m 1,0,-1
 287 691 l 1,1,-1
 271 691 l 2,2,3
 223 691 223 691 211 662 c 0,4,5
 206 648 206 648 206 621 c 2,6,-1
 206 433 l 2,7,8
 206 331 206 331 163 294 c 0,9,10
 147 280 147 280 121 269 c 1,11,12
 206 230 206 230 206 105 c 2,13,-1
 206 -83 l 2,14,15
 206 -135 206 -135 232 -147 c 0,16,17
 245 -153 245 -153 271 -153 c 2,18,-1
 287 -153 l 1,19,-1
 287 -220 l 1,20,-1
 239 -220 l 2,21,22
 154 -220 154 -220 132 -137 c 0,23,24
 126 -113 126 -113 126 -84 c 2,25,-1
 126 89 l 2,26,27
 126 186 126 186 89 214 c 0,28,29
 73 227 73 227 45 233 c 1,30,-1
 45 305 l 1,31,32
 101 316 101 316 115 362 c 0,33,34
 126 392 126 392 126 448 c 2,35,-1
 126 622 l 2,36,37
 126 728 126 728 200 752 c 0,38,39
 218 758 218 758 239 758 c 2,40,-1
 287 758 l 1,0,-1
EndSplineSet
Validated: 1
EndChar

StartChar: bar
Encoding: 95 124 96
Width: 270
GlyphClass: 2
Flags: W
LayerCount: 2
Fore
SplineSet
104 758 m 1,0,-1
 166 758 l 1,1,-1
 166 -220 l 1,2,-1
 104 -220 l 1,3,-1
 104 758 l 1,0,-1
EndSplineSet
Validated: 1
EndChar

StartChar: braceright
Encoding: 96 125 97
Width: 347
GlyphClass: 2
Flags: W
LayerCount: 2
Fore
SplineSet
30 -220 m 1,0,-1
 30 -153 l 1,1,-1
 47 -153 l 2,2,3
 97 -153 97 -153 108 -125 c 0,4,5
 113 -110 113 -110 113 -83 c 2,6,-1
 113 105 l 2,7,8
 113 230 113 230 199 268 c 1,9,10
 113 308 113 308 113 433 c 2,11,-1
 113 621 l 2,12,13
 113 673 113 673 86 684 c 0,14,15
 73 691 73 691 47 691 c 2,16,-1
 30 691 l 1,17,-1
 30 758 l 1,18,-1
 79 758 l 2,19,20
 165 758 165 758 187 674 c 0,21,22
 193 650 193 650 193 622 c 2,23,-1
 193 448 l 2,24,25
 193 350 193 350 231 322 c 0,26,27
 246 310 246 310 272 305 c 1,28,-1
 272 233 l 1,29,30
 218 222 218 222 203 174 c 0,31,32
 193 145 193 145 193 89 c 2,33,-1
 193 -84 l 2,34,35
 193 -191 193 -191 118 -215 c 0,36,37
 100 -220 100 -220 79 -220 c 2,38,-1
 30 -220 l 1,0,-1
EndSplineSet
Validated: 1
EndChar

StartChar: asciitilde
Encoding: 97 126 98
Width: 607
GlyphClass: 2
Flags: W
LayerCount: 2
Fore
SplineSet
473 427 m 1,0,-1
 528 427 l 1,1,-1
 528 411 l 2,2,3
 528 322 528 322 469 291 c 0,4,5
 447 279 447 279 419 279 c 0,6,7
 379 279 379 279 335 306 c 2,8,-1
 233 371 l 2,9,10
 209 386 209 386 188 386 c 0,11,12
 158 386 158 386 141 349 c 0,13,14
 136 335 136 335 133 305 c 1,15,-1
 78 305 l 1,16,17
 85 441 85 441 173 454 c 0,18,19
 181 456 181 456 190 456 c 0,20,21
 218 456 218 456 246 439 c 2,22,-1
 368 367 l 2,23,24
 397 349 397 349 420 349 c 0,25,26
 466 349 466 349 472 400 c 2,27,-1
 473 427 l 1,0,-1
EndSplineSet
Validated: 1
EndChar

StartChar: uni0901
Encoding: 99 2305 100
Width: 7
GlyphClass: 2
Flags: W
AnchorPoint: "Anchor-0" -110 634 mark 0
LayerCount: 2
Fore
SplineSet
-39 853 m 1,0,-1
 -114 778 l 1,1,-1
 -183 847 l 1,2,-1
 -109 922 l 1,3,-1
 -39 853 l 1,0,-1
76 847 m 1,4,5
 76 770 76 770 19 721 c 128,-1,6
 -38 672 -38 672 -116 672 c 0,7,8
 -118 672 -118 672 -119 672 c 128,-1,9
 -120 672 -120 672 -122 672 c 0,10,11
 -123.373 671.98 -123.373 671.98 -124.74 671.98 c 0,12,13
 -193.137 671.98 -193.137 671.98 -250 721 c 0,14,15
 -305 768 -305 768 -307 847 c 1,16,-1
 -234 847 l 1,17,18
 -234 803 -234 803 -198 774 c 128,-1,19
 -162 745 -162 745 -116 745 c 0,20,21
 -65 745 -65 745 -32 772 c 0,22,23
 0 798 0 798 1 847 c 1,24,-1
 76 847 l 1,4,5
EndSplineSet
Validated: 1
EndChar

StartChar: uni0902
Encoding: 100 2306 101
Width: 0
GlyphClass: 4
Flags: W
AnchorPoint: "Anchor-0" -114 612 mark 0
LayerCount: 2
Fore
SplineSet
-19 779 m 5,0,-1
 -113 685 l 1,1,-1
 -199 771 l 1,2,-1
 -106 865 l 1,3,-1
 -19 779 l 5,0,-1
EndSplineSet
Validated: 1
EndChar

StartChar: uni0903
Encoding: 101 2307 102
Width: 313
GlyphClass: 2
Flags: W
LayerCount: 2
Fore
SplineSet
243 423 m 1,0,-1
 150 329 l 1,1,-1
 63 416 l 1,2,-1
 156 510 l 1,3,-1
 243 423 l 1,0,-1
246 139 m 1,4,-1
 153 45 l 1,5,-1
 67 131 l 1,6,-1
 160 225 l 1,7,-1
 246 139 l 1,4,-1
EndSplineSet
Validated: 1
EndChar

StartChar: uni0904
Encoding: 102 2308 103
Width: 735
GlyphClass: 4
Flags: W
LayerCount: 2
Fore
SplineSet
735 553 m 1,0,-1
 645 553 l 1,1,-1
 645 0 l 1,2,-1
 570 0 l 1,3,-1
 570 268 l 1,4,5
 565.415 266.303 565.415 266.303 536 260 c 0,6,7
 522 257 522 257 503 257 c 0,8,9
 473 257 473 257 454 269 c 1,10,11
 461 247 461 247 461 216 c 0,12,13
 461 60 461 60 301 59 c 0,14,15
 208 58 208 58 110 169 c 1,16,17
 34 259 34 259 31 299 c 1,18,-1
 91 335 l 1,19,20
 132 264 132 264 155 235 c 0,21,22
 233 137 233 137 301 134 c 1,23,24
 386 132 386 132 386 216 c 0,25,26
 386 269 386 269 354 299 c 0,27,28
 322 328 322 328 274 328 c 0,29,30
 229 328 229 328 211 318 c 1,31,-1
 186 380 l 1,32,33
 202 380 202 380 210 379 c 1,34,35
 264 379 264 379 298 406 c 128,-1,36
 332 433 332 433 334 482 c 1,37,38
 334 552 334 552 260 553 c 0,39,40
 205.8 553 205.8 553 161 511 c 0,41,42
 145 496 145 496 133 478 c 1,43,-1
 73 523 l 1,44,45
 73 538 73 538 127 577 c 1,46,47
 194 628 194 628 263 628 c 1,48,49
 322 630 322 630 366 586 c 0,50,51
 408 544 408 544 408 481 c 0,52,53
 408 415 408 415 349 372 c 1,54,55
 370 368 370 368 385 359 c 1,56,-1
 402 352 l 1,57,-1
 442 335 l 2,58,59
 458.471 328 458.471 328 491 328 c 0,60,61
 504 328 504 328 544 338 c 1,62,63
 550 338 550 338 570 346 c 1,64,-1
 570 553 l 1,65,-1
 464 553 l 1,66,-1
 464 628 l 1,67,-1
 576 628 l 1,68,-1
 576 678 l 2,69,70
 576 731.177 576 731.177 526 740 c 0,71,72
 509 743 509 743 492 738 c 0,73,74
 397 713 397 713 379 710 c 1,75,76
 334 706 334 706 302 726 c 0,77,78
 262 752 262 752 262 798 c 2,79,-1
 262 877 l 1,80,-1
 329 877 l 1,81,-1
 329 822 l 2,82,83
 329 777.562 329 777.562 370 775 c 0,84,85
 386 774 386 774 454 794 c 0,86,87
 515 812 515 812 553 800 c 0,88,89
 614 781 614 781 634 739 c 0,90,91
 639.849 727.303 639.849 727.303 640 714 c 2,92,-1
 640.977 628 l 1,93,-1
 735 628 l 1,94,-1
 735 553 l 1,0,-1
EndSplineSet
Validated: 33
EndChar

StartChar: uni0905
Encoding: 103 2309 104
Width: 735
GlyphClass: 2
Flags: W
LayerCount: 2
Fore
SplineSet
735 553 m 1,0,-1
 645 553 l 1,1,-1
 645 0 l 1,2,-1
 570 0 l 1,3,-1
 570 268 l 1,4,5
 565 266 565 266 536 260 c 0,6,7
 522 257 522 257 503 257 c 0,8,9
 473 257 473 257 454 269 c 1,10,11
 461 247 461 247 461 216 c 0,12,13
 461 60 461 60 301 59 c 0,14,15
 206 58 206 58 110 169 c 0,16,17
 34 257 34 257 31 299 c 1,18,-1
 91 335 l 1,19,20
 132 264 132 264 155 235 c 0,21,22
 234 136 234 136 301 134 c 0,23,24
 386 132 386 132 386 216 c 0,25,26
 386 269 386 269 354 299 c 0,27,28
 322 328 322 328 274 328 c 0,29,30
 229 328 229 328 211 318 c 1,31,-1
 186 380 l 1,32,33
 202 380 202 380 210 379 c 0,34,35
 264 379 264 379 298 406 c 0,36,37
 333 434 333 434 334 482 c 0,38,39
 335 553 335 553 260 553 c 0,40,41
 206 553 206 553 161 511 c 0,42,43
 145 496 145 496 133 478 c 1,44,-1
 73 523 l 1,45,46
 73 536 73 536 127 577 c 0,47,48
 193 627 193 627 263 628 c 0,49,50
 323 629 323 629 366 586 c 0,51,52
 408 544 408 544 408 481 c 0,53,54
 408 415 408 415 349 372 c 1,55,56
 360.271 369.183 360.271 369.183 385 359 c 2,57,-1
 402 352 l 1,58,-1
 442 335 l 2,59,60
 458.471 328 458.471 328 491 328 c 0,61,62
 498 328 498 328 544 338 c 0,63,64
 557 341 557 341 570 346 c 1,65,-1
 570 553 l 1,66,-1
 464 553 l 1,67,-1
 464 628 l 1,68,-1
 735 628 l 1,69,-1
 735 553 l 1,0,-1
EndSplineSet
Validated: 33
EndChar

StartChar: uni0906
Encoding: 104 2310 105
Width: 848
GlyphClass: 2
Flags: W
LayerCount: 2
Fore
SplineSet
306 482 m 1,0,1
 306 552 306 552 231 552.5 c 128,-1,2
 156 553 156 553 106 478 c 1,3,-1
 46 523 l 1,4,5
 46 538 46 538 100 577 c 1,6,7
 167 628 167 628 235 628 c 1,8,9
 294 630 294 630 337 587 c 128,-1,10
 380 544 380 544 380 479.5 c 128,-1,11
 380 415 380 415 322 372 c 1,12,13
 342 368 342 368 358 359 c 1,14,-1
 414 335 l 2,15,16
 430.333 328 430.333 328 453.5 328 c 0,17,18
 476 328 476 328 516 338 c 1,19,20
 522 338 522 338 542 346 c 1,21,-1
 542 553 l 1,22,-1
 437 553 l 1,23,-1
 437 628 l 1,24,-1
 848 628 l 1,25,-1
 848 553 l 1,26,-1
 771 553 l 1,27,-1
 771 0 l 1,28,-1
 696 0 l 1,29,-1
 696 553 l 1,30,-1
 617 553 l 1,31,-1
 617 0 l 1,32,-1
 542 0 l 1,33,-1
 542 268 l 1,34,35
 538 268 538 268 516 262.5 c 128,-1,36
 494 257 494 257 469.5 257 c 128,-1,37
 445 257 445 257 426 269 c 1,38,39
 433 247 433 247 433 216 c 0,40,41
 433 60 433 60 274 59 c 0,42,43
 180 58 180 58 83 169 c 1,44,45
 6 259 6 259 4 299 c 1,46,-1
 64 335 l 1,47,48
 104 264 104 264 127 235 c 0,49,50
 205 137 205 137 274 134 c 1,51,52
 359 132 359 132 359 216 c 0,53,54
 359 269 359 269 326.5 298.5 c 128,-1,55
 294 328 294 328 248 328 c 128,-1,56
 202 328 202 328 184 318 c 1,57,-1
 158 380 l 1,58,59
 174 380 174 380 182 379 c 1,60,61
 236 379 236 379 270.5 406 c 128,-1,62
 305 433 305 433 306 482 c 1,0,1
EndSplineSet
Validated: 33
EndChar

StartChar: uni0907
Encoding: 105 2311 106
Width: 475
GlyphClass: 2
Flags: W
AnchorPoint: "Anchor-0" 386 624 basechar 0
LayerCount: 2
Fore
SplineSet
475 553 m 1,0,-1
 383 553 l 5,1,-1
 383 379 l 1,2,-1
 143 379 l 2,3,4
 136 379 136 379 136 373 c 0,5,6
 136 356 136 356 174 316 c 0,7,8
 213.18 273.727 213.18 273.727 232 277 c 0,9,10
 244.778 279.222 244.778 279.222 293 293 c 0,11,12
 332 304 332 304 355 304 c 0,13,14
 389 304 389 304 414 274 c 0,15,16
 439 245 439 245 439 211 c 0,17,18
 439 65 439 65 296 19 c 1,19,20
 315.776 -10.0816 315.776 -10.0816 361 -44 c 2,21,-1
 365 -47 l 2,22,23
 421.369 -89.2769 421.369 -89.2769 438 -90 c 1,24,-1
 392 -155 l 1,25,26
 360.106 -132.469 360.106 -132.469 344 -122 c 0,27,28
 337.744 -117.934 337.744 -117.934 286 -74 c 0,29,30
 267.219 -58.0541 267.219 -58.0541 238 -28 c 2,31,-1
 203 8 l 1,32,33
 43 8 43 8 43 101 c 0,34,35
 43 127 43 127 62 145 c 0,36,37
 80.4472 162.525 80.4472 162.525 107 164 c 0,38,39
 148.444 166.302 148.444 166.302 188 126 c 2,40,-1
 241 72 l 1,41,42
 272.388 72 272.388 72 311 94 c 0,43,44
 364 124.198 364 124.198 364 173 c 0,45,46
 364 196 364 196 359 211 c 0,47,48
 353.653 225.257 353.653 225.257 331 227 c 0,49,50
 312.163 228.449 312.163 228.449 274 217 c 0,51,52
 234 205 234 205 214 205 c 0,53,54
 164.243 205 164.243 205 109 278 c 0,55,56
 53 352 53 352 50 398 c 0,57,58
 48 422 48 422 67 439 c 0,59,60
 86 455 86 455 110 455 c 2,61,-1
 308 455 l 1,62,-1
 308 553 l 1,63,-1
 0 553 l 1,64,-1
 0 628 l 1,65,-1
 475 628 l 1,66,-1
 475 553 l 1,0,-1
EndSplineSet
Validated: 33
EndChar

StartChar: uni0908
Encoding: 106 2312 107
Width: 475
GlyphClass: 2
Flags: W
AnchorPoint: "Anchor-0" 366 633 basechar 0
LayerCount: 2
Fore
SplineSet
475 553 m 1,0,-1
 383 553 l 1,1,-1
 383 379 l 1,2,-1
 143 379 l 2,3,4
 136 379 136 379 136 373 c 0,5,6
 136 356 136 356 174 316 c 0,7,8
 212 275 212 275 232 277 c 1,9,10
 256 282 256 282 293 293 c 0,11,12
 332 304 332 304 355 304 c 0,13,14
 389 304 389 304 414 274 c 0,15,16
 439 245 439 245 439 211 c 0,17,18
 439 65 439 65 296 19 c 1,19,20
 313 -6 313 -6 361 -44 c 1,21,-1
 365 -47 l 1,22,23
 415 -89 415 -89 438 -90 c 1,24,-1
 392 -155 l 1,25,26
 359 -134 359 -134 344 -122 c 1,27,28
 324 -109 324 -109 286 -74 c 1,29,30
 271 -64 271 -64 238 -28 c 1,31,-1
 203 8 l 1,32,33
 46 8 46 8 43 101 c 0,34,35
 43 127 43 127 62 145 c 0,36,37
 82 164 82 164 107 164 c 1,38,39
 143 166 143 166 188 126 c 1,40,-1
 241 72 l 1,41,42
 275 72 275 72 311 94 c 1,43,44
 361 121 361 121 364 173 c 1,45,46
 364 196 364 196 359 211 c 0,47,48
 353 227 353 227 331 227 c 1,49,50
 318 228 318 228 274 217 c 1,51,52
 234 205 234 205 214 205 c 0,53,54
 167 205 167 205 109 278 c 1,55,56
 53 352 53 352 50 398 c 0,57,58
 48 422 48 422 67 439 c 0,59,60
 86 455 86 455 110 455 c 2,61,-1
 308 455 l 1,62,-1
 308 553 l 1,63,-1
 0 553 l 1,64,-1
 0 628 l 1,65,-1
 316 628 l 1,66,67
 284 668 284 668 271 688 c 0,68,69
 228 758 228 758 227 813 c 0,70,71
 226.009 867 226.009 867 266 897 c 1,72,73
 301 922 301 922 358 923 c 1,74,75
 397 925 397 925 430 911 c 1,76,-1
 430 851 l 1,77,78
 407 856 407 856 360 865 c 1,79,80
 292 865 292 865 290 789 c 0,81,82
 289 745 289 745 332 681 c 0,83,84
 348 657 348 657 374 628 c 1,85,-1
 475 628 l 1,86,-1
 475 553 l 1,0,-1
EndSplineSet
Validated: 33
EndChar

StartChar: uni0909
Encoding: 107 2313 108
Width: 595
GlyphClass: 2
Flags: W
LayerCount: 2
Fore
SplineSet
595 553 m 1,0,-1
 479 553 l 1,1,2
 523 484 523 484 523 433 c 0,3,4
 523 368 523 368 467 326 c 1,5,6
 557 282 557 282 559 158 c 0,7,8
 560 85 560 85 505 38 c 0,9,10
 454.751 -5.07054 454.751 -5.07054 379 -6 c 0,11,12
 218.283 -7.972 218.283 -7.972 83 283 c 0,13,14
 38.3268 379.085 38.3268 379.085 44 388 c 1,15,-1
 108 426 l 1,16,17
 108 413 108 413 145 328 c 0,18,19
 184.336 235.508 184.336 235.508 236 168 c 0,20,21
 311.948 68.7608 311.948 68.7608 377 68 c 0,22,23
 479.95 66.7959 479.95 66.7959 484 164 c 0,24,25
 486 212 486 212 450 251 c 128,-1,26
 414 290 414 290 366 290 c 2,27,-1
 266 290 l 1,28,-1
 234 365 l 1,29,-1
 308 365 l 2,30,31
 352.643 365 352.643 365 378 370 c 0,32,33
 449 384 449 384 449 439 c 0,34,35
 449 461.333 449 461.333 421 515 c 0,36,37
 409 538 409 538 395 553 c 1,38,-1
 0 553 l 1,39,-1
 0 628 l 1,40,-1
 595 628 l 1,41,-1
 595 553 l 1,0,-1
EndSplineSet
Validated: 33
EndChar

StartChar: uni090A
Encoding: 108 2314 109
Width: 823
GlyphClass: 2
Flags: W
AnchorPoint: "Anchor-0" 398 630 basechar 0
LayerCount: 2
Fore
SplineSet
551 221 m 1,0,1
 559 196 559 196 559 158 c 0,2,3
 560 85 560 85 505 38 c 0,4,5
 456 -4 456 -4 379 -6 c 0,6,7
 216 -8 216 -8 83 283 c 0,8,9
 37 377 37 377 44 388 c 1,10,-1
 108 426 l 1,11,12
 108 413 108 413 145 328 c 0,13,14
 182 241 182 241 236 168 c 0,15,16
 311 70 311 70 377 68 c 0,17,18
 482 68 482 68 484 164 c 0,19,20
 486 212 486 212 450 251 c 128,-1,21
 414 290 414 290 366 290 c 2,22,-1
 266 290 l 1,23,-1
 234 365 l 1,24,-1
 308 365 l 2,25,26
 358 365 358 365 378 370 c 0,27,28
 449 384 449 384 449 439 c 0,29,30
 449 467 449 467 421 515 c 0,31,32
 409 538 409 538 395 553 c 1,33,-1
 0 553 l 1,34,-1
 0 628 l 1,35,-1
 823 628 l 5,36,-1
 823 553 l 1,37,-1
 479 553 l 1,38,39
 523 484 523 484 523 433 c 0,40,41
 523 368 523 368 467 326 c 1,42,43
 487 317 487 317 514 290 c 1,44,45
 582 368 582 368 650 368 c 0,46,47
 706 370 706 370 748 328 c 0,48,49
 787 284 787 284 787 228 c 0,50,51
 787 163 787 163 731 79 c 0,52,53
 713 50 713 50 674 5 c 1,54,-1
 614 41 l 1,55,56
 712 173 712 173 713 223 c 0,57,58
 714 252 714 252 696 272 c 0,59,60
 676 293 676 293 648 294 c 0,61,62
 612 294 612 294 551 221 c 1,0,1
EndSplineSet
Validated: 33
EndChar

StartChar: uni090B
Encoding: 109 2315 110
Width: 943
GlyphClass: 2
Flags: W
AnchorPoint: "Anchor-0" 543 627 basechar 0
LayerCount: 2
Fore
SplineSet
943 553 m 1,0,-1
 546 553 l 1,1,-1
 546 317 l 1,2,3
 553 320 553 320 676 372 c 1,4,5
 673.421 387.638 673.421 387.638 673 400 c 0,6,7
 670.409 476.001 670.409 476.001 744 476 c 0,8,9
 771.87 476 771.87 476 786 451 c 0,10,11
 799 428 799 428 799 400 c 0,12,13
 799 354 799 354 768 323 c 1,14,-1
 824 220 l 1,15,16
 781 220 781 220 742 198 c 0,17,18
 697 173 697 173 697 133 c 0,19,20
 697 100.85 697 100.85 718 83 c 0,21,22
 738 66 738 66 773 65 c 0,23,24
 811 65 811 65 823 71 c 0,25,26
 844 82 844 82 848 112 c 1,27,-1
 907 48 l 1,28,29
 848 -11 848 -11 766 -11 c 0,30,31
 700 -11 700 -11 661 28 c 0,32,33
 625.253 64.6882 625.253 64.6882 622 133 c 0,34,35
 619.847 178.216 619.847 178.216 648 212 c 0,36,37
 678 248 678 248 719 257 c 1,38,-1
 696 300 l 1,39,-1
 546 236 l 1,40,-1
 546 0 l 1,41,-1
 470 0 l 1,42,-1
 470 209 l 1,43,-1
 187 46 l 1,44,-1
 142 106 l 1,45,-1
 410 262 l 1,46,47
 308.759 377.415 308.759 377.415 276 379 c 0,48,49
 242.306 380.63 242.306 380.63 166 340 c 2,50,-1
 89 299 l 1,51,-1
 43 356 l 1,52,53
 48.9963 370.391 48.9963 370.391 155 412 c 0,54,55
 262 454 262 454 284 455 c 0,56,57
 318 456 318 456 401 378 c 0,58,59
 422 358 422 358 470 308 c 1,60,-1
 470 553 l 1,61,-1
 0 553 l 1,62,-1
 0 628 l 1,63,-1
 943 628 l 1,64,-1
 943 553 l 1,0,-1
EndSplineSet
Validated: 33
EndChar

StartChar: uni090C
Encoding: 110 2316 111
Width: 655
GlyphClass: 2
Flags: W
AnchorPoint: "Anchor-0" 502 632 basechar 0
LayerCount: 2
Fore
SplineSet
655 553 m 1,0,-1
 503 553 l 1,1,-1
 503 449 l 1,2,3
 617 422 617 422 619 295 c 0,4,5
 619.996 232 619.996 232 563 162 c 1,6,7
 522 115 522 115 478 90 c 1,8,9
 434 90 434 90 427 44 c 1,10,-1
 426 20 l 1,11,12
 426 -12 426 -12 461 -32 c 1,13,14
 492 -48 492 -48 526 -48 c 0,15,16
 563 -48 563 -48 588 -36 c 1,17,-1
 619 -17 l 1,18,-1
 660 -80 l 1,19,20
 618 -122 618 -122 536 -122 c 1,21,22
 467 -125 467 -125 414 -89 c 0,23,24
 352 -48 352 -48 352 17 c 0,25,26
 352 76 352 76 389 114 c 1,27,-1
 419 134 l 1,28,29
 463 158 463 158 503 209 c 0,30,31
 544 260 544 260 545 304 c 1,32,33
 545 374 545 374 440 377 c 1,34,35
 412 379 412 379 385 354 c 0,36,37
 358 330 358 330 358 296 c 2,38,-1
 358 224 l 1,39,-1
 283 224 l 1,40,-1
 283 311 l 2,41,42
 283 340 283 340 259 358 c 0,43,44
 234 377 234 377 208 377 c 0,45,46
 166 378 166 378 142 349 c 0,47,48
 118 319 118 319 118 276 c 0,49,50
 118 197 118 197 191 122 c 0,51,52
 241 71 241 71 275 59 c 1,53,-1
 229 -6 l 1,54,55
 168 19 168 19 100 116 c 1,56,57
 46 196 46 196 43 283 c 0,58,59
 41 352 41 352 88 401 c 1,60,61
 133 452 133 452 199 452 c 0,62,63
 281 452 281 452 326 395 c 1,64,65
 350 446 350 446 427 452 c 1,66,-1
 427 553 l 1,67,-1
 0 553 l 1,68,-1
 0 628 l 1,69,-1
 655 628 l 1,70,-1
 655 553 l 1,0,-1
EndSplineSet
Validated: 33
EndChar

StartChar: uni090D
Encoding: 111 2317 112
Width: 441
GlyphClass: 2
Flags: W
AnchorPoint: "Anchor-0" 321 633 basechar 0
LayerCount: 2
Fore
SplineSet
404 851 m 1,0,1
 404 773 404 773 348 725 c 128,-1,2
 292 677 292 677 212 676 c 1,3,4
 136 674 136 674 79 725 c 0,5,6
 24 775 24 775 22 851 c 1,7,-1
 95 851 l 1,8,9
 95 806 95 806 131 778 c 0,10,11
 167 749 167 749 212 749 c 0,12,13
 264 749 264 749 296 775 c 0,14,15
 329 802 329 802 330 851 c 1,16,-1
 404 851 l 1,0,1
441 553 m 1,17,-1
 406 553 l 1,18,-1
 406 338 l 2,19,20
 406 266 406 266 318 236 c 1,21,-1
 257 288 l 1,22,23
 283 292 283 292 306 311 c 0,24,25
 328 328 328 328 330 353 c 1,26,-1
 330 553 l 1,27,-1
 118 553 l 1,28,-1
 118 269 l 1,29,-1
 388 26 l 1,30,31
 403 5 403 5 407 -5 c 0,32,33
 418 -30 418 -30 418 -48 c 0,34,35
 418 -94.3333 418 -94.3333 370 -121 c 0,36,37
 361 -126 361 -126 322 -136 c 1,38,-1
 266.072 -75.1664 l 2,39,40
 269.596 -79 269.596 -79 278 -79 c 0,41,42
 294 -79 294 -79 314 -67 c 0,43,44
 334 -54 334 -54 335 -40 c 0,45,46
 335 -34 335 -34 323 -18 c 1,47,-1
 43 235 l 1,48,-1
 43 553 l 1,49,-1
 0 553 l 1,50,-1
 0 628 l 1,51,-1
 441 628 l 1,52,-1
 441 553 l 1,17,-1
EndSplineSet
Validated: 33
EndChar

StartChar: uni090E
Encoding: 112 2318 113
Width: 441
GlyphClass: 2
Flags: MW
AnchorPoint: "Anchor-0" 417 633 basechar 0
LayerCount: 2
Fore
SplineSet
441 553 m 5,0,-1
 406 553 l 1,1,-1
 406 338 l 2,2,3
 406 266 406 266 318 236 c 1,4,-1
 257 288 l 1,5,6
 283 292 283 292 306 311 c 0,7,8
 328 328 328 328 330 353 c 1,9,-1
 330 553 l 1,10,-1
 118 553 l 1,11,-1
 118 269 l 1,12,-1
 388 26 l 1,13,14
 403 5 403 5 407 -5 c 0,15,16
 418 -30 418 -30 418 -48 c 0,17,18
 418 -94.3333 418 -94.3333 370 -121 c 0,19,20
 361 -126 361 -126 322 -136 c 1,21,-1
 266.072 -75.1664 l 2,22,23
 269.596 -79 269.596 -79 278 -79 c 0,24,25
 294 -79 294 -79 314 -67 c 0,26,27
 334 -54 334 -54 335 -40 c 0,28,29
 335 -34 335 -34 323 -18 c 1,30,-1
 43 235 l 1,31,-1
 43 553 l 1,32,-1
 0 553 l 1,33,-1
 0 628 l 1,34,-1
 338 628 l 1,35,-1
 338 678 l 2,36,37
 338 731.177 338 731.177 288 740 c 0,38,39
 271 743 271 743 254 738 c 0,40,41
 153.414 711.248 153.414 711.248 142 710 c 0,42,43
 97.3667 705.119 97.3667 705.119 65 726 c 0,44,45
 23.4357 751.73 23.4357 751.73 24 798 c 2,46,-1
 25 880 l 1,47,-1
 91 877 l 1,48,-1
 91 822 l 2,49,50
 91 777 91 777 132 775 c 0,51,52
 148 774 148 774 216 794 c 0,53,54
 277 812 277 812 316 800 c 0,55,56
 374.631 781.738 374.631 781.738 396 739 c 0,57,58
 402 727.312 402 727.312 402 714 c 2,59,-1
 402 628 l 1,60,-1
 441 628 l 5,61,-1
 441 553 l 5,0,-1
EndSplineSet
Validated: 33
EndChar

StartChar: uni090F
Encoding: 113 2319 114
Width: 441
GlyphClass: 2
Flags: W
AnchorPoint: "Anchor-0" 400 628 basechar 0
LayerCount: 2
Fore
SplineSet
441 553 m 1,0,-1
 406 553 l 1,1,-1
 406 338 l 2,2,3
 406 266 406 266 318 236 c 1,4,-1
 257 288 l 1,5,6
 283 292 283 292 306 311 c 0,7,8
 328 328 328 328 330 353 c 1,9,-1
 330 553 l 1,10,-1
 118 553 l 1,11,-1
 118 269 l 1,12,-1
 388 26 l 1,13,14
 403 5 403 5 407 -5 c 0,15,16
 418 -30 418 -30 418 -48 c 0,17,18
 418 -94.3333 418 -94.3333 370 -121 c 0,19,20
 361 -126 361 -126 322 -136 c 1,21,-1
 266.072 -75.1664 l 2,22,23
 269.596 -79 269.596 -79 278 -79 c 0,24,25
 294 -79 294 -79 314 -67 c 0,26,27
 334 -54 334 -54 335 -40 c 0,28,29
 335 -34 335 -34 323 -18 c 1,30,-1
 43 235 l 1,31,-1
 43 553 l 1,32,-1
 0 553 l 1,33,-1
 0 628 l 1,34,-1
 441 628 l 1,35,-1
 441 553 l 1,0,-1
EndSplineSet
Validated: 1
EndChar

StartChar: uni0910
Encoding: 114 2320 115
Width: 441
GlyphClass: 2
Flags: W
AnchorPoint: "Anchor-0" 420 627 basechar 0
LayerCount: 2
Fore
SplineSet
441 553 m 5,0,-1
 406 553 l 1,1,-1
 406 338 l 2,2,3
 406 266 406 266 318 236 c 1,4,-1
 257 288 l 1,5,6
 283 292 283 292 306 311 c 0,7,8
 328 328 328 328 330 353 c 1,9,-1
 330 553 l 1,10,-1
 118 553 l 1,11,-1
 118 269 l 1,12,-1
 388 26 l 1,13,14
 403 5 403 5 407 -5 c 0,15,16
 418 -30 418 -30 418 -48 c 0,17,18
 418 -94.3333 418 -94.3333 370 -121 c 0,19,20
 361 -126 361 -126 322 -136 c 1,21,-1
 266.072 -75.1664 l 2,22,23
 269.596 -79 269.596 -79 278 -79 c 0,24,25
 294 -79 294 -79 314 -67 c 0,26,27
 334 -54 334 -54 335 -40 c 0,28,29
 335 -34 335 -34 323 -18 c 1,30,-1
 43 235 l 1,31,-1
 43 553 l 1,32,-1
 0 553 l 1,33,-1
 0 628 l 1,34,-1
 331 628 l 1,35,-1
 89 871 l 1,36,-1
 151 931 l 1,37,-1
 408 628 l 1,38,-1
 441 628 l 5,39,-1
 441 553 l 5,0,-1
EndSplineSet
Validated: 1
EndChar

StartChar: uni0911
Encoding: 115 2321 116
Width: 877
GlyphClass: 2
Flags: W
LayerCount: 2
Fore
SplineSet
877 553 m 1,0,-1
 799 553 l 1,1,-1
 799 0 l 1,2,-1
 724 0 l 1,3,-1
 724 553 l 1,4,-1
 645 553 l 1,5,-1
 645 0 l 1,6,-1
 570 0 l 1,7,-1
 570 268 l 1,8,9
 565 268 565 268 543.5 262.5 c 128,-1,10
 522 257 522 257 497.5 257 c 128,-1,11
 473 257 473 257 454 269 c 1,12,13
 461 247 461 247 461 216 c 0,14,15
 461 60 461 60 301 59 c 0,16,17
 208 58 208 58 110 169 c 1,18,19
 34 259 34 259 31 299 c 1,20,-1
 91 335 l 1,21,22
 132 264 132 264 155 235 c 0,23,24
 233 137 233 137 301 134 c 1,25,26
 386 132 386 132 386 216 c 0,27,28
 386 269 386 269 354 298.5 c 128,-1,29
 322 328 322 328 275.5 328 c 128,-1,30
 229 328 229 328 211 318 c 1,31,-1
 186 380 l 1,32,33
 202 380 202 380 210 379 c 1,34,35
 264 379 264 379 298 406 c 128,-1,36
 332 433 332 433 334 482 c 1,37,38
 334 552 334 552 260 553 c 0,39,40
 205.8 553 205.8 553 161 511 c 0,41,42
 145 496 145 496 133 478 c 1,43,-1
 73 523 l 1,44,45
 73 538 73 538 127 577 c 1,46,47
 194 628 194 628 263 628 c 1,48,49
 322 630 322 630 365 587 c 128,-1,50
 408 544 408 544 408 479.5 c 128,-1,51
 408 415 408 415 349 372 c 1,52,53
 370 368 370 368 385 359 c 1,54,-1
 442 335 l 2,55,56
 458.625 328 458.625 328 481 328 c 0,57,58
 504 328 504 328 544 338 c 1,59,60
 550 338 550 338 570 346 c 1,61,-1
 570 553 l 1,62,-1
 464 553 l 1,63,-1
 464 628 l 1,64,-1
 877 628 l 1,65,-1
 877 553 l 1,0,-1
857 840 m 1,66,67
 857 762 857 762 800.5 714 c 128,-1,68
 744 666 744 666 666 665.006 c 128,-1,69
 588 664.013 588 664.013 532 714.006 c 128,-1,70
 476 764 476 764 474 840 c 1,71,-1
 547 840 l 1,72,73
 547 796 547 796 583 767 c 128,-1,74
 619 738 619 738 667.5 738 c 128,-1,75
 716 738 716 738 749 764 c 1,76,77
 781 791 781 791 782 840 c 1,78,-1
 857 840 l 1,66,67
EndSplineSet
Validated: 33
EndChar

StartChar: uni0912
Encoding: 116 2322 117
Width: 848
GlyphClass: 2
Flags: W
LayerCount: 2
Fore
SplineSet
848 553 m 1,0,-1
 770 553 l 1,1,-1
 770 0 l 1,2,-1
 695 0 l 1,3,-1
 695 553 l 1,4,-1
 616 553 l 1,5,-1
 616 0 l 1,6,-1
 541 0 l 1,7,-1
 541 268 l 1,8,9
 536 268 536 268 514.5 262.5 c 128,-1,10
 493 257 493 257 468.5 257 c 128,-1,11
 444 257 444 257 425 269 c 1,12,13
 432 247 432 247 432 216 c 0,14,15
 432 60 432 60 272 59 c 0,16,17
 179 58 179 58 82 169 c 1,18,19
 5 259 5 259 2 299 c 1,20,-1
 62 335 l 1,21,22
 103 264 103 264 126 235 c 0,23,24
 204 137 204 137 272 134 c 1,25,26
 358 132 358 132 358 216 c 0,27,28
 358 269 358 269 325.5 298.5 c 128,-1,29
 293 328 293 328 246.5 328 c 128,-1,30
 200 328 200 328 182 318 c 1,31,-1
 157 380 l 1,32,33
 173 380 173 380 181 379 c 1,34,35
 235 379 235 379 269.5 406 c 128,-1,36
 304 433 304 433 305 482 c 1,37,38
 305 552 305 552 232 553 c 0,39,40
 176.8 553 176.8 553 132 511 c 0,41,42
 116 496 116 496 104 478 c 1,43,-1
 44 523 l 1,44,45
 44 538 44 538 98 577 c 1,46,47
 166 628 166 628 234 628 c 1,48,49
 293 630 293 630 336 587 c 128,-1,50
 379 544 379 544 379 479.5 c 128,-1,51
 379 415 379 415 320 372 c 1,52,53
 341 368 341 368 356 359 c 1,54,-1
 413 335 l 2,55,56
 429.625 328 429.625 328 452.5 328 c 0,57,58
 475 328 475 328 515 338 c 1,59,60
 521 338 521 338 541 346 c 1,61,-1
 541 553 l 1,62,-1
 436 553 l 1,63,-1
 436 628 l 1,64,-1
 698 628 l 1,65,-1
 698 678 l 2,66,67
 698 731.177 698 731.177 648 740 c 0,68,69
 631 743 631 743 614 738 c 0,70,71
 513.414 711.248 513.414 711.248 502 710 c 0,72,73
 458 705 458 705 421 728.5 c 128,-1,74
 384 752 384 752 384 798 c 2,75,-1
 384 877 l 1,76,-1
 451 877 l 1,77,-1
 451 822 l 2,78,79
 451 777.412 451 777.412 492 775 c 0,80,81
 508 774 508 774 572.5 793 c 128,-1,82
 637 812 637 812 676 800 c 0,83,84
 734.631 781.738 734.631 781.738 756 739 c 0,85,86
 761.845 727.312 761.845 727.312 762 714 c 2,87,-1
 763 628 l 1,88,-1
 848 628 l 1,89,-1
 848 553 l 1,0,-1
EndSplineSet
Validated: 33
EndChar

StartChar: uni0913
Encoding: 117 2323 118
Width: 858
GlyphClass: 2
Flags: W
LayerCount: 2
Fore
SplineSet
858 553 m 1,0,-1
 779 553 l 5,1,-1
 779 0 l 5,2,-1
 704 0 l 1,3,-1
 704 553 l 1,4,-1
 626 553 l 1,5,-1
 626 0 l 1,6,-1
 551 0 l 1,7,-1
 551 268 l 1,8,9
 546 268 546 268 524.5 262.5 c 128,-1,10
 503 257 503 257 478.5 257 c 128,-1,11
 454 257 454 257 434 269 c 1,12,13
 442 247 442 247 442 216 c 0,14,15
 442 60 442 60 282 59 c 0,16,17
 188 58 188 58 91 169 c 1,18,19
 14 259 14 259 12 299 c 1,20,-1
 72 335 l 1,21,22
 113 264 113 264 136 235 c 0,23,24
 214 137 214 137 282 134 c 1,25,26
 367 132 367 132 367 216 c 0,27,28
 367 269 367 269 335 299 c 1,29,30
 302 328 302 328 256 328 c 128,-1,31
 210 328 210 328 192 318 c 1,32,-1
 167 380 l 1,33,34
 182 380 182 380 191 379 c 1,35,36
 245 379 245 379 279 406 c 128,-1,37
 313 433 313 433 314 482 c 1,38,39
 314 552 314 552 241 553 c 0,40,41
 186.8 553 186.8 553 142 511 c 0,42,43
 126 496 126 496 114 478 c 1,44,-1
 54 523 l 1,45,46
 54 538 54 538 108 577 c 1,47,48
 175 628 175 628 244 628 c 1,49,50
 302 630 302 630 345.5 587 c 128,-1,51
 389 544 389 544 389 479.5 c 128,-1,52
 389 415 389 415 330 372 c 1,53,54
 350 368 350 368 366 359 c 1,55,-1
 422 335 l 2,56,57
 438.333 328 438.333 328 462 328 c 0,58,59
 485 328 485 328 524 338 c 1,60,61
 530 338 530 338 551 346 c 1,62,-1
 551 553 l 1,63,-1
 445 553 l 1,64,-1
 445 628 l 1,65,-1
 701 628 l 1,66,-1
 458 872 l 1,67,-1
 521 932 l 1,68,-1
 778 628 l 1,69,-1
 858 628 l 1,70,-1
 858 553 l 1,0,-1
EndSplineSet
Validated: 33
EndChar

StartChar: uni0914
Encoding: 118 2324 119
Width: 877
GlyphClass: 2
Flags: W
LayerCount: 2
Fore
SplineSet
877 553 m 1,0,-1
 799 553 l 5,1,-1
 799 0 l 5,2,-1
 724 0 l 1,3,-1
 724 553 l 1,4,-1
 645 553 l 1,5,-1
 645 0 l 1,6,-1
 570 0 l 1,7,-1
 570 268 l 1,8,9
 565 268 565 268 543.5 262.5 c 128,-1,10
 522 257 522 257 497.5 257 c 128,-1,11
 473 257 473 257 454 269 c 1,12,13
 461 247 461 247 461 216 c 0,14,15
 461 60 461 60 301 59 c 0,16,17
 208 58 208 58 110 169 c 1,18,19
 34 259 34 259 31 299 c 1,20,-1
 91 335 l 1,21,22
 132 264 132 264 155 235 c 0,23,24
 233 137 233 137 301 134 c 1,25,26
 386 132 386 132 386 216 c 0,27,28
 386 269 386 269 354 298.5 c 128,-1,29
 322 328 322 328 275.5 328 c 128,-1,30
 229 328 229 328 211 318 c 1,31,-1
 186 380 l 1,32,33
 202 380 202 380 210 379 c 1,34,35
 264 379 264 379 298 406 c 128,-1,36
 332 433 332 433 334 482 c 1,37,38
 334 552 334 552 260 553 c 0,39,40
 205.8 553 205.8 553 161 511 c 0,41,42
 145 496 145 496 133 478 c 1,43,-1
 73 523 l 1,44,45
 73 538 73 538 127 577 c 1,46,47
 194 628 194 628 263 628 c 1,48,49
 322 630 322 630 365 587 c 128,-1,50
 408 544 408 544 408 479.5 c 128,-1,51
 408 415 408 415 349 372 c 1,52,53
 370 368 370 368 385 359 c 1,54,-1
 442 335 l 2,55,56
 458.625 328 458.625 328 481 328 c 0,57,58
 504 328 504 328 544 338 c 1,59,60
 550 338 550 338 570 346 c 1,61,-1
 570 553 l 1,62,-1
 464 553 l 1,63,-1
 464 628 l 1,64,-1
 726 628 l 1,65,-1
 418 786 l 1,66,-1
 468 842 l 1,67,-1
 686 706 l 1,68,-1
 584 921 l 1,69,-1
 648 957 l 1,70,-1
 790 628 l 1,71,-1
 877 628 l 1,72,-1
 877 553 l 1,0,-1
EndSplineSet
Validated: 33
EndChar

StartChar: uni0915
Encoding: 119 2325 120
Width: 767
GlyphClass: 2
Flags: W
AnchorPoint: "Anchor-1" 390 -6 basechar 0
AnchorPoint: "Anchor-0" 432 626 basechar 0
LayerCount: 2
Fore
SplineSet
767 553 m 1,0,-1
 430 553 l 1,1,-1
 430 371 l 1,2,3
 486 450 486 450 551 452 c 0,4,5
 620 454 620 454 667 407 c 0,6,7
 711.4 362.6 711.4 362.6 715 293 c 0,8,9
 718 235 718 235 654 145 c 0,10,11
 636 120 636 120 592 70 c 1,12,-1
 520 119 l 1,13,14
 547 133 547 133 587 182 c 0,15,16
 639.188 245.445 639.188 245.445 641 298 c 0,17,18
 642.102 329.945 642.102 329.945 617 354 c 0,19,20
 594.435 375.625 594.435 375.625 558 377 c 0,21,22
 505 379 505 379 430 256 c 1,23,-1
 430 0 l 1,24,-1
 355 0 l 1,25,-1
 355 162 l 1,26,27
 305 110 305 110 226 108 c 0,28,29
 154 107 154 107 98 156 c 0,30,31
 44 204 44 204 43 277 c 0,32,33
 42 348 42 348 89 401 c 128,-1,34
 136 454 136 454 206 455 c 0,35,36
 208 455 208 455 292 443 c 1,37,-1
 312 361 l 1,38,39
 282 370 282 370 281 370 c 0,40,41
 248.831 377.424 248.831 377.424 211 379 c 0,42,43
 168.925 380.753 168.925 380.753 145 353 c 0,44,45
 118.894 323.761 118.894 323.761 118 284 c 0,46,47
 116.943 236.944 116.943 236.944 146 211 c 0,48,49
 176 184 176 184 221 184 c 0,50,51
 259.545 184 259.545 184 295 204 c 0,52,53
 334 226 334 226 355 258 c 1,54,-1
 355 553 l 1,55,-1
 0 553 l 1,56,-1
 0 628 l 1,57,-1
 767 628 l 1,58,-1
 767 553 l 1,0,-1
EndSplineSet
Validated: 33
EndChar

StartChar: uni0916
Encoding: 120 2326 121
Width: 798
GlyphClass: 2
Flags: W
LayerCount: 2
Fore
SplineSet
798 553 m 1,0,-1
 725 553 l 1,1,-1
 725 0 l 1,2,-1
 650 0 l 1,3,-1
 650 116 l 1,4,5
 612 83 612 83 533 56 c 0,6,7
 457 30 457 30 402 30 c 0,8,9
 310 30 310 30 242 72 c 0,10,11
 157 126 157 126 96 257 c 0,12,13
 89 272 89 272 66 334 c 0,14,15
 43 394 43 394 43 407 c 1,16,-1
 104 443 l 1,17,-1
 119 396 l 2,18,19
 129.813 362.121 129.813 362.121 178 361 c 0,20,21
 224 360 224 360 224 408 c 2,22,-1
 224 553 l 1,23,-1
 0 553 l 1,24,-1
 0 628 l 1,25,-1
 798 628 l 1,26,-1
 798 553 l 1,0,-1
650 205 m 1,27,-1
 650 257 l 1,28,29
 596 210 596 210 527 210 c 0,30,31
 467 210 467 210 427 246 c 0,32,33
 386 283 386 283 386 341 c 0,34,35
 385 398 385 398 430 439 c 0,36,37
 475 479 475 479 532 479 c 0,38,39
 562 479 562 479 593 464 c 1,40,-1
 614 392 l 1,41,42
 600 397 600 397 539 404 c 0,43,44
 463 404 463 404 461 350 c 0,45,46
 458 286 458 286 535 286 c 0,47,48
 607 284 607 284 650 342 c 1,49,-1
 650 553 l 1,50,-1
 300 553 l 1,51,-1
 300 394 l 2,52,53
 300 348 300 348 264 318 c 0,54,55
 227 287 227 287 184 287 c 2,56,-1
 166 289 l 1,57,58
 182 230 182 230 232 180 c 0,59,60
 300 107 300 107 407 104 c 0,61,62
 463 102 463 102 557 151 c 0,63,64
 618 182 618 182 650 205 c 1,27,-1
EndSplineSet
Validated: 33
EndChar

StartChar: uni0917
Encoding: 121 2327 122
Width: 535
GlyphClass: 2
Flags: W
LayerCount: 2
Fore
SplineSet
535 553 m 1,0,-1
 463 553 l 1,1,-1
 463 0 l 1,2,-1
 388 0 l 1,3,-1
 388 553 l 1,4,-1
 219 553 l 1,5,-1
 219 271 l 2,6,7
 219 256.4 219 256.4 216 242 c 0,8,9
 211 218 211 218 187 217 c 0,10,11
 151.514 217 151.514 217 98 272 c 0,12,13
 46.248 325.19 46.248 325.19 43 362 c 0,14,15
 40.7692 391 40.7692 391 84 391 c 2,16,-1
 144 391 l 1,17,-1
 144 553 l 1,18,-1
 0 553 l 1,19,-1
 0 628 l 1,20,-1
 535 628 l 1,21,-1
 535 553 l 1,0,-1
EndSplineSet
Validated: 33
EndChar

StartChar: uni0918
Encoding: 122 2328 123
Width: 602
GlyphClass: 2
Flags: W
AnchorPoint: "Anchor-0" 520 628 basechar 0
LayerCount: 2
Fore
SplineSet
602 553 m 1,0,-1
 530 553 l 5,1,-1
 530 0 l 5,2,-1
 455 0 l 1,3,-1
 455 184 l 1,4,5
 423.584 164.274 423.584 164.274 391 149 c 0,6,7
 312.067 112 312.067 112 252 112 c 0,8,9
 190.538 112 190.538 112 137 148 c 0,10,11
 80.0989 186.261 80.0989 186.261 79 250 c 0,12,13
 78 308 78 308 136 358 c 1,14,15
 97 365 97 365 70 408 c 0,16,17
 46 446 46 446 46 488 c 0,18,19
 46 526 46 526 71 553 c 1,20,-1
 0 553 l 1,21,-1
 0 628 l 1,22,-1
 602 628 l 1,23,-1
 602 553 l 1,0,-1
455 270 m 1,24,-1
 455 553 l 1,25,-1
 166 553 l 1,26,27
 152 540 152 540 144 529 c 0,28,29
 121 499 121 499 120 472 c 0,30,31
 120 448 120 448 161 422 c 0,32,33
 198 400 198 400 226 400 c 2,34,-1
 305 400 l 1,35,-1
 348 323 l 1,36,-1
 246 323 l 2,37,38
 212 323 212 323 186 304 c 0,39,40
 154 282 154 282 154 252 c 0,41,42
 154 190 154 190 257 187 c 0,43,44
 292 186 292 186 373 224 c 0,45,46
 418 246 418 246 455 270 c 1,24,-1
EndSplineSet
Validated: 33
EndChar

StartChar: uni0919
Encoding: 123 2329 124
Width: 666
GlyphClass: 2
Flags: W
AnchorPoint: "Anchor-1" 398 -6 basechar 0
AnchorPoint: "Anchor-0" 534 622 basechar 0
LayerCount: 2
Fore
SplineSet
666 310 m 1,0,-1
 581 310 l 1,1,-1
 581 391 l 1,2,-1
 666 391 l 1,3,-1
 666 310 l 1,0,-1
666 553 m 1,4,-1
 535 553 l 1,5,-1
 535 379 l 1,6,-1
 277 379 l 1,7,-1
 305 318 l 2,8,9
 354 258 354 258 382 265 c 2,10,-1
 463 286 l 1,11,-1
 517 292 l 2,12,13
 542 292 542 292 566 250 c 0,14,15
 586 212 586 212 586 184 c 0,16,17
 587 95 587 95 535 44 c 0,18,19
 482 -5 482 -5 395 -6 c 0,20,21
 246 -7 246 -7 92 198 c 0,22,23
 44 262 44 262 43 272 c 1,24,-1
 95 320 l 1,25,26
 80 287 80 287 236 148 c 0,27,28
 322 70 322 70 395 67 c 0,29,30
 510 67 510 67 511 181 c 0,31,32
 514 212 514 212 479 216 c 0,33,34
 464 216 464 216 410 199 c 0,35,36
 397 194 397 194 373 191 c 0,37,38
 314 191 314 191 251 266 c 0,39,40
 194 336 194 336 194 386 c 0,41,42
 192 413 192 413 214 434 c 128,-1,43
 236 455 236 455 263 455 c 2,44,-1
 461 455 l 1,45,-1
 461 553 l 1,46,-1
 0 553 l 1,47,-1
 0 628 l 1,48,-1
 666 628 l 1,49,-1
 666 553 l 1,4,-1
EndSplineSet
Validated: 33
EndChar

StartChar: uni091A
Encoding: 124 2330 125
Width: 634
GlyphClass: 2
Flags: W
LayerCount: 2
Fore
SplineSet
634 553 m 1,0,-1
 562 553 l 1,1,-1
 562 0 l 1,2,-1
 487 0 l 1,3,-1
 487 218 l 1,4,5
 467.991 189.939 467.991 189.939 401 149 c 0,6,7
 345.165 114.879 345.165 114.879 292 114 c 0,8,9
 227.194 112.929 227.194 112.929 187 149 c 0,10,11
 146 185 146 185 146 247 c 0,12,13
 146 292.766 146 292.766 170 328 c 0,14,15
 186.65 352.444 186.65 352.444 217 379 c 1,16,-1
 43 379 l 1,17,-1
 43 455 l 1,18,-1
 413 455 l 1,19,-1
 413 379 l 1,20,-1
 322 379 l 1,21,22
 293 355 293 355 260 314 c 0,23,24
 221 263.405 221 263.405 221 238 c 0,25,26
 221 214.304 221 214.304 241 203 c 0,27,28
 261.951 191.158 261.951 191.158 294 190 c 0,29,30
 344.874 188.161 344.874 188.161 407 245 c 0,31,32
 454 288 454 288 487 348 c 1,33,-1
 487 553 l 1,34,-1
 0 553 l 1,35,-1
 0 628 l 1,36,-1
 634 628 l 1,37,-1
 634 553 l 1,0,-1
EndSplineSet
Validated: 33
EndChar

StartChar: uni091B
Encoding: 125 2331 126
Width: 657
GlyphClass: 2
Flags: W
AnchorPoint: "Anchor-1" 387 -14 basechar 0
AnchorPoint: "Anchor-0" 524 628 basechar 0
LayerCount: 2
Fore
SplineSet
657 553 m 5,0,-1
 528 553 l 1,1,-1
 528 438 l 1,2,3
 569 419 569 419 578 412 c 0,4,5
 620.592 377.719 620.592 377.719 622 308 c 0,6,7
 624.538 182.366 624.538 182.366 515 85 c 0,8,9
 412 -5 412 -5 280 -7 c 0,10,11
 196.073 -8.03614 196.073 -8.03614 146 44 c 0,12,13
 95 97 95 97 95 180 c 0,14,15
 95 259 95 259 146 304 c 1,16,17
 102.307 311.282 102.307 311.282 73 361 c 0,18,19
 49.243 401.302 49.243 401.302 46 464 c 0,20,21
 43 522 43 522 82 553 c 1,22,-1
 0 553 l 1,23,-1
 0 628 l 1,24,-1
 657 628 l 5,25,-1
 657 553 l 5,0,-1
547 308 m 0,26,27
 547 338 547 338 535 350 c 0,28,29
 526 361 526 361 494 364 c 0,30,31
 466 366 466 366 452 349 c 0,32,33
 443 336 443 336 443 305 c 0,34,35
 442 236 442 236 500 178 c 1,36,37
 506 182 506 182 517 196 c 0,38,39
 547 235 547 235 547 308 c 0,26,27
454 434 m 1,40,-1
 454 553 l 1,41,-1
 176 553 l 2,42,43
 155 553 155 553 137 509 c 0,44,45
 120 470 120 470 119 445 c 0,46,47
 119 409 119 409 152 383 c 0,48,49
 186 356 186 356 222 354 c 0,50,51
 238 353 238 353 283 359 c 1,52,-1
 316 298 l 1,53,54
 264 298 264 298 220 268 c 0,55,56
 169 233 169 233 169 185 c 0,57,58
 169 68 169 68 296 67 c 0,59,60
 388 67 388 67 444 120 c 1,61,62
 406 178 406 178 400 192 c 0,63,64
 368 253 368 253 367 308 c 0,65,66
 365 358 365 358 391 392 c 0,67,68
 407 414 407 414 454 434 c 1,40,-1
EndSplineSet
Validated: 33
EndChar

StartChar: uni091C
Encoding: 126 2332 127
Width: 720
GlyphClass: 2
Flags: W
AnchorPoint: "Anchor-0" 640 628 basechar 0
LayerCount: 2
Fore
SplineSet
720 553 m 1,0,-1
 646 553 l 1,1,-1
 646 0 l 1,2,-1
 571 0 l 1,3,-1
 571 359 l 1,4,-1
 422 359 l 1,5,6
 458 317 458 317 458 259 c 0,7,8
 458 187 458 187 421 149 c 0,9,10
 382.61 107.497 382.61 107.497 313 107 c 0,11,12
 171.557 105.99 171.557 105.99 72 336 c 0,13,14
 43 403 43 403 43 421 c 1,15,-1
 103 464 l 1,16,17
 118.635 368.108 118.635 368.108 194 266 c 0,18,19
 256 182 256 182 319 182 c 0,20,21
 381.737 182.001 381.737 182.001 383 254 c 0,22,23
 383.849 302.411 383.849 302.411 340 364 c 0,24,25
 328.1 380.715 328.1 380.715 295 421 c 1,26,-1
 295 433 l 1,27,-1
 571 433 l 1,28,-1
 571 553 l 1,29,-1
 0 553 l 1,30,-1
 0 628 l 1,31,-1
 720 628 l 1,32,-1
 720 553 l 1,0,-1
EndSplineSet
Validated: 33
EndChar

StartChar: uni091D
Encoding: 127 2333 128
Width: 708
GlyphClass: 2
Flags: W
AnchorPoint: "Anchor-0" 631 624 basechar 0
LayerCount: 2
Fore
SplineSet
708 553 m 1,0,-1
 635 553 l 1,1,-1
 635 0 l 1,2,-1
 560 0 l 1,3,-1
 560 193 l 1,4,-1
 503 187 l 1,5,-1
 502 187 l 2,6,7
 458 187 458 187 438 193 c 5,8,9
 438 66 438 66 296 19 c 1,10,11
 315.776 -10.0816 315.776 -10.0816 361 -44 c 2,12,-1
 365 -47 l 2,13,14
 421.369 -89.2769 421.369 -89.2769 438 -90 c 1,15,-1
 392 -155 l 1,16,17
 360.106 -132.469 360.106 -132.469 344 -122 c 0,18,19
 337.744 -117.934 337.744 -117.934 286 -74 c 0,20,21
 267.219 -58.0541 267.219 -58.0541 238 -28 c 2,22,-1
 203 8 l 1,23,24
 43 8 43 8 43 101 c 0,25,26
 43 127 43 127 62 145 c 0,27,28
 80.4472 162.525 80.4472 162.525 107 164 c 0,29,30
 148.444 166.302 148.444 166.302 188 126 c 2,31,-1
 241 72 l 1,32,33
 272.388 72 272.388 72 311 94 c 0,34,35
 364 124.198 364 124.198 364 173 c 0,36,37
 364 196 364 196 359 211 c 0,38,39
 353.653 225.257 353.653 225.257 331 227 c 0,40,41
 312.163 228.449 312.163 228.449 274 217 c 0,42,43
 234 205 234 205 214 205 c 0,44,45
 164.243 205 164.243 205 109 278 c 0,46,47
 53 352 53 352 50 398 c 0,48,49
 48 422 48 422 67 439 c 0,50,51
 86 455 86 455 110 455 c 2,52,-1
 308 455 l 1,53,-1
 308 553 l 1,54,-1
 0 553 l 1,55,-1
 0 628 l 1,56,-1
 708 628 l 1,57,-1
 708 553 l 1,0,-1
560 274 m 1,58,-1
 560 553 l 1,59,-1
 383 553 l 1,60,-1
 383 379 l 1,61,-1
 143 379 l 2,62,63
 136 379 136 379 136 373 c 0,64,65
 136 356 136 356 174 316 c 0,66,67
 212 275 212 275 232 277 c 0,68,69
 258 283 258 283 293 293 c 0,70,71
 332 304 332 304 355 304 c 0,72,73
 395 304 395 304 420 263 c 1,74,75
 432 260 432 260 451 256 c 0,76,77
 456 256 456 256 480 253 c 0,78,79
 526 253 526 253 560 274 c 1,58,-1
EndSplineSet
Validated: 33
EndChar

StartChar: uni091E
Encoding: 128 2334 129
Width: 694
GlyphClass: 2
Flags: W
AnchorPoint: "Anchor-0" 615 624 basechar 0
LayerCount: 2
Fore
SplineSet
694 553 m 1,0,-1
 622 553 l 1,1,-1
 622 0 l 1,2,-1
 547 0 l 1,3,-1
 547 226 l 1,4,5
 500.992 218.068 500.992 218.068 500 218 c 0,6,7
 477.609 216.473 477.609 216.473 422 240 c 1,8,9
 414 163 414 163 364 116 c 0,10,11
 313.818 70 313.818 70 235 70 c 0,12,13
 182 70 182 70 124 98 c 0,14,15
 86 116 86 116 31 158 c 1,16,-1
 80 217 l 1,17,18
 111.553 186.573 111.553 186.573 161 164 c 0,19,20
 199.166 146.576 199.166 146.576 235 145 c 0,21,22
 349 140.342 349 140.342 349 257 c 2,23,-1
 349 266 l 2,24,25
 349 312 349 312 317 344 c 0,26,27
 284.09 379 284.09 379 241 379 c 0,28,29
 222 379 222 379 197 372 c 0,30,31
 170 365 170 365 163 359 c 1,32,-1
 115 416 l 1,33,34
 127 422 127 422 157 434 c 0,35,36
 208 455 208 455 235 455 c 0,37,38
 377 457 377 457 420 296 c 1,39,40
 450 283 450 283 476 283 c 0,41,42
 516 283 516 283 547 304 c 1,43,-1
 547 553 l 1,44,-1
 0 553 l 1,45,-1
 0 628 l 1,46,-1
 694 628 l 1,47,-1
 694 553 l 1,0,-1
EndSplineSet
Validated: 33
EndChar

StartChar: uni091F
Encoding: 129 2335 130
Width: 582
GlyphClass: 2
Flags: W
AnchorPoint: "Anchor-1" 400 0 basechar 0
AnchorPoint: "Anchor-0" 454 628 basechar 0
LayerCount: 2
Fore
SplineSet
582 553 m 1,0,-1
 457 553 l 1,1,-1
 457 362 l 1,2,-1
 240 362 l 2,3,4
 199 362 199 362 169 322 c 0,5,6
 143 284 143 284 143 244 c 0,7,8
 142 170 142 170 202 119 c 0,9,10
 257 68 257 68 331 68 c 0,11,12
 428 68 428 68 480 156 c 1,13,-1
 550 113 l 1,14,15
 463 -6 463 -6 336 -6 c 0,16,17
 226 -6 226 -6 148 67 c 0,18,19
 68 140 68 140 67 248 c 0,20,21
 67 317 67 317 113 373 c 0,22,23
 163 438 163 438 227 438 c 2,24,-1
 382 438 l 1,25,-1
 382 553 l 1,26,-1
 0 553 l 1,27,-1
 0 628 l 1,28,-1
 582 628 l 5,29,-1
 582 553 l 1,0,-1
EndSplineSet
Validated: 33
EndChar

StartChar: uni0920
Encoding: 130 2336 131
Width: 542
GlyphClass: 2
Flags: W
AnchorPoint: "Anchor-1" 367 -9 basechar 0
AnchorPoint: "Anchor-0" 426 627 basechar 0
LayerCount: 2
Fore
SplineSet
542 553 m 5,0,-1
 433 553 l 1,1,-1
 433 350 l 1,2,-1
 206 350 l 2,3,4
 170.839 350 170.839 350 144 318 c 0,5,6
 118 287 118 287 118 248 c 0,7,8
 118 180 118 180 170 131 c 0,9,10
 221.534 83.3551 221.534 83.3551 292 82 c 0,11,12
 428.988 79.3653 428.988 79.3653 431 190 c 0,13,14
 432 245 432 245 373 287 c 1,15,-1
 428 337 l 1,16,17
 506 294 506 294 506 186 c 0,18,19
 506 98.1905 506 98.1905 440 50 c 0,20,21
 382.558 8.05812 382.558 8.05812 292 6 c 0,22,23
 192.983 4.0585 192.983 4.0585 118 78 c 0,24,25
 44.4562 150.522 44.4562 150.522 43 251 c 0,26,27
 41.9636 322.512 41.9636 322.512 91 374 c 0,28,29
 139.571 425 139.571 425 214 425 c 2,30,-1
 359 425 l 1,31,-1
 359 553 l 1,32,-1
 0 553 l 1,33,-1
 0 628 l 1,34,-1
 542 628 l 5,35,-1
 542 553 l 5,0,-1
EndSplineSet
Validated: 33
EndChar

StartChar: uni0921
Encoding: 131 2337 132
Width: 626
GlyphClass: 2
Flags: W
AnchorPoint: "Anchor-1" 332 -6 basechar 0
AnchorPoint: "Anchor-0" 534 626 basechar 0
LayerCount: 2
Fore
SplineSet
626 553 m 1,0,-1
 535 553 l 1,1,-1
 535 379 l 1,2,-1
 277 379 l 1,3,-1
 305 318 l 2,4,5
 354 258 354 258 382 265 c 2,6,-1
 463 286 l 1,7,-1
 517 292 l 2,8,9
 542 292 542 292 566 250 c 0,10,11
 586 212 586 212 586 184 c 0,12,13
 587 95 587 95 535 44 c 0,14,15
 482 -5 482 -5 395 -6 c 0,16,17
 246 -7 246 -7 92 198 c 0,18,19
 44 262 44 262 43 272 c 1,20,-1
 95 320 l 1,21,22
 80 287 80 287 236 148 c 0,23,24
 322 70 322 70 395 67 c 0,25,26
 510 67 510 67 511 181 c 0,27,28
 514 212 514 212 479 216 c 0,29,30
 464 216 464 216 410 199 c 0,31,32
 397 194 397 194 373 191 c 0,33,34
 314 191 314 191 251 266 c 0,35,36
 194 336 194 336 194 386 c 0,37,38
 192 413 192 413 214 434 c 128,-1,39
 236 455 236 455 263 455 c 2,40,-1
 461 455 l 1,41,-1
 461 553 l 5,42,-1
 0 553 l 1,43,-1
 0 628 l 1,44,-1
 626 628 l 1,45,-1
 626 553 l 1,0,-1
EndSplineSet
Validated: 33
EndChar

StartChar: uni0922
Encoding: 132 2338 133
Width: 549
GlyphClass: 2
Flags: W
AnchorPoint: "Anchor-1" 284 -10 basechar 0
AnchorPoint: "Anchor-0" 432 632 basechar 0
LayerCount: 2
Fore
SplineSet
549 553 m 5,0,-1
 439 553 l 1,1,-1
 439 371 l 1,2,-1
 218 371 l 2,3,4
 175 371 175 371 150 338 c 128,-1,5
 125 305 125 305 125 260 c 0,6,7
 125 175.438 125 175.438 192 121 c 0,8,9
 240 82 240 82 295 68 c 1,10,11
 268.864 105.636 268.864 105.636 268 154 c 0,12,13
 266.861 217.757 266.861 217.757 312 252 c 0,14,15
 341 274 341 274 385 274 c 0,16,17
 438.868 275.056 438.868 275.056 474 239 c 0,18,19
 512 200 512 200 514 146 c 0,20,21
 515.955 73.6604 515.955 73.6604 456 31 c 0,22,23
 404 -6 404 -6 326 -6 c 0,24,25
 220 -6 220 -6 134 72 c 0,26,27
 50 149 50 149 50 258 c 0,28,29
 50 325.356 50 325.356 94 385 c 0,30,31
 139 446 139 446 208 446 c 2,32,-1
 364 446 l 1,33,-1
 364 553 l 1,34,-1
 0 553 l 1,35,-1
 0 628 l 1,36,-1
 549 628 l 5,37,-1
 549 553 l 5,0,-1
439 138 m 0,38,39
 439 197 439 197 388 199 c 0,40,41
 341 202 341 202 341 146 c 0,42,43
 341 96 341 96 376 68 c 1,44,45
 398 73 398 73 418 95 c 0,46,47
 436 115 436 115 439 138 c 0,38,39
EndSplineSet
Validated: 33
EndChar

StartChar: uni0923
Encoding: 133 2339 134
Width: 622
GlyphClass: 2
Flags: W
LayerCount: 2
Fore
SplineSet
622 553 m 1,0,-1
 549 553 l 5,1,-1
 549 0 l 5,2,-1
 474 0 l 1,3,-1
 474 553 l 1,4,-1
 343 553 l 1,5,-1
 343 355 l 2,6,7
 343 290 343 290 301 245 c 0,8,9
 260.13 200.987 260.13 200.987 196 200 c 0,10,11
 131 199 131 199 88 242 c 0,12,13
 43 286 43 286 43 350 c 2,14,-1
 43 553 l 1,15,-1
 0 553 l 1,16,-1
 0 628 l 1,17,-1
 622 628 l 1,18,-1
 622 553 l 1,0,-1
268 368 m 2,19,-1
 268 553 l 1,20,-1
 118 553 l 1,21,-1
 118 364 l 2,22,23
 118 275 118 275 191 275 c 0,24,25
 229 275 229 275 252 305 c 0,26,27
 268 329 268 329 268 368 c 2,19,-1
EndSplineSet
Validated: 33
EndChar

StartChar: uni0924
Encoding: 134 2340 135
Width: 578
GlyphClass: 2
Flags: W
AnchorPoint: "Anchor-0" 494 628 basechar 0
LayerCount: 2
Fore
SplineSet
578 553 m 1,0,-1
 505 553 l 1,1,-1
 505 0 l 1,2,-1
 430 0 l 1,3,-1
 430 371 l 1,4,-1
 184 371 l 2,5,6
 118.946 371 118.946 371 118 310 c 0,7,8
 117.02 246.793 117.02 246.793 197 145 c 0,9,10
 263 61 263 61 292 54 c 1,11,-1
 239 -1 l 1,12,13
 221 -1 221 -1 139 98 c 0,14,15
 43 214 43 214 43 319 c 0,16,17
 43 373 43 373 70 410 c 0,18,19
 96 446 96 446 150 446 c 2,20,-1
 430 446 l 1,21,-1
 430 553 l 1,22,-1
 0 553 l 1,23,-1
 0 628 l 1,24,-1
 578 628 l 1,25,-1
 578 553 l 1,0,-1
EndSplineSet
Validated: 33
EndChar

StartChar: uni0925
Encoding: 135 2341 136
Width: 675
GlyphClass: 2
Flags: W
LayerCount: 2
Fore
SplineSet
675 553 m 1,0,-1
 602 553 l 1,1,-1
 602 0 l 1,2,-1
 527 0 l 1,3,-1
 527 216 l 1,4,-1
 468 167 l 2,5,6
 408.728 117.774 408.728 117.774 312 116 c 0,7,8
 220.307 114.318 220.307 114.318 142 184 c 0,9,10
 43.9671 271.235 43.9671 271.235 43 337 c 1,11,12
 84 325 84 325 134 325 c 0,13,14
 301 325 301 325 301 451 c 0,15,16
 301 494 301 494 272 522 c 0,17,18
 244.767 549.233 244.767 549.233 200 551 c 0,19,20
 168.784 552.232 168.784 552.232 151 541 c 0,21,22
 132 529 132 529 132 504 c 0,23,24
 132 455 132 455 192 455 c 0,25,26
 202 455 202 455 209 457 c 1,27,-1
 209 388 l 1,28,29
 58 388 58 388 56 506 c 0,30,31
 54.9613 558.974 54.9613 558.974 106 593 c 0,32,33
 154 625 154 625 203 625 c 0,34,35
 275 626 275 626 325 575 c 0,36,37
 376 522 376 522 376 451 c 0,38,39
 377 287 377 287 172 259 c 1,40,41
 218 192 218 192 311 192 c 0,42,43
 386.833 192 386.833 192 472 265 c 0,44,45
 493 283 493 283 527 331 c 1,46,-1
 527 553 l 1,47,-1
 421 553 l 1,48,-1
 421 628 l 1,49,-1
 675 628 l 1,50,-1
 675 553 l 1,0,-1
EndSplineSet
Validated: 33
EndChar

StartChar: uni0926
Encoding: 136 2342 137
Width: 512
GlyphClass: 2
Flags: W
AnchorPoint: "Anchor-1" 400 -38 basechar 0
AnchorPoint: "Anchor-0" 438 626 basechar 0
LayerCount: 2
Fore
SplineSet
512 553 m 1,0,-1
 437 553 l 5,1,-1
 437 379 l 5,2,-1
 192 379 l 2,3,4
 159.909 379 159.909 379 139 356 c 128,-1,6
 118 332.9 118 332.9 118 301 c 0,7,8
 118 215.615 118 215.615 208 181 c 0,9,10
 247 166 247 166 326 166 c 1,11,12
 326 191 326 191 325 196 c 0,13,14
 325 258.083 325 258.083 396 264 c 0,15,16
 420 266 420 266 439 242 c 0,17,18
 457 221 457 221 457 196 c 0,19,20
 457 145 457 145 412 116 c 1,21,22
 413.997 116.007 413.997 116.007 442 58 c 0,23,24
 460.87 18.913 460.87 18.913 484 -10 c 2,25,-1
 508 -40 l 1,26,-1
 408 -40 l 1,27,-1
 374 24 l 1,28,-1
 348 91 l 1,29,30
 221 91 221 91 144 132 c 0,31,32
 43 186 43 186 43 301 c 0,33,34
 43 357.545 43 357.545 77 407 c 0,35,36
 110 455 110 455 167 455 c 2,37,-1
 362 455 l 1,38,-1
 362 553 l 1,39,-1
 0 553 l 1,40,-1
 0 628 l 1,41,-1
 512 628 l 1,42,-1
 512 553 l 1,0,-1
EndSplineSet
Validated: 33
EndChar

StartChar: uni0927
Encoding: 137 2343 138
Width: 606
GlyphClass: 2
Flags: W
AnchorPoint: "Anchor-0" 528 630 basechar 0
LayerCount: 2
Fore
SplineSet
606 553 m 1,0,-1
 533 553 l 1,1,-1
 533 0 l 1,2,-1
 458 0 l 1,3,-1
 458 202 l 1,4,5
 434 178 434 178 403 156 c 0,6,7
 325 104 325 104 244 104 c 0,8,9
 185.316 104 185.316 104 137 140 c 0,10,11
 87.2697 177.054 87.2697 177.054 86 238 c 0,12,13
 85.3501 269.194 85.3501 269.194 108 306 c 0,14,15
 116 319 116 319 142 341 c 1,16,17
 46 409 46 409 43 502 c 0,18,19
 41 554 41 554 78 590 c 0,20,21
 113.912 626.882 113.912 626.882 167 628 c 0,22,23
 211.072 628.928 211.072 628.928 246 594 c 0,24,25
 283 559 283 559 283 514 c 2,26,-1
 283 482 l 1,27,-1
 208 482 l 1,28,-1
 208 514 l 2,29,30
 208 552 208 552 167 553 c 0,31,32
 116 553 116 553 116 504 c 0,33,34
 116 466 116 466 152 419 c 0,35,36
 181 382 181 382 197 373 c 1,37,38
 244 389 244 389 296 389 c 2,39,-1
 331 389 l 1,40,-1
 364 318 l 1,41,42
 161 318 161 318 161 233 c 0,43,44
 161 206 161 206 193 193 c 0,45,46
 227 180 227 180 268 180 c 0,47,48
 312 179 312 179 394 240 c 0,49,50
 426 264 426 264 458 296 c 1,51,-1
 458 553 l 1,52,-1
 359 553 l 1,53,-1
 359 628 l 1,54,-1
 606 628 l 1,55,-1
 606 553 l 1,0,-1
EndSplineSet
Validated: 33
EndChar

StartChar: uni0928
Encoding: 138 2344 139
Width: 582
GlyphClass: 2
Flags: W
AnchorPoint: "Anchor-0" 502 629 basechar 0
LayerCount: 2
Fore
SplineSet
582 553 m 1,0,-1
 508 553 l 1,1,-1
 508 0 l 1,2,-1
 433 0 l 1,3,-1
 433 334 l 1,4,-1
 204 334 l 1,5,-1
 204 245 l 2,6,7
 204 220 204 220 203 218 c 0,8,9
 196 208 196 208 170 208 c 0,10,11
 154 208 154 208 98 269 c 0,12,13
 43 329 43 329 43 350 c 0,14,15
 43 369.733 43 369.733 59 390 c 0,16,17
 74 409 74 409 95 409 c 2,18,-1
 433 409 l 1,19,-1
 433 553 l 1,20,-1
 0 553 l 1,21,-1
 0 628 l 1,22,-1
 582 628 l 1,23,-1
 582 553 l 1,0,-1
EndSplineSet
Validated: 1
EndChar

StartChar: uni0929
Encoding: 139 2345 140
Width: 582
GlyphClass: 2
Flags: W
AnchorPoint: "Anchor-0" 505 629 basechar 0
LayerCount: 2
Fore
SplineSet
182 -23 m 1,0,-1
 84 -23 l 1,1,-1
 84 69 l 1,2,-1
 182 69 l 1,3,-1
 182 -23 l 1,0,-1
EndSplineSet
Refer: 139 2344 N 1 0 0 1 0 0 2
Validated: 32769
EndChar

StartChar: uni092A
Encoding: 140 2346 141
Width: 489
GlyphClass: 2
Flags: W
AnchorPoint: "Anchor-0" 404 628 basechar 0
LayerCount: 2
Fore
SplineSet
489 553 m 1,0,-1
 417 553 l 1,1,-1
 417 0 l 1,2,-1
 342 0 l 1,3,-1
 342 210 l 1,4,5
 299 170 299 170 228 170 c 128,-1,6
 157 170 157 170 102 211 c 0,7,8
 43 256 43 256 43 326 c 2,9,-1
 43 553 l 1,10,-1
 0 553 l 1,11,-1
 0 628 l 1,12,-1
 489 628 l 1,13,-1
 489 553 l 1,0,-1
342 302 m 1,14,-1
 342 553 l 1,15,-1
 118 553 l 1,16,-1
 118 330 l 2,17,18
 118 290 118 290 152 266 c 0,19,20
 182 246 182 246 224 246 c 0,21,22
 263 246 263 246 294 263 c 0,23,24
 317 277 317 277 342 302 c 1,14,-1
EndSplineSet
Validated: 1
EndChar

StartChar: uni092B
Encoding: 141 2347 142
Width: 746
GlyphClass: 2
Flags: W
AnchorPoint: "Anchor-1" 374 -8 basechar 0
AnchorPoint: "Anchor-0" 410 630 basechar 0
LayerCount: 2
Fore
SplineSet
746 553 m 1,0,-1
 417 553 l 1,1,-1
 417 362 l 1,2,3
 484.66 425.712 484.66 425.712 536 427 c 0,4,5
 608.199 428.775 608.199 428.775 654 382 c 0,6,7
 702 335.043 702 335.043 702 268 c 0,8,9
 702 207.458 702 207.458 641 120 c 0,10,11
 626.017 98.5179 626.017 98.5179 577 46 c 1,12,-1
 506 95 l 1,13,14
 538 112 538 112 574 157 c 0,15,16
 624.749 219.461 624.749 219.461 626 272 c 0,17,18
 626.812 306.097 626.812 306.097 602 329 c 0,19,20
 576 353 576 353 545 353 c 0,21,22
 527 353 527 353 491 329 c 0,23,24
 476.533 317 476.533 317 417 264 c 1,25,-1
 417 0 l 1,26,-1
 342 0 l 1,27,-1
 342 206 l 1,28,29
 292 170 292 170 228 170 c 0,30,31
 157 170 157 170 102 211 c 0,32,33
 43 256 43 256 43 326 c 2,34,-1
 43 553 l 1,35,-1
 0 553 l 1,36,-1
 0 628 l 1,37,-1
 746 628 l 1,38,-1
 746 553 l 1,0,-1
342 295 m 1,39,-1
 342 553 l 1,40,-1
 118 553 l 1,41,-1
 118 330 l 2,42,43
 118 290 118 290 152 266 c 0,44,45
 182 246 182 246 224 246 c 0,46,47
 286 246 286 246 342 295 c 1,39,-1
EndSplineSet
Validated: 33
EndChar

StartChar: uni092C
Encoding: 142 2348 143
Width: 502
GlyphClass: 2
Flags: W
AnchorPoint: "Anchor-0" 427 624 basechar 0
LayerCount: 2
Fore
SplineSet
502 553 m 1,0,-1
 430 553 l 1,1,-1
 430 0 l 1,2,-1
 355 0 l 1,3,-1
 355 170 l 1,4,5
 329 150.5 329 150.5 318 145 c 0,6,7
 269.34 120.67 269.34 120.67 226 120 c 0,8,9
 152.259 118.86 152.259 118.86 98 168 c 0,10,11
 45.0557 217.022 45.0557 217.022 43 290 c 0,12,13
 41.0673 358.611 41.0673 358.611 89 414 c 0,14,15
 134 466 134 466 206 467 c 0,16,17
 220 467 220 467 292 455 c 1,18,-1
 312 373 l 1,19,20
 251.647 392 251.647 392 211 392 c 0,21,22
 185 392 185 392 158 376 c 1,23,-1
 341 246 l 1,24,25
 352 252 352 252 353 256 c 1,26,-1
 355 258 l 1,27,-1
 355 553 l 1,28,-1
 0 553 l 1,29,-1
 0 628 l 1,30,-1
 502 628 l 1,31,-1
 502 553 l 1,0,-1
294 214 m 1,32,-1
 125 335 l 1,33,34
 118 319 118 319 118 296 c 0,35,36
 118 250 118 250 146 223 c 0,37,38
 176 196 176 196 221 196 c 0,39,40
 254 194 254 194 294 214 c 1,32,-1
EndSplineSet
Validated: 33
EndChar

StartChar: uni092D
Encoding: 143 2349 144
Width: 591
GlyphClass: 2
Flags: W
AnchorPoint: "Anchor-0" 516 630 basechar 0
LayerCount: 2
Fore
SplineSet
591 553 m 1,0,-1
 518 553 l 1,1,-1
 518 0 l 1,2,-1
 443 0 l 1,3,-1
 443 266 l 1,4,-1
 254 266 l 1,5,-1
 254 164 l 2,6,7
 254 153.5 254 153.5 221 152 c 0,8,9
 200.807 151.082 200.807 151.082 149 210 c 0,10,11
 98 268 98 268 98 293 c 0,12,13
 98 305.231 98 305.231 112 323 c 0,14,15
 126.182 341 126.182 341 137 341 c 2,16,-1
 179 341 l 1,17,-1
 179 499 l 2,18,19
 179 524 179 524 167 538 c 128,-1,20
 155 552 155 552 133 552 c 0,21,22
 80 552 80 552 80 504 c 0,23,24
 80 495 80 495 89 476 c 2,25,-1
 98 457 l 1,26,-1
 18 457 l 1,27,28
 18 467 18 467 12 485 c 2,29,-1
 6 514 l 2,30,31
 -3.03599 557.674 -3.03599 557.674 43 595 c 0,32,33
 78.7539 624.956 78.7539 624.956 132 626 c 0,34,35
 185.869 627.056 185.869 627.056 220 600 c 128,-1,36
 254 573.048 254 573.048 254 521 c 2,37,-1
 254 341 l 1,38,-1
 443 341 l 1,39,-1
 443 553 l 1,40,-1
 337 553 l 1,41,-1
 337 628 l 1,42,-1
 591 628 l 1,43,-1
 591 553 l 1,0,-1
EndSplineSet
Validated: 33
EndChar

StartChar: uni092E
Encoding: 144 2350 145
Width: 530
GlyphClass: 2
Flags: W
LayerCount: 2
Fore
SplineSet
530 553 m 1,0,-1
 457 553 l 1,1,-1
 457 0 l 1,2,-1
 382 0 l 1,3,-1
 382 266 l 1,4,-1
 170 266 l 1,5,-1
 170 185 l 2,6,7
 170 170 170 170 169 168 c 0,8,9
 165.584 153.199 165.584 153.199 138 152 c 0,10,11
 117.529 151.11 117.529 151.11 66 210 c 0,12,13
 15.8821 267.278 15.8821 267.278 14 293 c 0,14,15
 13.2487 303.268 13.2487 303.268 29 323 c 0,16,17
 43.3688 341 43.3688 341 54 341 c 2,18,-1
 95 341 l 1,19,-1
 95 553 l 1,20,-1
 0 553 l 1,21,-1
 0 628 l 1,22,-1
 530 628 l 1,23,-1
 530 553 l 1,0,-1
382 341 m 1,24,-1
 382 553 l 1,25,-1
 170 553 l 1,26,-1
 170 341 l 1,27,-1
 382 341 l 1,24,-1
EndSplineSet
Validated: 33
EndChar

StartChar: uni092F
Encoding: 145 2351 146
Width: 568
GlyphClass: 2
Flags: W
AnchorPoint: "Anchor-0" 494 630 basechar 0
LayerCount: 2
Fore
SplineSet
568 553 m 1,0,-1
 495 553 l 5,1,-1
 495 0 l 5,2,-1
 420 0 l 1,3,-1
 420 215 l 1,4,5
 358 161 358 161 274 161 c 0,6,7
 174 161 174 161 110 224 c 128,-1,8
 46 287 46 287 43 386 c 1,9,10
 47 386 47 386 65 380 c 2,11,-1
 94 376 l 2,12,13
 129.109 371.157 129.109 371.157 162 397 c 0,14,15
 191.033 419.812 191.033 419.812 192 458 c 0,16,17
 192.925 494.542 192.925 494.542 160 530 c 0,18,19
 147.266 543.714 147.266 543.714 134 553 c 1,20,-1
 0 553 l 1,21,-1
 0 628 l 1,22,-1
 568 628 l 1,23,-1
 568 553 l 1,0,-1
420 318 m 1,24,-1
 420 553 l 1,25,-1
 224 553 l 1,26,27
 266 508 266 508 266 456 c 128,-1,28
 266 404 266 404 232 360 c 0,29,30
 197 314 197 314 145 313 c 1,31,32
 173 236 173 236 268 236 c 0,33,34
 329 235 329 235 383 280 c 0,35,36
 394 288 394 288 420 318 c 1,24,-1
EndSplineSet
Validated: 33
EndChar

StartChar: uni0930
Encoding: 146 2352 147
Width: 444
GlyphClass: 2
Flags: W
AnchorPoint: "Anchor-1" 338 -12 basechar 0
AnchorPoint: "Anchor-0" 362 628 basechar 0
LayerCount: 2
Fore
SplineSet
444 553 m 1,0,-1
 365 553 l 1,1,-1
 365 406 l 2,2,3
 365 350.82 365 350.82 325 318 c 0,4,5
 286 286 286 286 232 286 c 2,6,-1
 216 286 l 2,7,8
 215 286 215 286 203 288 c 1,9,-1
 238 238 l 2,10,11
 267.331 196.099 267.331 196.099 280 181 c 2,12,-1
 353 94 l 2,13,14
 391.19 48.4861 391.19 48.4861 402 42 c 1,15,-1
 350 -13 l 1,16,17
 249.341 88.7303 249.341 88.7303 164 212 c 2,18,-1
 29 407 l 1,19,-1
 89 449 l 1,20,-1
 121 402 l 2,21,22
 147.935 362.44 147.935 362.44 226 360 c 0,23,24
 290 358 290 358 290 408 c 2,25,-1
 290 553 l 1,26,-1
 0 553 l 1,27,-1
 0 628 l 1,28,-1
 444 628 l 1,29,-1
 444 553 l 1,0,-1
EndSplineSet
Validated: 33
EndChar

StartChar: uni0931
Encoding: 147 2353 148
Width: 444
GlyphClass: 2
Flags: W
AnchorPoint: "Anchor-1" 350 -24 basechar 0
AnchorPoint: "Anchor-0" 362 626 basechar 0
LayerCount: 2
Fore
SplineSet
129 54 m 1,0,-1
 72 -4 l 1,1,-1
 18 50 l 1,2,-1
 75 108 l 1,3,-1
 129 54 l 1,0,-1
444 553 m 5,4,-1
 365 553 l 1,5,-1
 365 406 l 2,6,7
 365 350.82 365 350.82 325 318 c 0,8,9
 286 286 286 286 232 286 c 2,10,-1
 216 286 l 2,11,12
 215 286 215 286 203 288 c 1,13,-1
 238 238 l 2,14,15
 267.331 196.099 267.331 196.099 280 181 c 2,16,-1
 353 94 l 2,17,18
 391.19 48.4861 391.19 48.4861 402 42 c 1,19,-1
 350 -13 l 1,20,21
 249.341 88.7303 249.341 88.7303 164 212 c 2,22,-1
 29 407 l 1,23,-1
 89 449 l 1,24,-1
 121 402 l 2,25,26
 147.935 362.44 147.935 362.44 226 360 c 0,27,28
 290 358 290 358 290 408 c 2,29,-1
 290 553 l 1,30,-1
 0 553 l 1,31,-1
 0 628 l 1,32,-1
 444 628 l 5,33,-1
 444 553 l 5,4,-1
EndSplineSet
Validated: 33
EndChar

StartChar: uni0932
Encoding: 148 2354 149
Width: 672
GlyphClass: 2
Flags: W
LayerCount: 2
Fore
SplineSet
672 553 m 1,0,-1
 598 553 l 1,1,-1
 598 0 l 1,2,-1
 523 0 l 1,3,-1
 523 352 l 1,4,5
 483.758 347.758 483.758 347.758 431 295 c 0,6,7
 378.718 242.718 378.718 242.718 364 187 c 1,8,-1
 296 221 l 1,9,10
 296 247.64 296 247.64 310 265 c 2,11,12
 312.359 272.415 312.359 272.415 335 296 c 1,13,14
 301.62 327.155 301.62 327.155 277 340 c 0,15,16
 256.165 350.871 256.165 350.871 238 352 c 0,17,18
 188.253 355.093 188.253 355.093 151 328 c 0,19,20
 118 304 118 304 118 254 c 0,21,22
 118 179 118 179 214 110 c 0,23,24
 290 55 290 55 322 54 c 1,25,-1
 284 -11 l 1,26,27
 224 -11 224 -11 118 95 c 0,28,29
 44.1757 168.824 44.1757 168.824 43 257 c 0,30,31
 42.0495 328.287 42.0495 328.287 96 379 c 0,32,33
 146 426 146 426 222 426 c 0,34,35
 313 427 313 427 382 353 c 1,36,37
 451 422 451 422 523 426 c 1,38,-1
 523 553 l 1,39,-1
 0 553 l 1,40,-1
 0 628 l 1,41,-1
 672 628 l 1,42,-1
 672 553 l 1,0,-1
EndSplineSet
Validated: 33
EndChar

StartChar: uni0933
Encoding: 149 2355 150
Width: 676
GlyphClass: 2
Flags: W
AnchorPoint: "Anchor-1" 477 30 basechar 0
AnchorPoint: "Anchor-0" 534 627 basechar 0
LayerCount: 2
Fore
SplineSet
676 553 m 5,0,-1
 533 553 l 1,1,-1
 533 440 l 1,2,3
 584 424 584 424 613 366 c 0,4,5
 640 312 640 312 641 257 c 0,6,7
 641 172.791 641 172.791 602 122 c 0,8,9
 558.15 64.8932 558.15 64.8932 480 64 c 0,10,11
 384.48 62.9083 384.48 62.9083 344 155 c 1,12,13
 302 59 302 59 205 59 c 0,14,15
 128 59 128 59 85 119 c 0,16,17
 49.2591 168.265 49.2591 168.265 46 253 c 0,18,19
 43.1068 328.224 43.1068 328.224 89 383 c 0,20,21
 138.432 442 138.432 442 210 442 c 0,22,23
 299 442 299 442 344 360 c 1,24,25
 358 389 358 389 391 414 c 0,26,27
 425 439 425 439 458 443 c 1,28,-1
 458 553 l 1,29,-1
 0 553 l 1,30,-1
 0 628 l 1,31,-1
 676 628 l 5,32,-1
 676 553 l 5,0,-1
565 242 m 0,33,34
 566 298 566 298 553 326 c 0,35,36
 536 364 536 364 478 366 c 0,37,38
 430 367 430 367 402 314 c 0,39,40
 397 306 397 306 383 254 c 0,41,42
 383 217 383 217 416 170 c 0,43,44
 445 134 445 134 488 134 c 0,45,46
 523 134 523 134 546 172 c 0,47,48
 563 203 563 203 565 242 c 0,33,34
308 256 m 0,49,50
 302 301 302 301 277 330 c 0,51,52
 248 366 248 366 208 366 c 0,53,54
 124 366 124 366 120 254 c 0,55,56
 118 134 118 134 208 134 c 0,57,58
 251 132 251 132 278 174 c 0,59,60
 301 208 301 208 308 256 c 0,49,50
EndSplineSet
Validated: 33
EndChar

StartChar: uni0934
Encoding: 150 2356 151
Width: 676
GlyphClass: 2
Flags: W
AnchorPoint: "Anchor-1" 462 -114 basechar 0
AnchorPoint: "Anchor-0" 535 631 basechar 0
LayerCount: 2
Fore
SplineSet
506 -82 m 1,0,-1
 406 -82 l 1,1,-1
 406 12 l 1,2,-1
 506 12 l 1,3,-1
 506 -82 l 1,0,-1
676 553 m 1,4,-1
 533 553 l 1,5,-1
 533 440 l 1,6,7
 584 424 584 424 613 366 c 0,8,9
 640 312 640 312 641 257 c 0,10,11
 641 172.791 641 172.791 602 122 c 0,12,13
 558.15 64.8932 558.15 64.8932 480 64 c 0,14,15
 384.48 62.9083 384.48 62.9083 344 155 c 1,16,17
 302 59 302 59 205 59 c 0,18,19
 128 59 128 59 85 119 c 0,20,21
 49.2591 168.265 49.2591 168.265 46 253 c 0,22,23
 43.1068 328.224 43.1068 328.224 89 383 c 0,24,25
 138.432 442 138.432 442 210 442 c 0,26,27
 299 442 299 442 344 360 c 1,28,29
 358 389 358 389 391 414 c 0,30,31
 425 439 425 439 458 443 c 1,32,-1
 458 553 l 1,33,-1
 0 553 l 1,34,-1
 0 628 l 1,35,-1
 676 628 l 1,36,-1
 676 553 l 1,4,-1
565 242 m 0,37,38
 566 298 566 298 553 326 c 0,39,40
 536 364 536 364 478 366 c 0,41,42
 430 367 430 367 402 314 c 0,43,44
 397 306 397 306 383 254 c 0,45,46
 383 217 383 217 416 170 c 0,47,48
 445 134 445 134 488 134 c 0,49,50
 523 134 523 134 546 172 c 0,51,52
 563 203 563 203 565 242 c 0,37,38
308 256 m 0,53,54
 302 301 302 301 277 330 c 0,55,56
 248 366 248 366 208 366 c 0,57,58
 124 366 124 366 120 254 c 0,59,60
 118 134 118 134 208 134 c 0,61,62
 251 132 251 132 278 174 c 0,63,64
 301 208 301 208 308 256 c 0,53,54
EndSplineSet
Validated: 33
EndChar

StartChar: uni0935
Encoding: 151 2357 152
Width: 502
GlyphClass: 2
Flags: W
AnchorPoint: "Anchor-0" 422 626 basechar 0
LayerCount: 2
Fore
SplineSet
502 553 m 1,0,-1
 408 553 l 1,1,-1
 408 0 l 1,2,-1
 333 0 l 1,3,-1
 333 170 l 1,4,5
 307 150 307 150 296 145 c 0,6,7
 247 121 247 121 204 120 c 0,8,9
 130 119 130 119 76 168 c 0,10,11
 23 217 23 217 21 290 c 0,12,13
 19 359 19 359 67 414 c 0,14,15
 112 466 112 466 184 467 c 0,16,17
 198 467 198 467 270 455 c 1,18,-1
 290 373 l 1,19,20
 272 379 272 379 259 382 c 0,21,22
 223 391 223 391 189 392 c 0,23,24
 147 392 147 392 123 365 c 0,25,26
 97 336 97 336 96 296 c 0,27,28
 95 249 95 249 124 223 c 0,29,30
 152 198 152 198 199 196 c 0,31,32
 250 194 250 194 295 227 c 0,33,34
 326 250 326 250 333 257 c 1,35,-1
 333 553 l 1,36,-1
 0 553 l 1,37,-1
 0 628 l 1,38,-1
 502 628 l 1,39,-1
 502 553 l 1,0,-1
EndSplineSet
Validated: 33
EndChar

StartChar: uni0936
Encoding: 152 2358 153
Width: 661
GlyphClass: 2
Flags: W
LayerCount: 2
Fore
SplineSet
318 473 m 1,0,1
 296 551 296 551 224 553 c 0,2,3
 198 553 198 553 177.5 532.5 c 128,-1,4
 157 512 157 512 156 487 c 128,-1,5
 155 462 155 462 175 445 c 1,6,7
 198 428 198 428 224 428 c 128,-1,8
 250 428 250 428 288 451 c 1,9,-1
 318 473 l 1,0,1
661 553 m 1,10,-1
 585 553 l 1,11,-1
 585 0 l 1,12,-1
 510 0 l 1,13,-1
 510 553 l 1,14,-1
 359 553 l 1,15,16
 398 503 398 503 400.5 420.5 c 128,-1,17
 403 338 403 338 346 269 c 1,18,19
 284 197 284 197 198 197 c 1,20,-1
 382 37 l 1,21,-1
 331 -16 l 1,22,-1
 41 238 l 1,23,-1
 88 292 l 1,24,-1
 136 251 l 1,25,26
 203 251 203 251 263 291.5 c 128,-1,27
 323 332 323 332 324 396 c 1,28,29
 275 356 275 356 221 354.5 c 128,-1,30
 167 353 167 353 123 383.5 c 128,-1,31
 79 414 79 414 78.5 468 c 128,-1,32
 78 522 78 522 100 553 c 1,33,-1
 0 553 l 1,34,-1
 0 628 l 1,35,-1
 661 628 l 1,36,-1
 661 553 l 1,10,-1
EndSplineSet
Validated: 33
EndChar

StartChar: uni0937
Encoding: 153 2359 154
Width: 489
GlyphClass: 2
Flags: W
LayerCount: 2
Fore
SplineSet
489 553 m 1,0,-1
 417 553 l 5,1,-1
 417 0 l 5,2,-1
 342 0 l 1,3,-1
 342 198 l 1,4,5
 299 158 299 158 228 158 c 0,6,7
 155 158 155 158 102 199 c 0,8,9
 43 244 43 244 43 314 c 2,10,-1
 43 553 l 1,11,-1
 0 553 l 1,12,-1
 0 628 l 1,13,-1
 489 628 l 1,14,-1
 489 553 l 1,0,-1
342 337 m 1,15,-1
 342 553 l 1,16,-1
 138 553 l 1,17,-1
 342 337 l 1,15,-1
325 276 m 1,18,-1
 118 496 l 1,19,-1
 118 318 l 2,20,21
 118 278 118 278 152 254 c 0,22,23
 180 234 180 234 224 234 c 0,24,25
 265 234 265 234 290 247 c 0,26,27
 313 260 313 260 325 276 c 1,18,-1
EndSplineSet
Validated: 1
EndChar

StartChar: uni0938
Encoding: 154 2360 155
Width: 682
GlyphClass: 2
Flags: W
LayerCount: 2
Fore
SplineSet
682 553 m 1,0,-1
 609 553 l 1,1,-1
 609 0 l 1,2,-1
 534 0 l 1,3,-1
 534 292 l 1,4,-1
 366 292 l 1,5,-1
 338 331 l 1,6,7
 299 286 299 286 229 286 c 0,8,9
 211 286 211 286 203 288 c 1,10,-1
 238 238 l 2,11,12
 267.331 196.099 267.331 196.099 280 181 c 2,13,-1
 353 94 l 2,14,15
 391.19 48.4863 391.19 48.4863 402 42 c 1,16,-1
 350 -13 l 1,17,18
 249.34 88.7318 249.34 88.7318 164 212 c 2,19,-1
 29 407 l 1,20,-1
 89 449 l 1,21,-1
 121 402 l 2,22,23
 147.934 362.44 147.934 362.44 226 360 c 0,24,25
 290 358 290 358 290 408 c 2,26,-1
 290 553 l 1,27,-1
 0 553 l 1,28,-1
 0 628 l 1,29,-1
 682 628 l 1,30,-1
 682 553 l 1,0,-1
534 367 m 1,31,-1
 534 553 l 1,32,-1
 365 553 l 1,33,-1
 365 406 l 2,34,35
 365 388 365 388 359 367 c 1,36,-1
 534 367 l 1,31,-1
EndSplineSet
Validated: 33
EndChar

StartChar: uni0939
Encoding: 155 2361 156
Width: 496
GlyphClass: 2
Flags: W
AnchorPoint: "Anchor-1" 350 -76 basechar 0
AnchorPoint: "Anchor-0" 414 628 basechar 0
LayerCount: 2
Fore
SplineSet
496 553 m 1,0,-1
 421 553 l 1,1,-1
 421 379 l 1,2,-1
 133 379 l 2,3,4
 125 379 125 379 125 372 c 0,5,6
 125 355.591 125 355.591 146 326 c 0,7,8
 168 295 168 295 186 280 c 1,9,10
 245 300 245 300 276 300 c 0,11,12
 358.71 301.034 358.71 301.034 409 268 c 0,13,14
 457.92 235.866 457.92 235.866 461 164 c 0,15,16
 463.193 121.243 463.193 121.243 432 92 c 2,17,-1
 400 62 l 1,18,-1
 340 110 l 1,19,20
 386 133 386 133 386 167 c 0,21,22
 386 200.568 386 200.568 336 216 c 0,23,24
 314.338 222.686 314.338 222.686 274 224 c 0,25,26
 219.67 225.77 219.67 225.77 174 194 c 0,27,28
 126.724 161.112 126.724 161.112 126 126 c 0,29,30
 124.729 64.3439 124.729 64.3439 232 22 c 0,31,32
 308 -8 308 -8 388 -10 c 1,33,-1
 373 -66 l 1,34,35
 368 -71 368 -71 354 -71 c 0,36,37
 314 -71 314 -71 211 -35 c 0,38,39
 54.0183 19.6456 54.0183 19.6456 52 132 c 0,40,41
 50.9962 187.881 50.9962 187.881 119 248 c 1,42,43
 47.5201 320.459 47.5201 320.459 43 386 c 0,44,45
 41.2056 412.019 41.2056 412.019 59 434 c 0,46,47
 76 455 76 455 103 455 c 2,48,-1
 346 455 l 5,49,-1
 346 553 l 5,50,-1
 0 553 l 1,51,-1
 0 628 l 1,52,-1
 496 628 l 1,53,-1
 496 553 l 1,0,-1
EndSplineSet
Validated: 33
EndChar

StartChar: uni093B
Encoding: 156 2363 157
Width: 655
GlyphClass: 2
Flags: W
AnchorPoint: "Anchor-1" 372 -6 basechar 0
AnchorPoint: "Anchor-0" 498 629 basechar 0
LayerCount: 2
Fore
SplineSet
655 553 m 1,0,-1
 502 553 l 1,1,-1
 502 449 l 1,2,3
 617.004 422 617.004 422 619 295 c 0,4,5
 620.073 227.425 620.073 227.425 563 162 c 0,6,7
 522 115 522 115 478 90 c 1,8,-1
 419 134 l 1,9,10
 463 158 463 158 503 209 c 0,11,12
 544 260 544 260 545 304 c 0,13,14
 545 372.992 545 372.992 440 377 c 0,15,16
 412.881 378.035 412.881 378.035 385 354 c 0,17,18
 358 330 358 330 358 296 c 2,19,-1
 358 224 l 1,20,-1
 283 224 l 1,21,-1
 283 311 l 1,22,-1
 259 358 l 1,23,24
 234 377 234 377 208 377 c 0,25,26
 166 378 166 378 142 349 c 0,27,28
 118 319 118 319 118 276 c 0,29,30
 118 197 118 197 191 122 c 0,31,32
 241 71 241 71 275 59 c 1,33,-1
 229 -6 l 1,34,35
 166 20 166 20 100 116 c 0,36,37
 46 196 46 196 43 283 c 0,38,39
 41.0744 349.433 41.0744 349.433 88 401 c 0,40,41
 134.41 452 134.41 452 199 452 c 0,42,43
 281 452 281 452 326 395 c 1,44,45
 350 446 350 446 427 452 c 1,46,-1
 427 553 l 1,47,-1
 0 553 l 1,48,-1
 0 628 l 1,49,-1
 655 628 l 1,50,-1
 655 553 l 1,0,-1
EndSplineSet
Validated: 33
EndChar

StartChar: uni093C
Encoding: 157 2364 158
Width: 7
GlyphClass: 2
Flags: W
LayerCount: 2
Fore
SplineSet
-266 -84 m 1,0,-1
 -370 -84 l 1,1,-1
 -370 17 l 1,2,-1
 -266 17 l 1,3,-1
 -266 -84 l 1,0,-1
EndSplineSet
Validated: 1
EndChar

StartChar: uni093D
Encoding: 158 2365 159
Width: 453
GlyphClass: 2
Flags: W
LayerCount: 2
Fore
SplineSet
451 140 m 0,0,1
 451 65 451 65 391 23 c 0,2,3
 338 -14 338 -14 260 -16 c 0,4,5
 191 -17 191 -17 102 43 c 0,6,7
 32 90 32 90 24 110 c 1,8,-1
 76 162 l 1,9,10
 166 60 166 60 258 58 c 0,11,12
 301 56 301 56 336 73 c 0,13,14
 378 94 378 94 378 133 c 0,15,16
 378 173 378 173 296 240 c 2,17,-1
 145 364 l 2,18,19
 62 436 62 436 62 485 c 0,20,21
 62 536 62 536 95 569 c 0,22,23
 126 601 126 601 178 601 c 2,24,-1
 414 601 l 1,25,-1
 414 528 l 1,26,-1
 175 528 l 2,27,28
 162 528 162 528 150 517 c 0,29,30
 137 506 137 506 136 490 c 0,31,32
 136 468 136 468 217 401 c 0,33,34
 350 292 350 292 368 275 c 0,35,36
 450 197 450 197 451 140 c 0,0,1
EndSplineSet
Validated: 33
EndChar

StartChar: uni093E
Encoding: 159 2366 160
Width: 217
GlyphClass: 2
Flags: W
LayerCount: 2
Fore
SplineSet
224 553 m 1,0,-1
 145 553 l 1,1,-1
 145 0 l 1,2,-1
 70 0 l 1,3,-1
 70 553 l 1,4,-1
 -34 553 l 1,5,-1
 -34 628 l 1,6,-1
 224 628 l 1,7,-1
 224 553 l 1,0,-1
EndSplineSet
Validated: 1
EndChar

StartChar: uni093F
Encoding: 160 2367 161
Width: 217
GlyphClass: 2
Flags: W
LayerCount: 2
Fore
SplineSet
656 628 m 1,0,-1
 570 628 l 1,1,2
 570 635 570 635 518 683 c 0,3,4
 471.144 727.153 471.144 727.153 391 775 c 0,5,6
 324 815 324 815 234 815 c 0,7,8
 125 815 125 815 125 702 c 0,9,10
 125 676 125 676 132 652 c 2,11,-1
 139 628 l 1,12,-1
 224 628 l 1,13,-1
 224 553 l 1,14,-1
 146 553 l 1,15,-1
 146 0 l 1,16,-1
 71 0 l 1,17,-1
 71 553 l 1,18,-1
 -7 553 l 1,19,-1
 -7 628 l 1,20,-1
 70 628 l 1,21,22
 52 682 52 682 52 708 c 0,23,24
 52 785 52 785 103 835 c 0,25,26
 156 887 156 887 241 888 c 0,27,28
 346 889 346 889 440 830 c 0,29,30
 548 763 548 763 656 628 c 1,0,-1
EndSplineSet
Validated: 33
EndChar

StartChar: uni0940
Encoding: 161 2368 162
Width: 217
GlyphClass: 2
Flags: W
LayerCount: 2
Fore
SplineSet
224 553 m 1,0,-1
 146 553 l 1,1,-1
 146 0 l 1,2,-1
 71 0 l 1,3,-1
 71 553 l 1,4,-1
 -7 553 l 1,5,-1
 -7 628 l 1,6,-1
 74 628 l 1,7,8
 77 649 77 649 77 659 c 0,9,10
 77 727.925 77 727.925 26 770 c 0,11,12
 -14 803 -14 803 -70 803 c 0,13,14
 -110 803 -110 803 -144 785 c 0,15,16
 -181 764 -181 764 -182 732 c 0,17,18
 -182 688 -182 688 -134 628 c 1,19,-1
 -214 628 l 1,20,21
 -256 680 -256 680 -256 737 c 0,22,23
 -256 793 -256 793 -199 835 c 0,24,25
 -144 876 -144 876 -72 876 c 0,26,27
 13 876 13 876 76 824 c 0,28,29
 146 766 146 766 146 660 c 0,30,31
 146 638 146 638 145 628 c 1,32,-1
 224 628 l 1,33,-1
 224 553 l 1,0,-1
EndSplineSet
Validated: 1
EndChar

StartChar: uni0941
Encoding: 162 2369 163
Width: 7
GlyphClass: 2
Flags: W
AnchorPoint: "Anchor-1" -173 6 mark 0
LayerCount: 2
Fore
SplineSet
18 -122 m 0,0,1
 19 -193 19 -193 -48 -236 c 0,2,3
 -104 -272 -104 -272 -180 -272 c 0,4,5
 -308 -272 -308 -272 -395 -162 c 0,6,7
 -437 -108 -437 -108 -473 -5 c 1,8,-1
 -400 -5 l 1,9,10
 -373 -88 -373 -88 -319 -139 c 0,11,12
 -257 -199 -257 -199 -178 -199 c 0,13,14
 -56 -199 -56 -199 -55 -121 c 0,15,16
 -54 -67 -54 -67 -110 -67 c 0,17,18
 -150 -67 -150 -67 -178 -78 c 0,19,20
 -192 -84 -192 -84 -208 -100 c 1,21,-1
 -263 -53 l 1,22,23
 -203 5 -203 5 -118 6 c 0,24,25
 -55 7 -55 7 -19 -26 c 0,26,27
 17 -61 17 -61 18 -122 c 0,0,1
EndSplineSet
Validated: 33
EndChar

StartChar: uni0942
Encoding: 163 2370 164
Width: 4
GlyphClass: 2
Flags: W
AnchorPoint: "Anchor-1" -144 6 mark 0
LayerCount: 2
Fore
SplineSet
167 -262 m 1,0,-1
 94 -262 l 1,1,2
 67 -179 67 -179 13 -127 c 0,3,4
 -49 -67 -49 -67 -128 -67 c 0,5,6
 -250 -67 -250 -67 -251 -145 c 0,7,8
 -252 -199 -252 -199 -196 -199 c 0,9,10
 -156 -199 -156 -199 -128 -188 c 0,11,12
 -115 -184 -115 -184 -98 -167 c 1,13,-1
 -43 -214 l 1,14,15
 -103 -271 -103 -271 -188 -272 c 0,16,17
 -250 -274 -250 -274 -287 -240 c 0,18,19
 -323 -205 -323 -205 -324 -144 c 0,20,21
 -325 -73 -325 -73 -258 -30 c 0,22,23
 -202 6 -202 6 -126 6 c 0,24,25
 4 6 4 6 89 -104 c 0,26,27
 131 -158 131 -158 167 -262 c 1,0,-1
EndSplineSet
Validated: 33
EndChar

StartChar: uni0943
Encoding: 164 2371 165
Width: 7
GlyphClass: 2
Flags: W
AnchorPoint: "Anchor-1" -148 7 mark 0
LayerCount: 2
Fore
SplineSet
-10 -221 m 1,0,1
 -50 -262 -50 -262 -130 -263 c 0,2,3
 -197 -264 -197 -264 -250 -229 c 0,4,5
 -310 -190 -310 -190 -311 -126 c 0,6,7
 -311 -70 -311 -70 -275 -31 c 0,8,9
 -239 6 -239 6 -182 6 c 2,10,-1
 -83 6 l 1,11,-1
 -83 -67 l 1,12,-1
 -169 -67 l 2,13,14
 -236 -67 -236 -67 -238 -122 c 0,15,16
 -239 -156 -239 -156 -204 -174 c 0,17,18
 -176 -190 -176 -190 -140 -190 c 0,19,20
 -106 -190 -106 -190 -79 -178 c 1,21,22
 -77 -176 -77 -176 -49 -160 c 1,23,-1
 -10 -221 l 1,0,1
EndSplineSet
Validated: 33
EndChar

StartChar: uni0944
Encoding: 165 2372 166
Width: 7
GlyphClass: 2
Flags: W
AnchorPoint: "Anchor-1" -122 -32 mark 0
LayerCount: 2
Fore
SplineSet
34 -415 m 1,0,1
 -7 -456 -7 -456 -86 -457 c 0,2,3
 -152 -458 -152 -458 -206 -424 c 0,4,5
 -268 -384 -268 -384 -268 -320 c 0,6,7
 -268 -270.096 -268 -270.096 -239.808 -235.28 c 1,8,9
 -244.965 -232.299 -244.965 -232.299 -250 -229 c 0,10,11
 -310 -190 -310 -190 -311 -126 c 0,12,13
 -311 -70 -311 -70 -275 -31 c 1,14,15
 -239 6 -239 6 -182 6 c 2,16,-1
 -83 6 l 1,17,-1
 -83 -67 l 1,18,-1
 -169 -67 l 2,19,20
 -236 -67 -236 -67 -238 -122 c 0,21,22
 -239 -156 -239 -156 -204 -174 c 1,23,24
 -176 -190 -176 -190 -140 -190 c 1,25,-1
 -117.581 -188.599 l 1,26,27
 -96.7739 -185.9 -96.7739 -185.9 -79 -178 c 1,28,-1
 -49 -160 l 1,29,-1
 -10 -221 l 1,30,31
 -44.2311 -256.087 -44.2311 -256.087 -108 -261.881 c 0,32,-1
 -110.999 -262.136 l 2,33,34
 -120.199 -262.866 -120.199 -262.866 -130 -263 c 0,35,36
 -190.798 -265.764 -190.798 -265.764 -194 -317 c 0,37,38
 -196 -349 -196 -349 -161 -368 c 0,39,40
 -133 -384 -133 -384 -97 -384 c 0,41,42
 -56 -384 -56 -384 -36 -372 c 2,43,-1
 -6 -354 l 1,44,-1
 34 -415 l 1,0,1
EndSplineSet
Validated: 33
EndChar

StartChar: uni0945
Encoding: 166 2373 167
Width: 7
GlyphClass: 4
Flags: W
AnchorPoint: "Anchor-0" -117 630 mark 0
LayerCount: 2
Fore
SplineSet
76 847 m 1,0,1
 76 769 76 769 19 721 c 0,2,3
 -37 673 -37 673 -116 672 c 0,4,5
 -193 671 -193 671 -250 721 c 0,6,7
 -305 772 -305 772 -307 847 c 1,8,-1
 -234 847 l 1,9,10
 -234 803 -234 803 -198 774 c 128,-1,11
 -162 745 -162 745 -116 745 c 0,12,13
 -65 745 -65 745 -32 772 c 0,14,15
 0 798 0 798 1 847 c 1,16,-1
 76 847 l 1,0,1
EndSplineSet
Validated: 33
EndChar

StartChar: uni0946
Encoding: 167 2374 168
Width: 87
GlyphClass: 4
Flags: W
AnchorPoint: "Anchor-0" 91 627 mark 0
LayerCount: 2
Fore
SplineSet
71 626 m 1,0,-1
 6 628 l 1,1,-1
 6 678 l 2,2,3
 6 733 6 733 -44 740 c 0,4,5
 -61 743 -61 743 -78 738 c 0,6,7
 -173 713 -173 713 -191 710 c 0,8,9
 -236 706 -236 706 -268 726 c 0,10,11
 -308 752 -308 752 -308 798 c 2,12,-1
 -308 877 l 1,13,-1
 -241 877 l 1,14,-1
 -241 822 l 2,15,16
 -241 776 -241 776 -200 775 c 0,17,18
 -184 774 -184 774 -116 794 c 0,19,20
 -55 812 -55 812 -17 800 c 0,21,22
 44 781 44 781 64 739 c 0,23,24
 70 727 70 727 70 714 c 2,25,-1
 71 626 l 1,0,-1
EndSplineSet
Validated: 33
EndChar

StartChar: uni0947
Encoding: 168 2375 169
Width: 7
GlyphClass: 2
Flags: W
AnchorPoint: "Anchor-0" -66 597 mark 0
LayerCount: 2
Fore
SplineSet
-78 601 m 1,0,-1
 -155 601 l 1,1,-1
 -397 845 l 1,2,-1
 -335 905 l 1,3,-1
 -78 601 l 1,0,-1
EndSplineSet
Validated: 1
EndChar

StartChar: uni0948
Encoding: 169 2376 170
Width: 7
GlyphClass: 4
Flags: W
AnchorPoint: "Anchor-0" -66 603 mark 0
LayerCount: 2
Fore
SplineSet
-74 602 m 1,0,-1
 -138 602 l 1,1,-1
 -446 760 l 1,2,-1
 -396 816 l 1,3,-1
 -178 680 l 1,4,-1
 -280 895 l 1,5,-1
 -216 931 l 1,6,-1
 -74 602 l 1,0,-1
EndSplineSet
Validated: 1
EndChar

StartChar: uni0949
Encoding: 170 2377 171
Width: 230
GlyphClass: 2
Flags: W
LayerCount: 2
Fore
SplineSet
230 553 m 1,0,-1
 152 553 l 5,1,-1
 152 0 l 5,2,-1
 77 0 l 1,3,-1
 77 553 l 1,4,-1
 0 553 l 1,5,-1
 0 628 l 1,6,-1
 230 628 l 1,7,-1
 230 553 l 1,0,-1
308 860 m 1,8,9
 308 782 308 782 252 734 c 128,-1,10
 196 686 196 686 116 685 c 0,11,12
 40 684 40 684 -17 734 c 0,13,14
 -72 785 -72 785 -74 860 c 1,15,-1
 -1 860 l 1,16,17
 -1 816 -1 816 35 787 c 128,-1,18
 71 758 71 758 116 758 c 0,19,20
 168 758 168 758 200 785 c 0,21,22
 233 811 233 811 234 860 c 1,23,-1
 308 860 l 1,8,9
EndSplineSet
Validated: 33
EndChar

StartChar: uni094A
Encoding: 171 2378 172
Width: 240
GlyphClass: 2
Flags: W
LayerCount: 2
Fore
SplineSet
240 553 m 1,0,-1
 162 553 l 1,1,-1
 162 0 l 1,2,-1
 87 0 l 1,3,-1
 87 553 l 1,4,-1
 0 553 l 1,5,-1
 0 628 l 1,6,-1
 86 628 l 1,7,-1
 86 679 l 2,8,9
 86 735.117 86 735.117 36 741 c 0,10,11
 19 743 19 743 2 739 c 0,12,13
 -92 713 -92 713 -110 711 c 0,14,15
 -156 706 -156 706 -187 727 c 1,16,17
 -228 753 -228 753 -228 799 c 2,18,-1
 -228 878 l 1,19,-1
 -161 878 l 1,20,-1
 -161 823 l 2,21,22
 -161 778.412 -161 778.412 -120 776 c 0,23,24
 -104 775 -104 775 -36 795 c 0,25,26
 25 813 25 813 64 801 c 0,27,28
 122.631 782.738 122.631 782.738 144 740 c 0,29,30
 150 728.306 150 728.306 150 715 c 2,31,-1
 150 628 l 1,32,-1
 240 628 l 1,33,-1
 240 553 l 1,0,-1
EndSplineSet
Validated: 33
EndChar

StartChar: uni094B
Encoding: 172 2379 173
Width: 217
GlyphClass: 2
Flags: W
LayerCount: 2
Fore
SplineSet
217 553 m 1,0,-1
 139 553 l 1,1,-1
 139 0 l 1,2,-1
 64 0 l 1,3,-1
 64 553 l 1,4,-1
 -15 553 l 1,5,-1
 -15 628 l 1,6,-1
 47 628 l 1,7,-1
 -183 859 l 1,8,-1
 -121 919 l 1,9,-1
 125 628 l 1,10,-1
 217 628 l 1,11,-1
 217 553 l 1,0,-1
EndSplineSet
Validated: 1
EndChar

StartChar: uni094C
Encoding: 173 2380 174
Width: 217
GlyphClass: 2
Flags: W
LayerCount: 2
Fore
SplineSet
224 553 m 1,0,-1
 146 553 l 1,1,-1
 146 0 l 1,2,-1
 71 0 l 5,3,-1
 71 553 l 5,4,-1
 -7 553 l 1,5,-1
 -7 628 l 1,6,-1
 60 628 l 1,7,-1
 -217 773 l 1,8,-1
 -167 829 l 1,9,-1
 52 694 l 1,10,-1
 -50 908 l 1,11,-1
 13 944 l 1,12,-1
 140 628 l 1,13,-1
 224 628 l 1,14,-1
 224 553 l 1,0,-1
EndSplineSet
Validated: 1
EndChar

StartChar: uni094D
Encoding: 174 2381 175
Width: 7
GlyphClass: 4
Flags: W
AnchorPoint: "Anchor-1" -153 -24 mark 0
LayerCount: 2
Fore
SplineSet
58 -203 m 1,0,-1
 25 -236 l 1,1,-1
 -166 -26 l 1,2,-1
 -77 -26 l 1,3,-1
 58 -203 l 1,0,-1
EndSplineSet
Validated: 1
EndChar

StartChar: uni094F
Encoding: 175 2383 176
Width: 7
GlyphClass: 2
Flags: W
LayerCount: 2
Fore
SplineSet
92 845 m 1,0,-1
 -78 601 l 1,1,-1
 -155 601 l 1,2,-1
 30 905 l 1,3,-1
 92 845 l 1,0,-1
EndSplineSet
Validated: 1
EndChar

StartChar: uni0950
Encoding: 176 2384 177
Width: 860
GlyphClass: 2
Flags: W
LayerCount: 2
Fore
SplineSet
650 694 m 1,0,-1
 566 694 l 1,1,-1
 566 772 l 1,2,-1
 650 772 l 1,3,-1
 650 694 l 1,0,-1
827 755 m 1,4,5
 827 667 827 667 761 610 c 0,6,7
 696 553 696 553 607 553 c 0,8,9
 520 553 520 553 455 610 c 128,-1,10
 390 667 390 667 390 755 c 1,11,-1
 462 755 l 1,12,13
 462 701 462 701 509 662 c 0,14,15
 552 628 552 628 607 626 c 0,16,17
 653 625 653 625 701 659 c 0,18,19
 754 696 754 696 755 755 c 1,20,-1
 827 755 l 1,4,5
844 230 m 0,21,22
 845 150 845 150 810 91 c 0,23,24
 769 22 769 22 694 22 c 0,25,26
 635 22 635 22 592 72 c 1,27,-1
 624 144 l 1,28,29
 635 128 635 128 644 120 c 0,30,31
 670 95 670 95 694 95 c 0,32,33
 732 95 732 95 754 134 c 0,34,35
 772 167 772 167 772 209 c 0,36,37
 772 362 772 362 689 365 c 0,38,39
 667 365 667 365 598 286 c 0,40,41
 527 205 527 205 452 205 c 2,42,-1
 433 206 l 1,43,-1
 442 180 l 1,44,-1
 444 154 l 2,45,46
 444 78 444 78 402 36 c 0,47,48
 360 -5 360 -5 286 -6 c 0,49,50
 176 -7 176 -7 58 181 c 0,51,52
 22 239 22 239 22 250 c 1,53,-1
 80 284 l 1,54,55
 119 215 119 215 148 176 c 0,56,57
 229 68 229 68 288 67 c 0,58,59
 370 66 370 66 371 154 c 0,60,61
 372 202 372 202 341 230 c 0,62,63
 308 258 308 258 259 259 c 2,64,-1
 235 259 l 1,65,-1
 209 251 l 1,66,-1
 172 324 l 1,67,68
 220 324 220 324 264 348 c 0,69,70
 316 376 316 376 317 420 c 0,71,72
 318 457 318 457 300 482 c 0,73,74
 281 509 281 509 246 510 c 0,75,76
 208 511 208 511 161 475 c 2,77,-1
 122 439 l 1,78,-1
 65 480 l 1,79,80
 65 486 65 486 95 515 c 0,81,82
 167 583 167 583 248 583 c 0,83,84
 311 583 311 583 350.5 535 c 128,-1,85
 390 487 390 487 390 424 c 0,86,87
 390 352 390 352 336 313 c 1,88,-1
 362 304 l 2,89,90
 379 298 379 298 398 286 c 0,91,92
 422 275 422 275 440 275 c 0,93,94
 482 275 482 275 564 355 c 0,95,96
 644 437 644 437 691 438 c 0,97,98
 762 439 762 439 805 373 c 0,99,100
 842 317 842 317 844 230 c 0,21,22
EndSplineSet
Validated: 33
EndChar

StartChar: uni0951
Encoding: 177 2385 178
Width: 16
GlyphClass: 4
Flags: W
AnchorPoint: "Anchor-0" -87 501 mark 0
LayerCount: 2
Fore
SplineSet
-54 842 m 1,0,-1
 -54 536 l 1,1,-1
 -124 536 l 1,2,-1
 -124 841 l 1,3,-1
 -54 842 l 1,0,-1
EndSplineSet
Validated: 1
EndChar

StartChar: uni0952
Encoding: 178 2386 179
Width: 0
GlyphClass: 4
Flags: W
LayerCount: 2
Fore
SplineSet
6 -263 m 1,0,-1
 -557 -263 l 1,1,-1
 -557 -211 l 1,2,-1
 6 -211 l 1,3,-1
 6 -263 l 1,0,-1
EndSplineSet
Validated: 1
EndChar

StartChar: uni0953
Encoding: 179 2387 180
Width: 10
GlyphClass: 4
Flags: W
LayerCount: 2
Fore
SplineSet
407 863 m 1,0,-1
 358 857 l 1,1,2
 312 907 312 907 297 918 c 2,3,-1
 262 934 l 2,4,5
 237 941 237 941 222 948 c 1,6,7
 176 948 176 948 131 924 c 1,8,9
 153 973 153 973 188 1010 c 1,10,-1
 221 1013 l 1,11,12
 293 994 293 994 318 977 c 0,13,14
 339 962 339 962 354 941 c 2,15,-1
 357 938 l 1,16,-1
 358 937 l 1,17,-1
 407 863 l 1,0,-1
EndSplineSet
Validated: 1
EndChar

StartChar: uni0954
Encoding: 180 2388 181
Width: 10
GlyphClass: 4
Flags: HW
LayerCount: 2
Fore
SplineSet
131 863 m 1,0,-1
 180 937 l 1,1,-1
 181 938 l 1,2,-1
 184 941 l 2,3,4
 199 962 199 962 220 977 c 4,5,6
 245 994 245 994 317 1013 c 5,7,-1
 350 1010 l 1,8,9
 385 973 385 973 407 924 c 1,10,11
 362 948 362 948 316 948 c 1,12,13
 301 941 301 941 276 934 c 2,14,-1
 241 918 l 2,15,16
 226 907 226 907 180 857 c 1,17,-1
 131 863 l 1,0,-1
EndSplineSet
Validated: 1
EndChar

StartChar: uni0955
Encoding: 181 2389 182
Width: 13
GlyphClass: 4
Flags: W
LayerCount: 2
Fore
SplineSet
211 776 m 1,0,-1
 120 776 l 1,1,-1
 120 864 l 1,2,-1
 211 864 l 1,3,-1
 211 776 l 1,0,-1
324 798 m 1,4,5
 324 730 324 730 276 686 c 0,6,7
 228 643 228 643 161 643 c 0,8,9
 96 642 96 642 48 686 c 0,10,11
 0 731 0 731 -1 798 c 1,12,-1
 61 798 l 1,13,14
 61 760 61 760 91 733 c 0,15,16
 122 708 122 708 161 708 c 0,17,18
 205 708 205 708 232 731 c 0,19,20
 259 755 259 755 260 798 c 1,21,-1
 324 798 l 1,4,5
EndSplineSet
Validated: 33
Ligature2: "'abvs' Above Base Substitutions in Devanagari lookup 11 subtable" uni0945 uni0902
EndChar

StartChar: uni0958
Encoding: 182 2392 183
Width: 767
GlyphClass: 3
Flags: W
AnchorPoint: "Anchor-1" 394 -6 basechar 0
AnchorPoint: "Anchor-0" 436 624 basechar 0
LayerCount: 2
Fore
SplineSet
209 -66 m 1,0,-1
 133 -66 l 1,1,-1
 133 4 l 1,2,-1
 209 4 l 1,3,-1
 209 -66 l 1,0,-1
EndSplineSet
Refer: 120 2325 N 1 0 0 1 0 0 2
Validated: 32769
LCarets2: 1 0 
Ligature2: "'nukt' Nukta Forms in Devanagari lookup 1 subtable" uni0915 uni093C
EndChar

StartChar: uni0959
Encoding: 183 2393 184
Width: 798
GlyphClass: 3
Flags: W
LayerCount: 2
Fore
SplineSet
420 -144 m 1,0,-1
 344 -144 l 1,1,-1
 344 -75 l 1,2,-1
 420 -75 l 1,3,-1
 420 -144 l 1,0,-1
EndSplineSet
Refer: 121 2326 N 1 0 0 1 0 0 2
Validated: 32769
LCarets2: 1 0 
Ligature2: "'nukt' Nukta Forms in Devanagari lookup 1 subtable" uni0916 uni093C
EndChar

StartChar: uni095A
Encoding: 184 2394 185
Width: 535
GlyphClass: 3
Flags: W
LayerCount: 2
Fore
SplineSet
179 56 m 1,0,-1
 103 56 l 1,1,-1
 103 124 l 1,2,-1
 179 124 l 1,3,-1
 179 56 l 1,0,-1
EndSplineSet
Refer: 122 2327 S 1 0 0 1 0 0 2
Validated: 32769
LCarets2: 1 0 
Ligature2: "'nukt' Nukta Forms in Devanagari lookup 1 subtable" uni0917 uni093C
EndChar

StartChar: uni095B
Encoding: 185 2395 186
Width: 720
GlyphClass: 3
Flags: W
LayerCount: 2
Fore
SplineSet
356 -63 m 1,0,-1
 281 -63 l 1,1,-1
 281 7 l 1,2,-1
 356 7 l 1,3,-1
 356 -63 l 1,0,-1
EndSplineSet
Refer: 127 2332 N 1 0 0 1 0 0 2
Validated: 32769
LCarets2: 1 0 
Ligature2: "'nukt' Nukta Forms in Devanagari lookup 1 subtable" uni091C uni093C
EndChar

StartChar: uni095C
Encoding: 186 2396 187
Width: 626
GlyphClass: 3
Flags: W
AnchorPoint: "Anchor-0" 536 628 basechar 0
LayerCount: 2
Fore
SplineSet
244 -121 m 1,0,-1
 169 -121 l 1,1,-1
 169 -52 l 1,2,-1
 244 -52 l 1,3,-1
 244 -121 l 1,0,-1
EndSplineSet
Refer: 132 2337 N 1 0 0 1 0 0 2
Validated: 32769
LCarets2: 1 0 
Ligature2: "'nukt' Nukta Forms in Devanagari lookup 1 subtable" uni0921 uni093C
EndChar

StartChar: uni095D
Encoding: 187 2397 188
Width: 549
GlyphClass: 3
Flags: W
AnchorPoint: "Anchor-0" 434 630 basechar 0
LayerCount: 2
Fore
SplineSet
314 -139 m 1,0,-1
 239 -139 l 1,1,-1
 239 -70 l 1,2,-1
 314 -70 l 1,3,-1
 314 -139 l 1,0,-1
EndSplineSet
Refer: 133 2338 N 1 0 0 1 0 0 2
Validated: 32769
LCarets2: 1 0 
Ligature2: "'nukt' Nukta Forms in Devanagari lookup 1 subtable" uni0922 uni093C
EndChar

StartChar: uni095E
Encoding: 188 2398 189
Width: 746
GlyphClass: 3
Flags: W
AnchorPoint: "Anchor-1" 372 -8 basechar 0
AnchorPoint: "Anchor-0" 416 628 basechar 0
LayerCount: 2
Fore
SplineSet
244 14 m 1,0,-1
 169 14 l 1,1,-1
 169 83 l 1,2,-1
 244 83 l 1,3,-1
 244 14 l 1,0,-1
EndSplineSet
Refer: 142 2347 N 1 0 0 1 0 0 2
Validated: 32769
LCarets2: 1 0 
Ligature2: "'nukt' Nukta Forms in Devanagari lookup 1 subtable" uni092B uni093C
EndChar

StartChar: uni095F
Encoding: 189 2399 190
Width: 568
GlyphClass: 3
Flags: W
LayerCount: 2
Fore
SplineSet
256 -21 m 1,0,-1
 180 -21 l 1,1,-1
 180 48 l 1,2,-1
 256 48 l 1,3,-1
 256 -21 l 1,0,-1
EndSplineSet
Refer: 146 2351 N 1 0 0 1 0 0 2
Validated: 32769
LCarets2: 1 0 
Ligature2: "'nukt' Nukta Forms in Devanagari lookup 1 subtable" uni092F uni093C
EndChar

StartChar: uni0960
Encoding: 190 2400 191
Width: 921
GlyphClass: 3
Flags: W
LayerCount: 2
Fore
SplineSet
921 553 m 1,0,-1
 533 553 l 1,1,-1
 533 324 l 1,2,-1
 660 378 l 1,3,-1
 658 404 l 1,4,5
 658 480 658 480 726 480 c 0,6,7
 752 480 752 480 768 455 c 1,8,9
 780 433 780 433 780 404 c 0,10,11
 780 359 780 359 750 330 c 1,12,-1
 805 229 l 1,13,14
 763 229 763 229 725 208 c 1,15,16
 682 182 682 182 680 144 c 1,17,18
 680 112 680 112 701 96 c 1,19,20
 720 79 720 79 755 78 c 1,21,-1
 761 78 l 2,22,23
 792 78 792 78 804 84 c 0,24,25
 823 94 823 94 828 124 c 1,26,-1
 886 61 l 1,27,28
 828 4 828 4 748 4 c 0,29,30
 746.162 4 746.162 4 744.347 4.02955 c 0,31,32
 693.734 -2.30587 693.734 -2.30587 692 -50 c 0,33,34
 691 -83 691 -83 726 -102 c 0,35,36
 754 -118 754 -118 790 -118 c 0,37,38
 824 -118 824 -118 851 -106 c 1,39,-1
 881 -88 l 1,40,-1
 920 -149 l 1,41,42
 880 -190 880 -190 800 -191 c 0,43,44
 734 -192 734 -192 680 -157 c 0,45,46
 619 -118 619 -118 619 -54 c 0,47,48
 619 -1.28288 619 -1.28288 650.903 36.369 c 1,49,50
 648.393 38.6071 648.393 38.6071 646 41 c 0,51,52
 608 79 608 79 607 144 c 0,53,54
 606 187 606 187 634 221 c 1,55,56
 660 256 660 256 702 265 c 1,57,-1
 679 307 l 1,58,-1
 533 245 l 1,59,-1
 533 0 l 1,60,-1
 458 0 l 1,61,-1
 458 218 l 1,62,-1
 182 59 l 1,63,-1
 138 118 l 1,64,-1
 401 270 l 1,65,66
 301 380 301 380 270 385 c 1,67,68
 242 385 242 385 162 346 c 0,69,70
 142 336 142 336 86 306 c 1,71,-1
 42 362 l 1,72,73
 48 373 48 373 151 415 c 0,74,75
 255 457 255 457 277 458 c 0,76,77
 308.78 460.05 308.78 460.05 391 384 c 0,78,79
 456.966 320.812 456.966 320.812 458 316 c 1,80,-1
 458 553 l 1,81,-1
 0 553 l 1,82,-1
 0 628 l 1,83,-1
 921 628 l 1,84,-1
 921 553 l 1,0,-1
EndSplineSet
Validated: 33
EndChar

StartChar: uni0961
Encoding: 191 2401 192
Width: 640
GlyphClass: 3
Flags: W
LayerCount: 2
Fore
SplineSet
640 553 m 1,0,-1
 491 553 l 1,1,-1
 491 452 l 1,2,3
 604 426 604 426 605 302 c 0,4,5
 606 239 606 239 550 173 c 0,6,7
 511 128 511 128 467 102 c 1,8,-1
 456 95 l 1,9,10
 437.59 76.5902 437.59 76.5902 437.074 44.6098 c 128,-1,11
 436.559 12.6294 436.559 12.6294 470 -12 c 0,12,13
 491.725 -28 491.725 -28 533.362 -28 c 128,-1,14
 575 -28 575 -28 595 -16 c 2,15,-1
 625 2 l 1,16,-1
 665 -59 l 1,17,18
 618.766 -104.206 618.766 -104.206 545.948 -101.04 c 2,19,-1
 545.028 -101 l 1,20,-1
 530 -101 l 2,21,22
 463 -101 463 -101 462 -156 c 0,23,24
 461.042 -188.579 461.042 -188.579 492.021 -205.789 c 128,-1,25
 523 -223 523 -223 561.5 -223 c 128,-1,26
 600 -223 600 -223 620 -211 c 2,27,-1
 650 -193 l 1,28,-1
 690 -255 l 1,29,30
 649 -295 649 -295 576.5 -296.5 c 128,-1,31
 504 -298 504 -298 447 -260.5 c 128,-1,32
 390 -223 390 -223 389.5 -163 c 0,33,34
 389.006 -103.741 389.006 -103.741 424.117 -66.4291 c 1,35,36
 364 -27.3403 364 -27.3403 364 36 c 0,37,38
 364 100 364 100 403 139 c 2,39,-1
 409 145 l 1,40,41
 451 168 451 168 491 218 c 0,42,43
 530 268 530 268 532 311 c 1,44,45
 533 380 533 380 430 383 c 0,46,47
 401.902 383.911 401.902 383.911 375.5 360 c 128,-1,48
 349 336 349 336 349 304 c 2,49,-1
 349 234 l 1,50,-1
 276 234 l 1,51,-1
 276 318 l 2,52,53
 276 346 276 346 253 364 c 128,-1,54
 230 382 230 382 195.5 383 c 128,-1,55
 161 384 161 384 138 356 c 128,-1,56
 115 328 115 328 115 284 c 0,57,58
 115 208 115 208 186 134 c 1,59,60
 238 82 238 82 269 72 c 1,61,-1
 224 8 l 1,62,63
 164 32 164 32 97 128 c 0,64,65
 43 206 43 206 42 281 c 128,-1,66
 41 356 41 356 85 406 c 0,67,68
 130 456 130 456 194 456 c 0,69,70
 275 456 275 456 319 400 c 1,71,72
 342 451 342 451 418 456 c 1,73,-1
 418 553 l 1,74,-1
 0 553 l 1,75,-1
 0 628 l 1,76,-1
 640 628 l 1,77,-1
 640 553 l 1,0,-1
EndSplineSet
Validated: 33
EndChar

StartChar: uni0962
Encoding: 192 2402 193
Width: 640
GlyphClass: 4
Flags: W
AnchorPoint: "Anchor-0" 412 370 mark 0
LayerCount: 2
Fore
SplineSet
460 364 m 1,0,1
 542.91 345.247 542.91 345.247 545 247 c 0,2,3
 546 200 546 200 510.5 158 c 128,-1,4
 475 116 475 116 442 97 c 1,5,-1
 434 92 l 1,6,7
 421 79 421 79 419 50 c 1,8,9
 420 32 420 32 444 12 c 1,10,11
 465 0 465 0 491.5 0 c 128,-1,12
 518 0 518 0 538 8 c 1,13,-1
 560 22 l 1,14,-1
 590 -24 l 1,15,16
 556 -57 556 -57 501 -55 c 128,-1,17
 446 -53 446 -53 405 -26.5 c 128,-1,18
 364 0 364 0 364 44 c 0,19,20
 364 95 364 95 398 129 c 1,21,22
 430 146 430 146 460 184.5 c 128,-1,23
 490 223 490 223 490 254 c 0,24,25
 491.038 308 491.038 308 414 308 c 0,26,27
 393 308 393 308 373 290 c 128,-1,28
 353 272 353 272 353 248 c 2,29,-1
 353 196 l 1,30,-1
 298 196 l 1,31,-1
 298 259 l 2,32,33
 298 280 298 280 281 293.5 c 128,-1,34
 264 307 264 307 239 307.5 c 128,-1,35
 214 308 214 308 196 287 c 128,-1,36
 178 266 178 266 178 234 c 0,37,38
 178 176 178 176 224 129 c 128,-1,39
 270 82 270 82 293 74 c 1,40,-1
 260 26 l 1,41,42
 214 44 214 44 169 109.5 c 128,-1,43
 124 175 124 175 123 231.5 c 128,-1,44
 122 288 122 288 155 325 c 0,45,46
 189 362 189 362 243.5 362 c 128,-1,47
 298 362 298 362 331 320 c 1,48,49
 350 359 350 359 405 367 c 1,50,-1
 460 364 l 1,0,1
EndSplineSet
Validated: 33
EndChar

StartChar: uni0963
Encoding: 193 2403 194
Width: 640
GlyphClass: 4
Flags: W
AnchorPoint: "Anchor-0" 416 370 basechar 0
LayerCount: 2
Fore
SplineSet
460 364 m 1,0,1
 542.91 345.247 542.91 345.247 545 247 c 0,2,3
 546 200 546 200 504 150 c 0,4,5
 475 116 475 116 442 97 c 1,6,-1
 434 92 l 1,7,-1
 433 91 l 2,8,9
 421 79 421 79 419 50 c 1,10,11
 420 32 420 32 444 12 c 1,12,13
 465 0 465 0 492 0 c 0,14,15
 518 0 518 0 538 8 c 1,16,-1
 560 22 l 1,17,-1
 590 -24 l 1,18,19
 556.594 -56.4084 556.594 -56.4084 501.952 -55 c 0,20,21
 500.552 -54.9825 500.552 -54.9825 500 -55 c 2,22,-1
 489 -55 l 2,23,24
 439 -55 439 -55 438 -96 c 0,25,26
 437.051 -120.666 437.051 -120.666 464 -135 c 0,27,28
 486.56 -147 486.56 -147 511 -147 c 0,29,30
 538.308 -147 538.308 -147 556 -137 c 2,31,-1
 579 -124 l 1,32,-1
 609 -171 l 1,33,34
 578 -201 578 -201 519 -202 c 0,35,36
 470 -203 470 -203 429 -177 c 1,37,38
 384 -147 384 -147 383 -99 c 0,39,40
 383 -57.8987 383 -57.8987 408.857 -29.247 c 1,41,42
 364 0.600153 364 0.600153 364 48 c 0,43,44
 364 88 364 88 394 125 c 1,45,-1
 398 129 l 1,46,47
 430 146 430 146 460 184 c 0,48,49
 490 223 490 223 490 254 c 0,50,51
 491.038 308 491.038 308 414 308 c 0,52,53
 393 308 393 308 373 290 c 128,-1,54
 353 272 353 272 353 248 c 2,55,-1
 353 196 l 1,56,-1
 298 196 l 1,57,-1
 298 259 l 2,58,59
 298 280 298 280 281 293.5 c 128,-1,60
 264 307 264 307 244 308 c 1,61,62
 214 308 214 308 195 287 c 1,63,64
 178 266 178 266 178 234 c 0,65,66
 178 176 178 176 231 121 c 1,67,68
 270 82 270 82 293 74 c 1,69,-1
 260 26 l 1,70,71
 214 44 214 44 164 116 c 0,72,73
 124 175 124 175 123 238 c 0,74,75
 122 288 122 288 155 325 c 0,76,77
 189 362 189 362 237 362 c 0,78,79
 298 362 298 362 331 320 c 1,80,81
 350 359 350 359 405 367 c 1,82,-1
 460 364 l 1,0,1
EndSplineSet
Validated: 33
EndChar

StartChar: uni0964
Encoding: 194 2404 195
Width: 691
GlyphClass: 2
Flags: W
LayerCount: 2
Fore
SplineSet
449 585 m 1,0,-1
 449 -98 l 1,1,-1
 380 -28 l 1,2,-1
 380 655 l 1,3,-1
 449 585 l 1,0,-1
EndSplineSet
Validated: 1
EndChar

StartChar: uni0965
Encoding: 195 2405 196
Width: 691
GlyphClass: 2
Flags: W
LayerCount: 2
Fore
SplineSet
313 601 m 1,0,-1
 313 -82 l 1,1,-1
 244 -12 l 1,2,-1
 244 671 l 1,3,-1
 313 601 l 1,0,-1
530 601 m 1,4,-1
 530 -82 l 1,5,-1
 460 -12 l 1,6,-1
 460 671 l 1,7,-1
 530 601 l 1,4,-1
EndSplineSet
Validated: 1
EndChar

StartChar: uni0966
Encoding: 196 2406 197
Width: 589
GlyphClass: 2
Flags: W
LayerCount: 2
Fore
SplineSet
496 302 m 0,0,1
 496 217 496 217 437 156 c 0,2,3
 379 97 379 97 293 95 c 0,4,5
 206 94 206 94 149 156 c 0,6,7
 92 216 92 216 92 302 c 0,8,9
 90 392 90 392 148 450 c 0,10,11
 203 508 203 508 293 510 c 0,12,13
 376 512 376 512 436 449 c 0,14,15
 496 385 496 385 496 302 c 0,0,1
421 305 m 0,16,17
 422 358 422 358 383 396 c 0,18,19
 342 434 342 434 293 434 c 0,20,21
 233 437 233 437 200 398 c 0,22,23
 167 361 167 361 167 301 c 0,24,25
 167 246 167 246 202 208 c 0,26,27
 238 169 238 169 293 169 c 128,-1,28
 348 169 348 169 384 210 c 0,29,30
 421 251 421 251 421 305 c 0,16,17
EndSplineSet
Validated: 33
EndChar

StartChar: uni0967
Encoding: 197 2407 198
Width: 589
GlyphClass: 2
Flags: W
LayerCount: 2
Fore
SplineSet
458 4 m 5,0,-1
 383 4 l 5,1,-1
 383 323 l 1,2,3
 346 294 346 294 289 294 c 0,4,5
 214 294 214 294 167 340 c 0,6,7
 119 384 119 384 116 457 c 0,8,9
 116 526 116 526 167 575 c 0,10,11
 217 628 217 628 284 628 c 0,12,13
 362 629 362 629 410 574 c 0,14,15
 458 518 458 518 458 438 c 2,16,-1
 458 4 l 5,0,-1
284 368 m 0,17,18
 383 368 383 368 383 462 c 0,19,20
 383 498 383 498 352 526 c 0,21,22
 318 553 318 553 284 553 c 0,23,24
 251 553 251 553 222 523 c 0,25,26
 192 493 192 493 192 461 c 0,27,28
 190 420 190 420 216 394 c 128,-1,29
 242 368 242 368 284 368 c 0,17,18
EndSplineSet
Validated: 33
EndChar

StartChar: uni0968
Encoding: 198 2408 199
Width: 589
GlyphClass: 2
Flags: W
LayerCount: 2
Fore
SplineSet
510 425 m 0,0,1
 512 324 512 324 442 250 c 0,2,3
 400 206 400 206 343 184 c 1,4,-1
 473 -26 l 1,5,-1
 412 -70 l 1,6,-1
 269 158 l 1,7,-1
 254 154 l 2,8,9
 238 154 238 154 232 152 c 1,10,11
 193 152 193 152 162 169 c 0,12,13
 127 191 127 191 125 227 c 0,14,15
 125 281 125 281 192 284 c 0,16,17
 253 284 253 284 301 236 c 1,18,19
 335 246 335 246 376 290 c 0,20,21
 434 352 434 352 437 425 c 0,22,23
 437 484 437 484 395 517 c 0,24,25
 354 551 354 551 293 553 c 0,26,27
 252 553 252 553 196 529 c 0,28,29
 179 523 179 523 142 505 c 1,30,-1
 90 560 l 1,31,32
 116 583 116 583 187 608 c 0,33,34
 245 628 245 628 290 628 c 0,35,36
 377 629 377 629 444 571 c 0,37,38
 509 512 509 512 510 425 c 0,0,1
EndSplineSet
Validated: 33
EndChar

StartChar: uni0969
Encoding: 199 2409 200
Width: 589
GlyphClass: 2
Flags: W
LayerCount: 2
Fore
SplineSet
200 325 m 1,0,-1
 155 401 l 1,1,-1
 264 401 l 2,2,3
 379 401 379 401 379 480 c 0,4,5
 379 550 379 550 274 553 c 0,6,7
 238 553 238 553 191 539 c 0,8,9
 150 524 150 524 148 508 c 1,10,-1
 102 576 l 1,11,-1
 166 602 l 2,12,13
 235 628 235 628 281 628 c 0,14,15
 353 628 353 628 402 593 c 0,16,17
 455 551 455 551 455 482 c 0,18,19
 455 432 455 432 431 398 c 0,20,21
 419 378 419 378 389 362 c 1,22,23
 436 344 436 344 467 304 c 0,24,25
 497 262 497 262 498 212 c 0,26,27
 498 143 498 143 456 96 c 0,28,29
 412 48 412 48 344 36 c 1,30,-1
 426 -83 l 1,31,-1
 370 -132 l 1,32,-1
 256 31 l 1,33,34
 138 46 138 46 138 110 c 0,35,36
 136 173 136 173 193 174 c 0,37,38
 220 175 220 175 254 154 c 0,39,40
 288 132 288 132 306 100 c 1,41,42
 350 100 350 100 385 133 c 0,43,44
 422 168 422 168 422 210 c 0,45,46
 424 258 424 258 367 294 c 0,47,48
 318 325 318 325 266 325 c 2,49,-1
 200 325 l 1,0,-1
EndSplineSet
Validated: 33
EndChar

StartChar: uni096A
Encoding: 200 2410 201
Width: 589
GlyphClass: 2
Flags: W
LayerCount: 2
Fore
SplineSet
522 509 m 0,0,1
 523 454 523 454 455 386 c 0,2,3
 421 354 421 354 362 314 c 1,4,5
 401 283 401 283 424 257 c 0,6,7
 472 202 472 202 472 151 c 0,8,9
 472 82 472 82 420 42 c 0,10,11
 372 4 372 4 302 4 c 0,12,13
 234 4 234 4 186 44 c 0,14,15
 138 85 138 85 138 154 c 0,16,17
 138 202 138 202 181 256 c 0,18,19
 204 284 204 284 242 316 c 1,20,21
 146 384 146 384 121 412 c 0,22,23
 80 462 80 462 80 511 c 0,24,25
 79 550 79 550 112 590 c 0,26,27
 137 617 137 617 150 624 c 1,28,-1
 214 587 l 1,29,30
 198 583 198 583 176 551 c 0,31,32
 157 518 157 518 155 502 c 0,33,34
 154 478 154 478 224 418 c 0,35,36
 275 377 275 377 302 362 c 1,37,38
 347 391 347 391 378 418 c 0,39,40
 446 473 446 473 448 509 c 0,41,42
 448 522 448 522 432 548 c 0,43,44
 412 576 412 576 397 599 c 1,45,-1
 467 628 l 1,46,47
 482 610 482 610 494 590 c 0,48,49
 522 542 522 542 522 509 c 0,0,1
397 156 m 0,50,51
 397 214 397 214 307 272 c 1,52,53
 278 252 278 252 242 211 c 0,54,55
 212 180 212 180 212 156 c 0,56,57
 212 79 212 79 302 79 c 0,58,59
 397 79 397 79 397 156 c 0,50,51
EndSplineSet
Validated: 33
EndChar

StartChar: uni096B
Encoding: 201 2411 202
Width: 589
GlyphClass: 2
Flags: W
LayerCount: 2
Fore
SplineSet
548 -4 m 1,0,-1
 469 -4 l 1,1,-1
 391 246 l 1,2,3
 379 238 379 238 364 229 c 0,4,5
 324 214 324 214 296 214 c 0,6,7
 208 212 208 212 154 275 c 0,8,9
 107 332 107 332 104 426 c 0,10,11
 103 482 103 482 134 564 c 0,12,13
 146 596 146 596 164 629 c 1,14,-1
 233 594 l 1,15,16
 210 574 210 574 194 514 c 0,17,18
 180 460 180 460 180 424 c 0,19,20
 180 365 180 365 209 329 c 0,21,22
 241 289 241 289 298 289 c 0,23,24
 325 287 325 287 341 294 c 0,25,26
 356 301 356 301 364 308 c 1,27,28
 358 318 358 318 350 349 c 0,29,30
 344 385 344 385 344 396 c 0,31,32
 344 493 344 493 403 494 c 0,33,34
 437 494 437 494 457 467 c 0,35,36
 481 437 481 437 481 403 c 0,37,38
 484 334 484 334 458 286 c 1,39,-1
 548 -4 l 1,0,-1
EndSplineSet
Validated: 33
EndChar

StartChar: uni096C
Encoding: 202 2412 203
Width: 589
GlyphClass: 2
Flags: W
LayerCount: 2
Fore
SplineSet
311 308 m 2,0,1
 266 308 266 308 233 272 c 0,2,3
 200 238 200 238 198 192 c 0,4,5
 197 160 197 160 220 134 c 0,6,7
 241 109 241 109 275 100 c 0,8,9
 290 95 290 95 312 95 c 0,10,11
 340 95 340 95 352 104 c 1,12,13
 352 108 352 108 349 134 c 0,14,15
 349 222 349 222 415 222 c 0,16,17
 475 222 475 222 476 150 c 0,18,19
 478 118 478 118 466 96 c 0,20,21
 449 71 449 71 438 60 c 1,22,-1
 496 -71 l 1,23,-1
 427 -106 l 1,24,-1
 370 28 l 1,25,26
 359 28 359 28 343 23 c 0,27,28
 325 19 325 19 317 19 c 0,29,30
 236 19 236 19 180 68 c 0,31,32
 125 118 125 118 122 194 c 0,33,34
 122 293 122 293 210 343 c 1,35,36
 106 397 106 397 104 490 c 0,37,38
 102 551 102 551 156 592 c 0,39,40
 208 628 208 628 269 628 c 0,41,42
 341 629 341 629 377 614 c 1,43,-1
 394 544 l 1,44,45
 352 553 352 553 280 553 c 0,46,47
 246 553 246 553 215 536 c 0,48,49
 180 518 180 518 180 484 c 0,50,51
 178 452 178 452 226 416 c 0,52,53
 272 383 272 383 305 383 c 2,54,-1
 379 383 l 1,55,-1
 403 308 l 1,56,-1
 311 308 l 2,0,1
EndSplineSet
Validated: 33
EndChar

StartChar: uni096D
Encoding: 203 2413 204
Width: 589
GlyphClass: 2
Flags: W
LayerCount: 2
Fore
SplineSet
448 372 m 2,0,1
 453.273 414.182 453.273 414.182 439 457 c 0,2,3
 423.667 503 423.667 503 376 503 c 0,4,5
 320.568 503 320.568 503 318 408 c 0,6,7
 316.552 354.416 316.552 354.416 350 319 c 0,8,9
 384 283 384 283 438 275 c 1,10,11
 442.856 330.847 442.856 330.847 445 348 c 2,12,-1
 448 372 l 2,0,1
522 370 m 0,13,14
 526 8 526 8 286 6 c 0,15,16
 107 4 107 4 49 313 c 0,17,18
 30 416 30 416 30 533 c 0,19,20
 30 565 30 565 31 576 c 1,21,22
 31 598 31 598 35 618 c 1,23,-1
 104 618 l 1,24,-1
 104 586 l 2,25,26
 104 409 104 409 131 292 c 1,27,28
 174 82 174 82 287 82 c 0,29,30
 401 82 401 82 424 210 c 1,31,32
 346 210 346 210 295 269 c 1,33,34
 246 329 246 329 246 408 c 0,35,36
 246 473 246 473 278 521 c 1,37,38
 317 577 317 577 378 577 c 0,39,40
 452 577 452 577 492 508 c 1,41,42
 522 452 522 452 522 370 c 0,13,14
EndSplineSet
Validated: 33
EndChar

StartChar: uni096E
Encoding: 204 2414 205
Width: 589
GlyphClass: 2
Flags: W
LayerCount: 2
Fore
SplineSet
469 182 m 1,0,1
 451 8 451 8 298 6 c 0,2,3
 226 4 226 4 180 42 c 0,4,5
 133 78 133 78 133 150 c 0,6,7
 133 191 133 191 149 239 c 2,8,-1
 275 626 l 1,9,-1
 354 626 l 1,10,-1
 221 222 l 2,11,12
 206 178 206 178 206 151 c 0,13,14
 206 82 206 82 298 82 c 0,15,16
 394 79 394 79 394 182 c 1,17,-1
 469 182 l 1,0,1
EndSplineSet
Validated: 33
EndChar

StartChar: uni096F
Encoding: 205 2415 206
Width: 589
GlyphClass: 2
Flags: W
LayerCount: 2
Fore
SplineSet
469 473 m 0,0,1
 469 398 469 398 415 349 c 0,2,3
 360 302 360 302 283 301 c 1,4,-1
 440 31 l 2,5,6
 452 6 452 6 454 -16 c 0,7,8
 455 -46 455 -46 430 -70 c 0,9,10
 406 -94 406 -94 374 -94 c 0,11,12
 353 -94 353 -94 346 -79 c 0,13,14
 338 -67 338 -67 361 -56 c 0,15,16
 383 -47 383 -47 385 -32 c 0,17,18
 385 -22 385 -22 376 -6 c 2,19,-1
 149 388 l 2,20,21
 143 398 143 398 140 412 c 0,22,23
 132 445 132 445 132 469 c 0,24,25
 128 562 128 562 217 612 c 0,26,27
 246 628 246 628 288 628 c 0,28,29
 334 629 334 629 379 607 c 0,30,31
 426 584 426 584 446 548 c 0,32,33
 469 511 469 511 469 473 c 0,0,1
395 467 m 0,34,35
 395 506 395 506 370 529 c 0,36,37
 342 553 342 553 304 553 c 0,38,39
 208 553 208 553 208 462 c 0,40,41
 208 415 208 415 235 398 c 0,42,43
 254 385 254 385 305 383 c 0,44,45
 343 383 343 383 367 406 c 0,46,47
 392 430 392 430 395 467 c 0,34,35
EndSplineSet
Validated: 33
EndChar

StartChar: uni0970
Encoding: 206 2416 207
Width: 374
GlyphClass: 2
Flags: W
LayerCount: 2
Fore
SplineSet
179 283 m 2,0,1
 227 283 227 283 259 254 c 2,2,-1
 268 248 l 2,3,4
 304 215 304 215 304 163 c 0,5,6
 304 142 304 142 293 126 c 2,7,-1
 282 115 l 1,8,-1
 281 114 l 2,9,10
 257 88 257 88 236 84 c 2,11,-1
 226 83 l 2,12,13
 182 83 182 83 155 103 c 2,14,-1
 142 116 l 2,15,16
 109 150 109 150 109 204 c 0,17,18
 109 230 109 230 127 254 c 1,19,-1
 127 256 l 1,20,-1
 128 256 l 1,21,-1
 130 258 l 2,22,23
 148 281 148 281 169 282 c 2,24,-1
 179 283 l 2,0,1
191 112 m 0,25,26
 236 112 236 112 254 128 c 0,27,28
 277 148 277 148 277 191 c 0,29,30
 277 218 277 218 262 235 c 0,31,32
 244 253 244 253 218 253 c 0,33,34
 179 253 179 253 166 245 c 2,35,-1
 156 238 l 2,36,37
 134 216 134 216 134 170 c 0,38,39
 134 148 134 148 151 128 c 0,40,41
 168 112 168 112 191 112 c 0,25,26
EndSplineSet
Validated: 1
EndChar

StartChar: uni0971
Encoding: 207 2417 208
Width: 217
GlyphClass: 3
Flags: W
LayerCount: 2
Fore
SplineSet
224 553 m 1,0,-1
 145 553 l 1,1,-1
 145 0 l 1,2,-1
 70 0 l 1,3,-1
 70 553 l 1,4,-1
 -7 553 l 1,5,-1
 -7 628 l 1,6,-1
 60 628 l 1,7,-1
 -217 773 l 1,8,-1
 -167 829 l 1,9,-1
 52 694 l 1,10,-1
 -50 908 l 1,11,-1
 13 944 l 1,12,-1
 140 628 l 1,13,-1
 224 628 l 1,14,-1
 224 553 l 1,0,-1
264 734 m 1,15,-1
 132 734 l 1,16,-1
 132 857 l 1,17,-1
 264 857 l 1,18,-1
 264 734 l 1,15,-1
EndSplineSet
Validated: 1
LCarets2: 1 0 
Ligature2: "'abvs' Above Base Substitutions in Devanagari lookup 11 subtable" uni094C uni0902
EndChar

StartChar: uni0972
Encoding: 208 2418 209
Width: 217
GlyphClass: 3
Flags: W
LayerCount: 2
Fore
SplineSet
228 734 m 1,0,-1
 96 734 l 1,1,-1
 96 857 l 1,2,-1
 228 857 l 1,3,-1
 228 734 l 1,0,-1
224 553 m 1,4,-1
 145 553 l 1,5,-1
 145 0 l 1,6,-1
 70 0 l 1,7,-1
 70 553 l 1,8,-1
 -7 553 l 1,9,-1
 -7 628 l 1,10,-1
 55 628 l 1,11,-1
 -175 859 l 1,12,-1
 -113 919 l 1,13,-1
 133 628 l 1,14,-1
 224 628 l 1,15,-1
 224 553 l 1,4,-1
EndSplineSet
Validated: 1
LCarets2: 1 0 
Ligature2: "'abvs' Above Base Substitutions in Devanagari lookup 11 subtable" uni094B uni0902
EndChar

StartChar: uni0973
Encoding: 209 2419 210
Width: 217
GlyphClass: 3
Flags: W
LayerCount: 2
Fore
SplineSet
768 686 m 1,0,-1
 636 686 l 1,1,-1
 636 809 l 1,2,-1
 768 809 l 1,3,-1
 768 686 l 1,0,-1
656 628 m 1,4,-1
 570 628 l 1,5,6
 570 635 570 635 518 683 c 0,7,8
 471.144 727.153 471.144 727.153 391 775 c 0,9,10
 324 815 324 815 234 815 c 0,11,12
 125 815 125 815 125 702 c 0,13,14
 125 676 125 676 132 652 c 2,15,-1
 139 628 l 1,16,-1
 224 628 l 1,17,-1
 224 553 l 1,18,-1
 146 553 l 1,19,-1
 146 0 l 1,20,-1
 71 0 l 5,21,-1
 71 553 l 5,22,-1
 -7 553 l 1,23,-1
 -7 628 l 1,24,-1
 70 628 l 1,25,26
 52 682 52 682 52 708 c 0,27,28
 52 785 52 785 103 835 c 0,29,30
 156 887 156 887 241 888 c 0,31,32
 346 889 346 889 440 830 c 0,33,34
 548 763 548 763 656 628 c 1,4,-1
EndSplineSet
Validated: 33
LCarets2: 1 0 
Ligature2: "'abvs' Above Base Substitutions in Devanagari lookup 11 subtable" uni093F uni0902
EndChar

StartChar: uni0974
Encoding: 210 2420 211
Width: 217
GlyphClass: 3
Flags: W
LayerCount: 2
Fore
SplineSet
312 710 m 1,0,-1
 180 710 l 1,1,-1
 180 833 l 1,2,-1
 312 833 l 1,3,-1
 312 710 l 1,0,-1
224 553 m 1,4,-1
 146 553 l 1,5,-1
 146 0 l 1,6,-1
 71 0 l 5,7,-1
 71 553 l 5,8,-1
 -7 553 l 1,9,-1
 -7 628 l 1,10,-1
 74 628 l 1,11,12
 77 649 77 649 77 659 c 0,13,14
 77 727.925 77 727.925 26 770 c 0,15,16
 -14 803 -14 803 -70 803 c 0,17,18
 -110 803 -110 803 -144 785 c 0,19,20
 -181 764 -181 764 -182 732 c 0,21,22
 -182 688 -182 688 -134 628 c 1,23,-1
 -214 628 l 1,24,25
 -256 680 -256 680 -256 737 c 0,26,27
 -256 793 -256 793 -199 835 c 0,28,29
 -144 876 -144 876 -72 876 c 0,30,31
 13 876 13 876 76 824 c 0,32,33
 146 766 146 766 146 660 c 0,34,35
 146 638 146 638 145 628 c 1,36,-1
 224 628 l 1,37,-1
 224 553 l 1,4,-1
EndSplineSet
Validated: 1
LCarets2: 1 0 
Ligature2: "'abvs' Above Base Substitutions in Devanagari lookup 11 subtable" uni0940 uni0902
EndChar

StartChar: uni0975
Encoding: 211 2421 212
Width: 217
GlyphClass: 3
Flags: W
LayerCount: 2
Fore
SplineSet
720 839 m 1,0,-1
 650 852 l 2,1,2
 582.166 864.598 582.166 864.598 581 776 c 0,3,4
 579.84 720.315 579.84 720.315 623 668 c 2,5,-1
 656 628 l 1,6,-1
 570 628 l 1,7,8
 570 635 570 635 518 683 c 0,9,10
 464.401 732.902 464.401 732.902 391 775 c 0,11,12
 321.256 815 321.256 815 234 815 c 0,13,14
 125 815 125 815 125 702 c 0,15,16
 125 676 125 676 132 652 c 2,17,-1
 139 628 l 1,18,-1
 224 628 l 1,19,-1
 224 553 l 1,20,-1
 146 553 l 5,21,-1
 146 0 l 5,22,-1
 71 0 l 1,23,-1
 71 553 l 1,24,-1
 -7 553 l 1,25,-1
 -7 628 l 1,26,-1
 70 628 l 1,27,28
 52 682 52 682 52 708 c 0,29,30
 52 785 52 785 103 835 c 0,31,32
 156 887 156 887 241 888 c 0,33,34
 347 889 347 889 440 830 c 0,35,36
 490 799 490 799 521 773 c 1,37,38
 517 802 517 802 517 800 c 1,39,40
 517 854.286 517 854.286 557 884 c 0,41,42
 592 910 592 910 648 911 c 0,43,44
 688 912 688 912 720 899 c 1,45,-1
 720 839 l 1,0,-1
EndSplineSet
Validated: 33
LCarets2: 1 0 
Ligature2: "'abvs' Above Base Substitutions in Devanagari lookup 11 subtable" uni093F uni0930_uni094D.rphf
EndChar

StartChar: uni0976
Encoding: 212 2422 213
Width: 217
GlyphClass: 3
Flags: W
LayerCount: 2
Fore
SplineSet
742 702 m 1,0,-1
 659 702 l 1,1,-1
 659 778 l 1,2,-1
 742 778 l 1,3,-1
 742 702 l 1,0,-1
720 839 m 1,4,-1
 650 852 l 2,5,6
 582.166 864.598 582.166 864.598 581 776 c 0,7,8
 579.84 720.315 579.84 720.315 623 668 c 2,9,-1
 656 628 l 1,10,-1
 570 628 l 1,11,12
 570 635 570 635 518 683 c 0,13,14
 464.401 732.902 464.401 732.902 391 775 c 0,15,16
 321.256 815 321.256 815 234 815 c 0,17,18
 125 815 125 815 125 702 c 0,19,20
 125 676 125 676 132 652 c 2,21,-1
 139 628 l 1,22,-1
 224 628 l 1,23,-1
 224 553 l 1,24,-1
 146 553 l 1,25,-1
 146 0 l 1,26,-1
 71 0 l 1,27,-1
 71 553 l 1,28,-1
 -7 553 l 1,29,-1
 -7 628 l 1,30,-1
 70 628 l 1,31,32
 52 682 52 682 52 708 c 0,33,34
 52 785 52 785 103 835 c 0,35,36
 156 887 156 887 241 888 c 0,37,38
 347 889 347 889 440 830 c 0,39,40
 490 799 490 799 521 773 c 1,41,42
 517 802 517 802 517 800 c 1,43,44
 517 854.286 517 854.286 557 884 c 0,45,46
 592 910 592 910 648 911 c 0,47,48
 688 912 688 912 720 899 c 1,49,-1
 720 839 l 1,4,-1
EndSplineSet
Validated: 33
LCarets2: 1 0 
Ligature2: "'abvs' Above Base Substitutions in Devanagari lookup 11 subtable" uni093F glyph359
EndChar

StartChar: uni2010
Encoding: 215 8208 216
Width: 600
GlyphClass: 2
Flags: W
LayerCount: 2
Fore
SplineSet
482 287 m 1,0,-1
 88 287 l 1,1,-1
 88 353 l 1,2,-1
 482 353 l 1,3,-1
 482 287 l 1,0,-1
EndSplineSet
Validated: 1
EndChar

StartChar: endash
Encoding: 216 8211 217
Width: 450
GlyphClass: 2
Flags: W
LayerCount: 2
Fore
SplineSet
1860 0 m 1,0,-1
 210 0 l 1,1,-1
 210 0 l 1,2,-1
 1860 0 l 1,3,-1
 1860 0 l 1,0,-1
EndSplineSet
Validated: 1
EndChar

StartChar: emdash
Encoding: 217 8212 218
Width: 600
GlyphClass: 2
Flags: W
LayerCount: 2
Fore
SplineSet
522 287 m 1,0,-1
 42 287 l 1,1,-1
 42 353 l 1,2,-1
 522 353 l 1,3,-1
 522 287 l 1,0,-1
EndSplineSet
Validated: 1
EndChar

StartChar: quoteleft
Encoding: 218 8216 219
Width: 244
GlyphClass: 2
Flags: W
LayerCount: 2
Fore
SplineSet
190 536 m 1,0,-1
 72 536 l 1,1,-1
 72 631 l 2,2,3
 72 762 72 762 190 782 c 1,4,-1
 190 738 l 1,5,6
 130 731 130 731 130 640 c 1,7,-1
 190 640 l 1,8,-1
 190 536 l 1,0,-1
EndSplineSet
Validated: 1
EndChar

StartChar: quoteright
Encoding: 219 8217 220
Width: 243
GlyphClass: 2
Flags: W
LayerCount: 2
Fore
SplineSet
200 570 m 0,0,1
 200 533 200 533 77 432 c 1,2,-1
 77 484 l 1,3,-1
 124 539 l 1,4,-1
 124 566 l 1,5,-1
 89 616 l 1,6,-1
 144 671 l 1,7,8
 199 622 199 622 200 570 c 0,0,1
EndSplineSet
Validated: 1
EndChar

StartChar: quotesinglbase
Encoding: 220 8218 221
Width: 399
GlyphClass: 2
Flags: W
LayerCount: 2
Fore
SplineSet
362 766 m 1,0,-1
 397 766 l 1,1,2
 383 713 383 713 366 688 c 0,3,4
 332 638 332 638 271 638 c 0,5,6
 241 638 241 638 210 650 c 0,7,8
 204 653 204 653 174 667 c 2,9,-1
 146 680 l 2,10,11
 132 688 132 688 123 691 c 128,-1,12
 114 694 114 694 102 694 c 0,13,14
 72 694 72 694 55 674 c 0,15,16
 44 662 44 662 36 638 c 1,17,-1
 1 638 l 1,18,19
 10 686 10 686 37 719 c 0,20,21
 72 760 72 760 127 760 c 0,22,23
 164 760 164 760 206 738 c 2,24,-1
 235 724 l 2,25,26
 244 720 244 720 263 713 c 0,27,28
 283 706 283 706 293 706 c 0,29,30
 318 706 318 706 332.5 718 c 128,-1,31
 347 730 347 730 362 766 c 1,0,-1
EndSplineSet
Validated: 1
EndChar

StartChar: quotedblleft
Encoding: 221 8220 222
Width: 532
GlyphClass: 2
Flags: W
LayerCount: 2
Fore
SplineSet
186 811 m 1,0,-1
 197 788 l 1,1,2
 144 755 144 755 118 714 c 0,3,4
 98 684 98 684 98 661 c 0,5,6
 98 644 98 644 115 644 c 2,7,-1
 126 647 l 1,8,-1
 144 649 l 2,9,10
 173 649 173 649 196 635 c 0,11,12
 218 622 218 622 218 589 c 0,13,14
 218 553 218 553 197 536 c 0,15,16
 176 520 176 520 149 520 c 0,17,18
 115 520 115 520 90 539 c 0,19,20
 52 569 52 569 52 635 c 0,21,22
 52 691 52 691 104 750 c 0,23,24
 149 799 149 799 186 811 c 1,0,-1
464 811 m 1,25,-1
 475 788 l 1,26,27
 422 755 422 755 396 714 c 0,28,29
 377 684 377 684 377 661 c 0,30,31
 377 644 377 644 394 644 c 2,32,-1
 404 647 l 1,33,-1
 422 649 l 2,34,35
 451 649 451 649 474 635 c 0,36,37
 497 622 497 622 497 589 c 0,38,39
 497 553 497 553 476 536 c 0,40,41
 455 520 455 520 427 520 c 0,42,43
 394 520 394 520 368 539 c 0,44,45
 330 569 330 569 330 635 c 0,46,47
 330 691 330 691 383 750 c 0,48,49
 427 799 427 799 464 811 c 1,25,-1
EndSplineSet
Validated: 1
EndChar

StartChar: quotedblright
Encoding: 222 8221 223
Width: 532
GlyphClass: 2
Flags: W
LayerCount: 2
Fore
SplineSet
68 520 m 1,0,-1
 58 542 l 1,1,2
 110 576 110 576 137 617 c 0,3,4
 156 647 156 647 156 670 c 0,5,6
 156 686 156 686 139 686 c 2,7,-1
 128 684 l 1,8,-1
 110 682 l 2,9,10
 82 682 82 682 62 694 c 0,11,12
 36 709 36 709 36 742 c 0,13,14
 36 778 36 778 57 794 c 0,15,16
 78 811 78 811 106 811 c 0,17,18
 139 811 139 811 164 792 c 0,19,20
 203 762 203 762 203 696 c 0,21,22
 203 640 203 640 150 581 c 0,23,24
 106 532 106 532 68 520 c 1,0,-1
347 520 m 1,25,-1
 336 542 l 1,26,27
 389 576 389 576 415 617 c 0,28,29
 434 647 434 647 434 670 c 0,30,31
 434 686 434 686 418 686 c 2,32,-1
 407 684 l 1,33,-1
 389 682 l 2,34,35
 360 682 360 682 341 694 c 0,36,37
 314 709 314 709 314 742 c 0,38,39
 314 778 314 778 335 794 c 0,40,41
 356 811 356 811 384 811 c 0,42,43
 418 811 418 811 443 792 c 0,44,45
 481 762 481 762 481 696 c 0,46,47
 481 640 481 640 428 581 c 0,48,49
 384 532 384 532 347 520 c 1,25,-1
EndSplineSet
Validated: 1
EndChar

StartChar: quotedblbase
Encoding: 223 8222 224
Width: 399
GlyphClass: 2
Flags: W
LayerCount: 2
Fore
SplineSet
232 608 m 1,0,-1
 184 608 l 1,1,-1
 360 786 l 2,2,3
 379 805 379 805 389 809 c 0,4,5
 398 814 398 814 413 814 c 0,6,7
 431 814 431 814 442 803 c 0,8,9
 452 792 452 792 452 775 c 0,10,11
 452 757 452 757 439 743 c 0,12,13
 431 733 431 733 416 725 c 2,14,-1
 232 608 l 1,0,-1
44 608 m 1,15,-1
 -4 608 l 1,16,-1
 173 786 l 2,17,18
 192 805 192 805 202 809 c 0,19,20
 211 814 211 814 226 814 c 0,21,22
 244 814 244 814 254 803 c 0,23,24
 265 792 265 792 265 775 c 0,25,26
 265 757 265 757 252 743 c 0,27,28
 244 733 244 733 229 725 c 2,29,-1
 44 608 l 1,15,-1
EndSplineSet
Validated: 1
EndChar

StartChar: dagger
Encoding: 224 8224 225
Width: 399
GlyphClass: 2
Flags: W
LayerCount: 2
Fore
SplineSet
80 733 m 0,0,1
 80 782 80 782 115 818 c 0,2,3
 149 853 149 853 199 853 c 0,4,5
 250 853 250 853 284 818 c 0,6,7
 319 784 319 784 319 733 c 0,8,9
 319 684 319 684 284 649 c 0,10,11
 250 614 250 614 199 614 c 128,-1,12
 148 614 148 614 114 649 c 128,-1,13
 80 684 80 684 80 733 c 0,0,1
199 812 m 0,14,15
 163 812 163 812 142 787 c 0,16,17
 121 761 121 761 121 734 c 128,-1,18
 121 707 121 707 139 684 c 0,19,20
 162 655 162 655 198 655 c 0,21,22
 232 655 232 655 255 677 c 0,23,24
 278 700 278 700 278 733 c 128,-1,25
 278 766 278 766 255 789 c 128,-1,26
 232 812 232 812 199 812 c 0,14,15
EndSplineSet
Validated: 1
EndChar

StartChar: daggerdbl
Encoding: 225 8225 226
Width: 399
GlyphClass: 2
Flags: W
LayerCount: 2
Fore
SplineSet
334 797 m 1,0,-1
 368 797 l 1,1,2
 362 730 362 730 340 689 c 0,3,4
 295 608 295 608 197 608 c 0,5,6
 126 608 126 608 82 653 c 0,7,8
 31 703 31 703 31 797 c 1,9,-1
 66 797 l 1,10,11
 85 680 85 680 199 680 c 0,12,13
 246 680 246 680 276 701 c 128,-1,14
 306 722 306 722 334 797 c 1,0,-1
EndSplineSet
Validated: 1
EndChar

StartChar: ellipsis
Encoding: 226 8230 227
Width: 956
GlyphClass: 2
Flags: HW
LayerCount: 2
Fore
SplineSet
296 108 m 0,0,1
 310 108 310 108 320 103 c 1,2,3
 352 92 352 92 354 59 c 0,4,5
 355 43 355 43 349 29 c 1,6,7
 332 1 332 1 301 0 c 1,8,9
 278 -2 278 -2 262 8 c 0,10,11
 232 26 232 26 232 59 c 0,12,13
 232 76 232 76 240 85 c 0,14,15
 259 109 259 109 296 108 c 0,0,1
490 108 m 0,16,17
 504 108 504 108 514 103 c 1,18,19
 545 92 545 92 548 59 c 1,20,21
 548 41 548 41 542 29 c 0,22,23
 528 2 528 2 496 0 c 0,24,25
 472 -2 472 -2 455 8 c 0,26,27
 425 26 425 26 425 59 c 0,28,29
 425 76 425 76 433 85 c 0,30,31
 454 109 454 109 490 108 c 0,16,17
685 108 m 5,32,33
 708 104 l 1,34,-1
 709 104 l 1,35,-1
 709 103 l 1,36,37
 742 92 742 92 744 59 c 0,38,39
 745 44 745 44 738 29 c 0,40,41
 724 2 724 2 691 0 c 0,42,43
 670 -1 670 -1 653 8 c 1,44,-1
 652 8 l 1,45,46
 620 28 620 28 622 59 c 1,47,48
 622 76 622 76 630 85 c 4,49,50
 649 109 649 109 685 108 c 5,32,33
EndSplineSet
Validated: 33
EndChar

StartChar: perthousand
Encoding: 227 8240 228
Width: 399
GlyphClass: 2
Flags: W
LayerCount: 2
Fore
SplineSet
275 -88 m 1,0,-1
 299 -107 l 1,1,2
 272 -148 272 -148 242 -170 c 0,3,4
 206 -198 206 -198 167 -198 c 0,5,6
 126 -198 126 -198 101 -173 c 0,7,8
 77 -149 77 -149 77 -101 c 0,9,10
 77 -73 77 -73 96 -46 c 0,11,12
 116 -17 116 -17 142 0 c 1,13,-1
 197 0 l 1,14,15
 176 -16 176 -16 163 -34 c 0,16,17
 144 -59 144 -59 144 -83 c 0,18,19
 144 -103 144 -103 157 -117 c 0,20,21
 169 -131 169 -131 187 -131 c 0,22,23
 210 -131 210 -131 231 -119.5 c 128,-1,24
 252 -108 252 -108 275 -88 c 1,0,-1
EndSplineSet
Validated: 1
EndChar

StartChar: minus
Encoding: 231 8722 232
Width: 254
GlyphClass: 2
Flags: W
LayerCount: 2
Fore
SplineSet
254 540 m 1,0,-1
 0 540 l 1,1,-1
 0 613 l 1,2,-1
 254 613 l 1,3,-1
 254 540 l 1,0,-1
EndSplineSet
Validated: 1
EndChar

StartChar: uniE968
Encoding: 234 59752 235
Width: 201
GlyphClass: 2
Flags: W
LayerCount: 2
Fore
SplineSet
260 851 m 1,0,-1
 190 864 l 2,1,2
 122.331 876.567 122.331 876.567 120 788 c 0,3,4
 119 744 119 744 162 680 c 0,5,6
 178 656 178 656 204 628 c 1,7,-1
 226 628 l 1,8,-1
 226 553 l 1,9,-1
 147 553 l 1,10,-1
 147 0 l 1,11,-1
 72 0 l 1,12,-1
 72 553 l 1,13,-1
 -6 553 l 1,14,-1
 -6 628 l 1,15,-1
 76 628 l 1,16,-1
 73 632 l 1,17,-1
 72 634 l 1,18,19
 43 671 43 671 -40 726 c 0,20,21
 -220.758 846.169 -220.758 846.169 -316 790 c 0,22,23
 -355 767 -355 767 -366 720 c 0,24,25
 -379 660 -379 660 -335 629 c 1,26,-1
 -409 629 l 1,27,-1
 -419 646 l 1,28,-1
 -420 647 l 1,29,-1
 -420 648 l 1,30,-1
 -421 649 l 1,31,32
 -433 682 -433 682 -426 726 c 0,33,34
 -413 809 -413 809 -354 833 c 1,35,36
 -281 871 -281 871 -178 846 c 0,37,38
 -47 814 -47 814 79 708 c 1,39,-1
 99.407 690.147 l 1,40,41
 58.1953 746.301 58.1953 746.301 57 812 c 0,42,43
 56.0089 866 56.0089 866 96 896 c 0,44,45
 131 922 131 922 188 923 c 0,46,47
 227 924 227 924 260 911 c 1,48,-1
 260 851 l 1,0,-1
278 722 m 1,49,-1
 196 722 l 1,50,-1
 196 798 l 1,51,-1
 278 798 l 1,52,-1
 278 722 l 1,49,-1
EndSplineSet
Validated: 33
EndChar

StartChar: uniE969
Encoding: 235 59753 236
Width: 7
GlyphClass: 3
Flags: W
LayerCount: 2
Fore
SplineSet
-74 628 m 1,0,-1
 -138 628 l 1,1,-1
 -446 785 l 1,2,-1
 -396 841 l 1,3,-1
 -178 706 l 1,4,-1
 -280 920 l 1,5,-1
 -216 956 l 1,6,-1
 -74 628 l 1,0,-1
67 897 m 1,7,-1
 -7 886 l 2,8,9
 -66.9247 877.092 -66.9247 877.092 -71 818 c 2,10,-1
 -73 789 l 2,11,12
 -76 748 -76 748 -31 681 c 0,13,14
 -15 657 -15 657 11 628 c 1,15,-1
 -48 628 l 1,16,-1
 -92 688 l 2,17,18
 -135.915 747.884 -135.915 747.884 -137 813 c 0,19,20
 -138.052 876.106 -138.052 876.106 -109 910 c 0,21,22
 -103 917 -103 917 -97 922 c 0,23,24
 -63 946 -63 946 -49 950 c 0,25,26
 -46.9926 950.547 -46.9926 950.547 -24 953 c 2,27,-1
 51 961 l 1,28,-1
 67 957 l 1,29,-1
 67 897 l 1,7,-1
112 731 m 1,30,-1
 0 730 l 1,31,-1
 0 834 l 1,32,-1
 110 832 l 1,33,-1
 112 731 l 1,30,-1
EndSplineSet
Validated: 33
LCarets2: 1 0 
Ligature2: "'abvs' Above Base Substitutions in Devanagari lookup 11 subtable" uni0948 glyph359
EndChar

StartChar: uniE96A
Encoding: 236 59754 237
Width: 7
GlyphClass: 3
Flags: W
LayerCount: 2
Fore
SplineSet
67 896 m 1,0,-1
 -7 886 l 2,1,2
 -66.7987 877.919 -66.7987 877.919 -71 817 c 2,3,-1
 -73 788 l 2,4,5
 -75.8437 746.767 -75.8437 746.767 -31 680 c 0,6,7
 -15 656 -15 656 11 628 c 1,8,-1
 32 628 l 1,9,-1
 32 553 l 1,10,-1
 -45 553 l 1,11,-1
 -45 0 l 1,12,-1
 -120 0 l 1,13,-1
 -120 553 l 1,14,-1
 -199 553 l 1,15,-1
 -199 628 l 1,16,-1
 -138 628 l 1,17,-1
 -446 785 l 1,18,-1
 -396 842 l 1,19,-1
 -178 706 l 1,20,-1
 -280 921 l 1,21,-1
 -216 957 l 1,22,-1
 -74 628 l 1,23,-1
 -48 628 l 1,24,-1
 -92 688 l 2,25,26
 -135.932 747.907 -135.932 747.907 -137 812 c 128,-1,27
 -138.068 876.087 -138.068 876.087 -109 910 c 0,28,29
 -103 917 -103 917 -97 922 c 0,30,31
 -69.1094 941.688 -69.1094 941.688 -49 949 c 0,32,33
 -42.8326 951.242 -42.8326 951.242 -24 953 c 2,34,-1
 51 960 l 1,35,-1
 67 956 l 1,36,-1
 67 896 l 1,0,-1
112 726 m 1,37,-1
 0 726 l 1,38,-1
 0 830 l 1,39,-1
 112 830 l 1,40,-1
 112 726 l 1,37,-1
EndSplineSet
Validated: 33
LCarets2: 1 0 
Ligature2: "'abvs' Above Base Substitutions in Devanagari lookup 11 subtable" uni094C glyph359
EndChar

StartChar: uni091F_uni093C.nukt
Encoding: 238 -1 238
Width: 582
GlyphClass: 3
Flags: W
AnchorPoint: "Anchor-0" 456 630 basechar 0
LayerCount: 2
Fore
SplineSet
103 -14 m 1,0,-1
 18 -14 l 1,1,-1
 18 67 l 1,2,-1
 103 67 l 1,3,-1
 103 -14 l 1,0,-1
EndSplineSet
Refer: 130 2335 N 1 0 0 1 0 0 2
Validated: 32769
Ligature2: "'nukt' Nukta Forms in Devanagari lookup 1 subtable" uni091F uni093C
LCarets2: 1 0 
EndChar

StartChar: uni0920_uni093C.nukt
Encoding: 239 -1 239
Width: 542
GlyphClass: 3
Flags: W
AnchorPoint: "Anchor-0" 430 624 basechar 0
LayerCount: 2
Fore
SplineSet
97 -25 m 1,0,-1
 12 -25 l 1,1,-1
 12 56 l 1,2,-1
 97 56 l 1,3,-1
 97 -25 l 1,0,-1
EndSplineSet
Refer: 131 2336 N 1 0 0 1 0 0 2
Validated: 32769
LCarets2: 1 0 
Ligature2: "'nukt' Nukta Forms in Devanagari lookup 1 subtable" uni0920 uni093C
EndChar

StartChar: glyph240
Encoding: 240 -1 240
Width: 921
GlyphClass: 2
Flags: W
LayerCount: 2
Fore
SplineSet
922 553 m 1,0,-1
 533 553 l 1,1,-1
 533 324 l 1,2,-1
 660 378 l 1,3,-1
 658 404 l 1,4,5
 658 480 658 480 726 480 c 0,6,7
 752 480 752 480 768 455 c 1,8,9
 780 433 780 433 780 404 c 0,10,11
 780 359 780 359 750 330 c 1,12,-1
 805 229 l 1,13,14
 763 229 763 229 725 208 c 1,15,16
 682 182 682 182 680 144 c 1,17,18
 680 112 680 112 701 96 c 1,19,20
 720 79 720 79 755 78 c 128,-1,21
 790 77 790 77 804 84 c 0,22,23
 823 94 823 94 828 124 c 1,24,-1
 886 61 l 1,25,26
 828 4 828 4 748 4 c 0,27,28
 683 4 683 4 646 41 c 0,29,30
 608 79 608 79 607 144 c 0,31,32
 606 186 606 186 634 221 c 1,33,34
 660 256 660 256 702 265 c 1,35,-1
 679 307 l 1,36,-1
 533 245 l 1,37,-1
 533 0 l 1,38,-1
 460 0 l 1,39,-1
 460 218 l 1,40,-1
 182 59 l 1,41,-1
 138 118 l 1,42,-1
 401 270 l 1,43,44
 301 380 301 380 270 385 c 1,45,46
 242 385 242 385 162 346 c 0,47,48
 142 336 142 336 86 306 c 1,49,-1
 42 362 l 1,50,51
 48 373 48 373 151 415 c 0,52,53
 255 457 255 457 277 458 c 0,54,55
 308 460 308 460 391 384 c 0,56,57
 414 363 414 363 460 316 c 1,58,-1
 460 553 l 1,59,-1
 0 553 l 1,60,-1
 0 628 l 1,61,-1
 462 628 l 1,62,-1
 418 688 l 1,63,64
 374 758 374 758 373 813 c 0,65,66
 372.009 867 372.009 867 413 897 c 0,67,68
 448 922 448 922 504 924 c 0,69,70
 544 925 544 925 576 912 c 1,71,-1
 576 852 l 1,72,-1
 506 865 l 1,73,74
 438 865 438 865 437 789 c 0,75,76
 436.105 749.632 436.105 749.632 479 681 c 0,77,78
 494 657 494 657 521 628 c 1,79,-1
 922 628 l 1,80,-1
 922 553 l 1,0,-1
EndSplineSet
Validated: 33
LCarets2: 1 0 
Ligature2: "Ligature Substitution in Devanagari lookup 2 subtable" uni090B uni0930_uni094D.rphf
EndChar

StartChar: glyph241
Encoding: 241 -1 241
Width: 921
GlyphClass: 2
Flags: W
LayerCount: 2
Fore
SplineSet
922 553 m 1,0,-1
 533 553 l 1,1,-1
 533 324 l 1,2,-1
 660 378 l 1,3,-1
 658 404 l 1,4,5
 658 480 658 480 726 480 c 0,6,7
 752 480 752 480 768 455 c 1,8,9
 780 433 780 433 780 404 c 0,10,11
 780 359 780 359 750 330 c 1,12,-1
 805 229 l 1,13,14
 763 229 763 229 725 208 c 1,15,16
 682 182 682 182 680 144 c 1,17,18
 680 112 680 112 701 96 c 1,19,20
 720 79 720 79 755 78 c 1,21,-1
 761 78 l 2,22,23
 792 78 792 78 804 84 c 0,24,25
 823 94 823 94 828 124 c 1,26,-1
 886 61 l 1,27,28
 828 4 828 4 748 4 c 0,29,30
 746.162 4 746.162 4 744.347 4.02955 c 0,31,32
 693.734 -2.30587 693.734 -2.30587 692 -50 c 0,33,34
 691 -83 691 -83 726 -102 c 0,35,36
 754 -118 754 -118 790 -118 c 0,37,38
 824 -118 824 -118 851 -106 c 1,39,-1
 881 -88 l 1,40,-1
 920 -149 l 1,41,42
 880 -190 880 -190 800 -191 c 0,43,44
 734 -192 734 -192 680 -157 c 0,45,46
 619 -118 619 -118 619 -54 c 0,47,48
 619 -1.28288 619 -1.28288 650.903 36.369 c 1,49,50
 648.393 38.6071 648.393 38.6071 646 41 c 0,51,52
 608 79 608 79 607 144 c 0,53,54
 606 186 606 186 634 221 c 1,55,56
 660 256 660 256 702 265 c 1,57,-1
 679 307 l 1,58,-1
 533 245 l 1,59,-1
 533 1 l 1,60,-1
 460 1 l 1,61,-1
 460 218 l 1,62,-1
 182 59 l 1,63,-1
 138 118 l 1,64,-1
 401 270 l 1,65,66
 301 380 301 380 270 385 c 1,67,68
 242 385 242 385 162 346 c 0,69,70
 142 336 142 336 86 306 c 1,71,-1
 42 362 l 1,72,73
 48 373 48 373 151 415 c 0,74,75
 255 457 255 457 277 458 c 0,76,77
 308 460 308 460 391 384 c 0,78,79
 414 363 414 363 460 316 c 1,80,-1
 460 553 l 1,81,-1
 0 553 l 1,82,-1
 0 628 l 1,83,-1
 462 628 l 1,84,-1
 418 688 l 1,85,86
 374 758 374 758 373 813 c 0,87,88
 372.009 867 372.009 867 413 897 c 0,89,90
 448 922 448 922 504 924 c 0,91,92
 544 925 544 925 576 912 c 1,93,-1
 576 852 l 1,94,-1
 506 865 l 1,95,96
 438 865 438 865 437 789 c 0,97,98
 436.105 749.632 436.105 749.632 479 681 c 0,99,100
 494 657 494 657 521 628 c 1,101,-1
 922 628 l 1,102,-1
 922 553 l 1,0,-1
EndSplineSet
Validated: 33
LCarets2: 1 0 
Ligature2: "Ligature Substitution in Devanagari lookup 2 subtable" uni0960 uni0930_uni094D.rphf
EndChar

StartChar: uni0908_uni0902.abvs
Encoding: 242 -1 242
Width: 475
GlyphClass: 3
Flags: W
LayerCount: 2
Fore
SplineSet
475 553 m 1,0,-1
 383 553 l 1,1,-1
 383 379 l 1,2,-1
 143 379 l 2,3,4
 136 379 136 379 136 373 c 0,5,6
 136 356 136 356 174 316 c 0,7,8
 212 275 212 275 232 277 c 1,9,10
 256 282 256 282 293 293 c 0,11,12
 332 304 332 304 355 304 c 0,13,14
 389 304 389 304 414 274 c 0,15,16
 439 245 439 245 439 211 c 0,17,18
 439 65 439 65 296 19 c 1,19,20
 313 -6 313 -6 361 -44 c 1,21,-1
 365 -47 l 1,22,23
 415 -89 415 -89 438 -90 c 1,24,-1
 392 -155 l 1,25,26
 359 -134 359 -134 344 -122 c 1,27,28
 324 -109 324 -109 286 -74 c 1,29,30
 271 -64 271 -64 238 -28 c 1,31,-1
 203 8 l 1,32,33
 46 8 46 8 43 101 c 0,34,35
 43 127 43 127 62 145 c 0,36,37
 82 164 82 164 107 164 c 1,38,39
 143 166 143 166 188 126 c 1,40,-1
 241 72 l 1,41,42
 275 72 275 72 311 94 c 1,43,44
 361 121 361 121 364 173 c 1,45,46
 364 196 364 196 359 211 c 0,47,48
 353 227 353 227 331 227 c 1,49,50
 318 228 318 228 274 217 c 1,51,52
 234 205 234 205 214 205 c 0,53,54
 167 205 167 205 109 278 c 1,55,56
 53 352 53 352 50 398 c 0,57,58
 48 422 48 422 67 439 c 0,59,60
 86 455 86 455 110 455 c 2,61,-1
 308 455 l 1,62,-1
 308 553 l 1,63,-1
 0 553 l 1,64,-1
 0 628 l 1,65,-1
 316 628 l 1,66,67
 284 668 284 668 271 688 c 0,68,69
 228 758 228 758 227 813 c 0,70,71
 226.009 867 226.009 867 266 897 c 0,72,73
 298.1 919.928 298.1 919.928 358 923 c 0,74,75
 397 925 397 925 430 911 c 1,76,-1
 430 851 l 1,77,78
 368.75 864.315 368.75 864.315 360 865 c 0,79,80
 292.14 870.31 292.14 870.31 290 789 c 0,81,82
 289 745 289 745 332 681 c 0,83,84
 348 657 348 657 374 628 c 1,85,-1
 475 628 l 1,86,-1
 475 553 l 1,0,-1
462 722 m 1,87,-1
 362 722 l 1,88,-1
 362 814 l 1,89,-1
 462 814 l 1,90,-1
 462 722 l 1,87,-1
EndSplineSet
Validated: 33
LCarets2: 1 0 
Ligature2: "'abvs' Above Base Substitutions in Devanagari lookup 11 subtable" uni0908 uni0902
EndChar

StartChar: uni0947_uni0901.abvs
Encoding: 243 -1 243
Width: 7
GlyphClass: 3
Flags: W
AnchorPoint: "Anchor-0" -72 588 basechar 0
LayerCount: 2
Fore
SplineSet
8 793 m 1,0,-1
 -61 793 l 1,1,-1
 -61 859 l 1,2,-1
 8 859 l 1,3,-1
 8 793 l 1,0,-1
92 810 m 1,4,5
 92 759 92 759 56 726 c 0,6,7
 20 694 20 694 -30 694 c 0,8,9
 -79 693 -79 693 -115 726 c 0,10,11
 -151 760 -151 760 -151 810 c 1,12,-1
 -105 810 l 1,13,14
 -105 781 -105 781 -82 761 c 0,15,16
 -59 742 -59 742 -30 742 c 0,17,18
 3 742 3 742 23 760 c 0,19,20
 44 778 44 778 44 810 c 1,21,-1
 92 810 l 1,4,5
-78 601 m 1,22,-1
 -155 601 l 1,23,-1
 -397 845 l 1,24,-1
 -335 905 l 1,25,-1
 -78 601 l 1,22,-1
EndSplineSet
Validated: 33
LCarets2: 1 0 
Ligature2: "'abvs' Above Base Substitutions in Devanagari lookup 11 subtable" uni0947 uni0901
EndChar

StartChar: uni094B_uni0901.abvs
Encoding: 244 -1 244
Width: 217
GlyphClass: 3
Flags: W
LayerCount: 2
Fore
SplineSet
251 770 m 1,0,-1
 182 770 l 1,1,-1
 182 836 l 1,2,-1
 251 836 l 1,3,-1
 251 770 l 1,0,-1
335 787 m 1,4,5
 335 736 335 736 299 703 c 0,6,7
 263 671 263 671 213 671 c 0,8,9
 164 670 164 670 128 703 c 0,10,11
 92 737 92 737 92 787 c 1,12,-1
 138 787 l 1,13,14
 138 758 138 758 161 738 c 0,15,16
 184 719 184 719 213 719 c 0,17,18
 246 719 246 719 266 737 c 0,19,20
 287 755 287 755 287 787 c 1,21,-1
 335 787 l 1,4,5
224 553 m 1,22,-1
 145 553 l 1,23,-1
 145 0 l 1,24,-1
 70 0 l 1,25,-1
 70 553 l 1,26,-1
 -7 553 l 1,27,-1
 -7 628 l 1,28,-1
 55 628 l 1,29,-1
 -175 859 l 1,30,-1
 -113 919 l 1,31,-1
 133 628 l 1,32,-1
 224 628 l 1,33,-1
 224 553 l 1,22,-1
EndSplineSet
Validated: 33
LCarets2: 1 0 
Ligature2: "'abvs' Above Base Substitutions in Devanagari lookup 11 subtable" uni094B uni0901
EndChar

StartChar: glyph245
Encoding: 245 -1 245
Width: 7
GlyphClass: 3
Flags: W
LayerCount: 2
Fore
SplineSet
67 896 m 1,0,-1
 -7 886 l 2,1,2
 -66.7987 877.919 -66.7987 877.919 -71 817 c 2,3,-1
 -73 788 l 2,4,5
 -75.8437 746.767 -75.8437 746.767 -31 680 c 0,6,7
 -15 656 -15 656 11 628 c 1,8,-1
 32 628 l 1,9,-1
 32 553 l 1,10,-1
 -46 553 l 1,11,-1
 -46 0 l 1,12,-1
 -121 0 l 1,13,-1
 -121 553 l 1,14,-1
 -199 553 l 1,15,-1
 -199 628 l 1,16,-1
 -138 628 l 1,17,-1
 -446 785 l 1,18,-1
 -396 842 l 1,19,-1
 -178 706 l 1,20,-1
 -280 921 l 1,21,-1
 -216 957 l 1,22,-1
 -74 628 l 1,23,-1
 -48 628 l 1,24,-1
 -92 688 l 2,25,26
 -135.932 747.907 -135.932 747.907 -137 812 c 128,-1,27
 -138.068 876.087 -138.068 876.087 -109 910 c 0,28,29
 -103 917 -103 917 -97 922 c 0,30,31
 -69.1094 941.688 -69.1094 941.688 -49 949 c 0,32,33
 -42.8326 951.242 -42.8326 951.242 -24 953 c 2,34,-1
 51 960 l 1,35,-1
 67 956 l 1,36,-1
 67 896 l 1,0,-1
215 787 m 1,37,38
 215 736 215 736 179 703 c 0,39,40
 143 671 143 671 93 671 c 1,41,42
 44 670 44 670 8 703 c 0,43,44
 -28 737 -28 737 -28 787 c 1,45,-1
 18 787 l 1,46,47
 18 758 18 758 41 738 c 0,48,49
 64 719 64 719 93 719 c 0,50,51
 126 719 126 719 146 737 c 0,52,53
 167 755 167 755 167 787 c 1,54,-1
 215 787 l 1,37,38
131 770 m 1,55,-1
 62 770 l 1,56,-1
 62 836 l 1,57,-1
 131 836 l 1,58,-1
 131 770 l 1,55,-1
EndSplineSet
Validated: 33
LCarets2: 1 0 
Ligature2: "'abvs' Above Base Substitutions in Devanagari lookup 11 subtable" uni094C glyph247
EndChar

StartChar: glyph246
Encoding: 246 -1 246
Width: 7
GlyphClass: 3
Flags: W
AnchorPoint: "Anchor-0" -75 588 basechar 0
LayerCount: 2
Fore
SplineSet
131 744 m 1,0,-1
 62 744 l 1,1,-1
 62 810 l 1,2,-1
 131 810 l 1,3,-1
 131 744 l 1,0,-1
215 761 m 1,4,5
 215 710 215 710 179 677 c 0,6,7
 143 645 143 645 93 645 c 0,8,9
 44 644 44 644 8 677 c 0,10,11
 -28 711 -28 711 -28 761 c 1,12,-1
 18 761 l 1,13,14
 18 732 18 732 41 712 c 0,15,16
 64 693 64 693 93 693 c 0,17,18
 126 693 126 693 146 711 c 0,19,20
 167 729 167 729 167 761 c 1,21,-1
 215 761 l 1,4,5
-74 602 m 1,22,-1
 -138 602 l 1,23,-1
 -446 760 l 1,24,-1
 -396 816 l 1,25,-1
 -178 680 l 1,26,-1
 -280 895 l 1,27,-1
 -216 931 l 1,28,-1
 -74 602 l 1,22,-1
65 825 m 1,29,-1
 -4 838 l 2,30,31
 -72.8272 850.967 -72.8272 850.967 -74 763 c 0,32,33
 -75 718 -75 718 -32 655 c 0,34,35
 -16 631 -16 631 10 602 c 1,36,-1
 -49 602 l 1,37,-1
 -93 662 l 2,38,39
 -134.465 718.543 -134.465 718.543 -137 787 c 0,40,41
 -139 841 -139 841 -98 871 c 0,42,43
 -63 896 -63 896 -7 897 c 0,44,45
 33 898 33 898 65 885 c 1,46,-1
 65 825 l 1,29,-1
EndSplineSet
Validated: 33
LCarets2: 1 0 
Ligature2: "'abvs' Above Base Substitutions in Devanagari lookup 11 subtable" uni0948 glyph247
EndChar

StartChar: glyph247
Encoding: 247 -1 247
Width: 7
GlyphClass: 3
Flags: W
AnchorPoint: "Anchor-0" -57 579 basechar 0
LayerCount: 2
Fore
SplineSet
56 744 m 1,0,-1
 -13 744 l 1,1,-1
 -13 810 l 1,2,-1
 56 810 l 1,3,-1
 56 744 l 1,0,-1
140 761 m 1,4,5
 140 710 140 710 104 677 c 0,6,7
 68 645 68 645 18 645 c 0,8,9
 -31 644 -31 644 -67 677 c 0,10,11
 -103 711 -103 711 -103 761 c 1,12,-1
 -57 761 l 1,13,14
 -57 732 -57 732 -34 712 c 0,15,16
 -11 693 -11 693 18 693 c 0,17,18
 51 693 51 693 71 711 c 0,19,20
 92 729 92 729 92 761 c 1,21,-1
 140 761 l 1,4,5
-18 824 m 1,22,23
 -41 829 -41 829 -88 838 c 0,24,25
 -156 838 -156 838 -157 762 c 0,26,27
 -158 718 -158 718 -115 654 c 0,28,29
 -100 630 -100 630 -73 601 c 1,30,-1
 -132 601 l 1,31,32
 -163 641 -163 641 -176 661 c 0,33,34
 -220 731 -220 731 -221 786 c 0,35,36
 -222 840 -222 840 -181 870 c 0,37,38
 -146 895 -146 895 -90 896 c 0,39,40
 -50 898 -50 898 -18 884 c 1,41,-1
 -18 824 l 1,22,23
EndSplineSet
Validated: 33
LCarets2: 1 0 
Ligature2: "'abvs' Above Base Substitutions in Devanagari lookup 11 subtable" uni0930_uni094D.rphf uni0901
EndChar

StartChar: uni0939_uni094D.haln
Encoding: 248 -1 248
Width: 496
GlyphClass: 3
Flags: W
AnchorPoint: "Anchor-0" 32563 -31130 basechar 0
LayerCount: 2
Fore
SplineSet
391 -269 m 1,0,-1
 358 -302 l 1,1,-1
 167 -92 l 1,2,-1
 256 -92 l 1,3,-1
 391 -269 l 1,0,-1
EndSplineSet
Refer: 156 2361 N 1 0 0 1 0 0 2
Validated: 32769
LCarets2: 1 0 
Ligature2: "'haln' Halant Forms in Devanagari lookup 12 subtable" uni0939 uni094D
EndChar

StartChar: uni091B_uni094D.haln_uni093C.nukt
Encoding: 249 -1 249
Width: 657
GlyphClass: 3
Flags: W
AnchorPoint: "Anchor-0" 531 621 basechar 0
LayerCount: 2
Fore
SplineSet
87 -42 m 1,0,-1
 2 -42 l 1,1,-1
 2 39 l 1,2,-1
 87 39 l 1,3,-1
 87 -42 l 1,0,-1
480 -219 m 1,4,-1
 447 -252 l 1,5,-1
 256 -42 l 1,6,-1
 345 -42 l 1,7,-1
 480 -219 l 1,4,-1
EndSplineSet
Refer: 126 2331 N 1 0 0 1 0 0 2
Validated: 33281
LCarets2: 1 0 
Ligature2: "'nukt' Nukta Forms in Devanagari lookup 1 subtable" uni091B_uni094D.haln uni093C
EndChar

StartChar: uni091B_uni094D.haln
Encoding: 250 -1 250
Width: 657
GlyphClass: 3
Flags: W
AnchorPoint: "Anchor-0" 531 621 basechar 0
LayerCount: 2
Fore
SplineSet
480 -219 m 1,0,-1
 447 -252 l 1,1,-1
 256 -42 l 1,2,-1
 345 -42 l 1,3,-1
 480 -219 l 1,0,-1
EndSplineSet
Refer: 126 2331 N 1 0 0 1 0 0 2
Validated: 32769
LCarets2: 1 0 
Ligature2: "'haln' Halant Forms in Devanagari lookup 12 subtable" uni091B uni094D
EndChar

StartChar: uni0939_uni0944.blws
Encoding: 251 -1 251
Width: 535
GlyphClass: 4
Flags: W
AnchorPoint: "Anchor-0" 453 624 basechar 0
LayerCount: 2
Fore
SplineSet
535 553 m 1,0,-1
 458 553 l 1,1,-1
 458 385 l 1,2,-1
 130 385 l 2,3,4
 115 385 115 385 115 377 c 0,5,6
 115 363.259 115 363.259 152 329 c 2,7,-1
 179 304 l 1,8,9
 230 323 230 323 287 323 c 0,10,11
 487 323 487 323 490 202 c 0,12,13
 491 158 491 158 446 142 c 1,14,15
 430 134 430 134 364 127 c 1,16,17
 328 127 328 127 314 122 c 0,18,19
 289 113 289 113 288 82 c 0,20,21
 288 67 288 67 312 58 c 1,22,23
 336 47 336 47 366 46 c 0,24,25
 370.45 45.8318 370.45 45.8318 374.736 45.8002 c 0,26,27
 378.811 46 378.811 46 383 46 c 2,28,-1
 386.887 46 l 1,29,30
 441.643 48.2835 441.643 48.2835 466 76 c 1,31,-1
 479.846 46 l 1,32,-1
 482 46 l 1,33,-1
 480.632 44.2965 l 1,34,-1
 502 -2 l 1,35,36
 453.144 -25.5231 453.144 -25.5231 390.373 -27.764 c 1,37,38
 328.632 -37.1215 328.632 -37.1215 327 -82 c 0,39,40
 326.058 -114.033 326.058 -114.033 361 -134 c 0,41,42
 389 -150 389 -150 425 -150 c 0,43,44
 459 -150 459 -150 486 -138 c 1,45,46
 488 -136 488 -136 516 -120 c 1,47,-1
 555 -181 l 1,48,49
 515 -222 515 -222 435 -223 c 0,50,51
 368 -224 368 -224 315 -189 c 0,52,53
 255 -150 255 -150 254 -86 c 0,54,55
 254 -40.372 254 -40.372 276.28 -7.74045 c 1,56,57
 272.574 -5.94939 272.574 -5.94939 269 -4 c 0,58,59
 216 28 216 28 215 86 c 0,60,61
 214 193 214 193 368 193 c 2,62,-1
 389 193 l 2,63,64
 416 193 416 193 416 211 c 0,65,66
 416 230 416 230 360 242 c 0,67,68
 322 250 322 250 287 250 c 0,69,70
 236 250 236 250 180 222 c 0,71,72
 116 190 116 190 115 140 c 128,-1,73
 114 90 114 90 166 14 c 1,74,-1
 220 -68 l 1,75,-1
 167 -128 l 1,76,77
 114 -38 114 -38 97 -14 c 0,78,79
 43 62 43 62 42 140 c 0,80,81
 42 178 42 178 62 211 c 0,82,83
 77 235 77 235 114 266 c 1,84,85
 91 289 91 289 71 320 c 0,86,87
 42 365 42 365 42 401 c 0,88,89
 42 458 42 458 101 458 c 2,90,-1
 385 458 l 1,91,-1
 385 553 l 1,92,-1
 0 553 l 1,93,-1
 0 628 l 1,94,-1
 535 628 l 1,95,-1
 535 553 l 1,0,-1
EndSplineSet
Validated: 33
LCarets2: 1 0 
Ligature2: "'blws' Below Base Substitutions in Devanagari lookup 9 subtable" uni0939 uni0944
EndChar

StartChar: uni0915_uni094D_uni0937.akhn
Encoding: 252 -1 252
Width: 624
GlyphClass: 3
Flags: W
LayerCount: 2
Fore
SplineSet
624 553 m 1,0,-1
 553 553 l 1,1,-1
 553 0 l 1,2,-1
 478 0 l 1,3,-1
 478 335 l 1,4,5
 401 304 401 304 323 304 c 0,6,7
 256.333 304 256.333 304 203 324 c 2,8,-1
 187 330 l 1,9,10
 158 313 158 313 133 292 c 0,11,12
 89 252 89 252 88 223 c 0,13,14
 85 142 85 142 188 142 c 0,15,16
 200 142 200 142 203 143 c 1,17,18
 203 156 203 156 202 163 c 0,19,20
 202 227 202 227 257 228 c 0,21,22
 290.939 229.061 290.939 229.061 311 209 c 0,23,24
 328.526 191.474 328.526 191.474 332 155 c 0,25,26
 334 134 334 134 325 120 c 0,27,28
 316 104 316 104 294 94 c 1,29,30
 322 47 322 47 372 34 c 1,31,-1
 306 -13 l 1,32,33
 287 -2 287 -2 265 22 c 0,34,35
 240 49 240 49 229 73 c 1,36,-1
 182 70 l 2,37,38
 108.628 65.3167 108.628 65.3167 60 112 c 0,39,40
 16 154 16 154 14 227 c 0,41,42
 13 274 13 274 58 322 c 0,43,44
 77 342 77 342 118 370 c 1,45,46
 55.0622 417.445 55.0622 417.445 52 494 c 0,47,48
 50.0981 541.549 50.0981 541.549 90 572 c 0,49,50
 128 601 128 601 179 601 c 0,51,52
 232 601 232 601 271 569 c 0,53,54
 311 536 311 536 312 485 c 0,55,56
 313 454 313 454 293 422 c 0,57,58
 281 403 281 403 259 385 c 1,59,60
 276.25 385 276.25 385 292 382 c 0,61,62
 318.25 377 318.25 377 323 377 c 0,63,64
 407 377 407 377 478 415 c 1,65,-1
 478 553 l 1,66,-1
 376 553 l 1,67,-1
 376 628 l 1,68,-1
 624 628 l 1,69,-1
 624 553 l 1,0,-1
239 488 m 0,70,71
 240 527 240 527 179 528 c 0,72,73
 125 529 125 529 125 478 c 0,74,75
 125 452 125 452 154 430 c 0,76,77
 162 422 162 422 182 412 c 1,78,79
 238 445 238 445 239 488 c 0,70,71
EndSplineSet
Validated: 33
LCarets2: 2 0 0 
Ligature2: "'akhn' Akhand in Devanagari lookup 0 subtable" uni0915 uni094D uni0937
EndChar

StartChar: uni091C_uni094D_uni091E.akhn
Encoding: 253 -1 253
Width: 688
GlyphClass: 3
Flags: W
LayerCount: 2
Fore
SplineSet
688 553 m 1,0,-1
 610 553 l 1,1,-1
 610 0 l 1,2,-1
 535 0 l 1,3,-1
 535 371 l 1,4,-1
 137 371 l 2,5,6
 130 371 130 371 128 362 c 1,7,8
 128 338 128 338 161 312 c 1,9,10
 192 284 192 284 213.5 284 c 128,-1,11
 235 284 235 284 260 288 c 1,12,-1
 330 296 l 1,13,14
 366 296 366 296 388 265 c 1,15,16
 404 238 404 238 406 199 c 1,17,18
 407.02 117.37 407.02 117.37 325 78 c 0,19,20
 300 66 300 66 266 58 c 1,21,-1
 366 -32 l 1,22,-1
 311 -77 l 1,23,-1
 185 42 l 1,24,-1
 164 42 l 2,25,26
 42 42 42 42 42 110 c 0,27,28
 42 132 42 132 59 146.5 c 128,-1,29
 76 161 76 161 103.5 161 c 128,-1,30
 131 161 131 161 164.5 143 c 128,-1,31
 198 125 198 125 206 114 c 1,32,33
 223 108 223 108 271 127 c 0,34,35
 332 152 332 152 332 199 c 0,36,37
 332 235 332 235 305 235 c 0,38,39
 294 235 294 235 246 220 c 1,40,-1
 212 211 l 1,41,42
 157 211 157 211 103 268 c 1,43,44
 44 327.001 44 327.001 44 386 c 0,45,46
 44 413 44 413 65 429.5 c 128,-1,47
 86 446 86 446 112 446 c 2,48,-1
 535 446 l 1,49,-1
 535 553 l 1,50,-1
 0 553 l 1,51,-1
 0 628 l 1,52,-1
 688 628 l 1,53,-1
 688 553 l 1,0,-1
EndSplineSet
Validated: 33
LCarets2: 2 0 0 
Ligature2: "'akhn' Akhand in Devanagari lookup 0 subtable" uni091C uni094D uni091E
EndChar

StartChar: uni0924_uni094D.half_uni0924.pres
Encoding: 254 -1 254
Width: 690
GlyphClass: 3
Flags: MW
LayerCount: 2
Fore
SplineSet
690 553 m 1,0,-1
 610 553 l 1,1,-1
 610 0 l 1,2,-1
 535 0 l 1,3,-1
 535 368 l 1,4,-1
 319 368 l 2,5,6
 278 368 278 368 250.5 342 c 128,-1,7
 223 316 223 316 221.5 277.5 c 128,-1,8
 220 239 220 239 265.5 176.5 c 128,-1,9
 311 114 311 114 365 70 c 1,10,-1
 322 11 l 1,11,12
 259 65 259 65 211 130 c 0,13,14
 149 212 149 212 148 277 c 128,-1,15
 147 342 147 342 175 368 c 1,16,-1
 39 368 l 1,17,-1
 39 443 l 1,18,-1
 535 443 l 1,19,-1
 535 553 l 1,20,-1
 0 553 l 1,21,-1
 0 628 l 1,22,-1
 690 628 l 1,23,-1
 690 553 l 1,0,-1
EndSplineSet
Validated: 545
LCarets2: 1 0 
Ligature2: "'pres' Pre Base Substitutions in Devanagari lookup 8 subtable" uni0924_uni094D.half uni0924
EndChar

StartChar: uni0924_uni0930_uni094D.blwf.vatu
Encoding: 255 -1 255
Width: 619
GlyphClass: 3
Flags: W
LayerCount: 2
Fore
SplineSet
619 553 m 1,0,-1
 537 553 l 1,1,-1
 537 0 l 1,2,-1
 462 0 l 1,3,-1
 462 222 l 1,4,-1
 177 59 l 1,5,-1
 133 118 l 1,6,-1
 396 270 l 1,7,8
 293.663 382.571 293.663 382.571 267.405 384.796 c 0,9,10
 233.456 387.673 233.456 387.673 81 306 c 1,11,-1
 37 362 l 1,12,13
 43 373 43 373 146.5 415 c 128,-1,14
 250 457 250 457 274.508 458.319 c 128,-1,15
 299.017 459.638 299.017 459.638 386 384 c 0,16,17
 409 364 409 364 462 308 c 1,18,-1
 462 553 l 1,19,-1
 0 553 l 1,20,-1
 0 628 l 1,21,-1
 619 628 l 1,22,-1
 619 553 l 1,0,-1
EndSplineSet
Validated: 545
LCarets2: 1 0 
Ligature2: "'vatu' Vattu Variants in Devanagari lookup 6 subtable" uni0924 uni0930_uni094D.blwf
EndChar

StartChar: uni0936_uni094D.half_uni091A.pres
Encoding: 256 -1 256
Width: 709
GlyphClass: 3
Flags: W
LayerCount: 2
Fore
SplineSet
709 553 m 1,0,-1
 637 553 l 1,1,-1
 637 0 l 1,2,-1
 562 0 l 1,3,-1
 562 113 l 1,4,5
 533.115 74.0569 533.115 74.0569 520 62 c 0,6,7
 459.364 6.25393 459.364 6.25393 394 4 c 0,8,9
 336 2 336 2 301 31 c 0,10,11
 264.65 59.6972 264.65 59.6972 262 118 c 0,12,13
 260 162 260 162 280 200 c 1,14,-1
 106 113 l 1,15,-1
 65 179 l 1,16,-1
 305 302 l 1,17,-1
 223 358 l 1,18,19
 188 332 188 332 132 308 c 0,20,21
 104 296 104 296 44 266 c 1,22,-1
 -2 325 l 1,23,24
 30.4025 335.415 30.4025 335.415 76 359 c 2,25,-1
 163 404 l 1,26,27
 138 430 138 430 127 445 c 0,28,29
 102 481 102 481 102 521 c 0,30,31
 102 571 102 571 137 600 c 0,32,33
 172 628 172 628 223 628 c 0,34,35
 274.759 628 274.759 628 312 601 c 0,36,37
 352 572 352 572 353 521 c 0,38,39
 354 452 354 452 282 398 c 1,40,-1
 376 323 l 1,41,-1
 461 362 l 1,42,-1
 504 298 l 1,43,-1
 371 240 l 1,44,45
 335 180 335 180 335 122 c 0,46,47
 335 78 335 78 394 77 c 0,48,49
 443.731 75.7568 443.731 75.7568 505 151 c 2,50,-1
 562 221 l 1,51,-1
 562 553 l 1,52,-1
 425 553 l 1,53,-1
 425 628 l 1,54,-1
 709 628 l 1,55,-1
 709 553 l 1,0,-1
280 510 m 0,56,57
 280 552 280 552 222 554 c 0,58,59
 175 556 175 556 175 510 c 0,60,61
 175 497 175 497 194 474 c 0,62,63
 210 455 210 455 226 446 c 1,64,65
 276 472 276 472 280 510 c 0,56,57
EndSplineSet
Validated: 545
LCarets2: 1 0 
Ligature2: "'pres' Pre Base Substitutions in Devanagari lookup 8 subtable" uni0936_uni094D.half uni091A
EndChar

StartChar: uni0936_uni0930_uni094D.blwf.vatu
Encoding: 257 -1 257
Width: 646
GlyphClass: 3
Flags: W
LayerCount: 2
Fore
SplineSet
646 553 m 1,0,-1
 577 553 l 1,1,-1
 577 0 l 1,2,-1
 502 0 l 1,3,-1
 502 240 l 1,4,-1
 193 77 l 1,5,-1
 152 138 l 1,6,-1
 374 256 l 1,7,-1
 244 358 l 1,8,9
 213.468 335.319 213.468 335.319 152 308 c 0,10,11
 125 296 125 296 65 266 c 1,12,-1
 18 325 l 1,13,14
 47.2849 334.089 47.2849 334.089 96 359 c 2,15,-1
 184 404 l 1,16,17
 158 430 158 430 148 445 c 0,18,19
 122 481 122 481 122 521 c 0,20,21
 122 571 122 571 157 600 c 0,22,23
 192 628 192 628 244 628 c 0,24,25
 294.759 628 294.759 628 332 601 c 0,26,27
 372 572 372 572 373 521 c 0,28,29
 374 452 374 452 302 398 c 1,30,-1
 440 290 l 1,31,-1
 502 323 l 1,32,-1
 502 553 l 1,33,-1
 422 553 l 1,34,-1
 422 628 l 1,35,-1
 646 628 l 1,36,-1
 646 553 l 1,0,-1
300 510 m 0,37,38
 300 552 300 552 242 554 c 0,39,40
 196 556 196 556 196 510 c 0,41,42
 196 497 196 497 215 474 c 0,43,44
 230 455 230 455 246 446 c 1,45,46
 296 472 296 472 300 510 c 0,37,38
EndSplineSet
Validated: 545
LCarets2: 1 0 
Ligature2: "'vatu' Vattu Variants in Devanagari lookup 6 subtable" uni0936 uni0930_uni094D.blwf
EndChar

StartChar: uni0936_uni094D.half_uni0935.pres
Encoding: 258 -1 258
Width: 645
GlyphClass: 3
Flags: W
LayerCount: 2
Fore
SplineSet
645 553 m 1,0,-1
 575 553 l 5,1,-1
 575 0 l 5,2,-1
 500 0 l 1,3,-1
 500 70 l 1,4,-1
 452 41 l 2,5,6
 427.172 26 427.172 26 388 26 c 0,7,8
 323 26 323 26 275 70 c 0,9,10
 228 112 228 112 227 175 c 0,11,12
 226 266 226 266 306 314 c 1,13,-1
 244 358 l 1,14,15
 213.468 335.319 213.468 335.319 152 308 c 0,16,17
 125 296 125 296 65 266 c 1,18,-1
 18 325 l 1,19,20
 47.2847 334.089 47.2847 334.089 96 359 c 2,21,-1
 184 404 l 1,22,23
 158 430 158 430 148 445 c 0,24,25
 122 481 122 481 122 521 c 0,26,27
 122 571 122 571 157 600 c 0,28,29
 192 628 192 628 244 628 c 0,30,31
 294.759 628 294.759 628 332 601 c 0,32,33
 372 572 372 572 373 521 c 0,34,35
 374 452 374 452 302 398 c 1,36,-1
 404 328 l 1,37,-1
 444 320 l 1,38,-1
 463 248 l 1,39,40
 422 264 422 264 374 265 c 0,41,42
 336 266 336 266 316 242 c 0,43,44
 294 217 294 217 293 181 c 0,45,46
 292 144 292 144 318 118 c 128,-1,47
 344 92 344 92 383 92 c 0,48,49
 410 92 410 92 445 108 c 0,50,51
 480 125 480 125 500 145 c 1,52,-1
 500 553 l 1,53,-1
 421 553 l 1,54,-1
 421 628 l 1,55,-1
 645 628 l 1,56,-1
 645 553 l 1,0,-1
300 510 m 0,57,58
 300 552 300 552 242 554 c 0,59,60
 196 556 196 556 196 510 c 0,61,62
 196 497 196 497 215 474 c 0,63,64
 230 455 230 455 246 446 c 1,65,66
 296 472 296 472 300 510 c 0,57,58
EndSplineSet
Validated: 545
LCarets2: 1 0 
Ligature2: "'pres' Pre Base Substitutions in Devanagari lookup 8 subtable" uni0936_uni094D.half uni0935
EndChar

StartChar: uni095B_uni0930_uni094D.blwf.vatu
Encoding: 259 -1 259
Width: 720
GlyphClass: 3
Flags: W
LayerCount: 2
Fore
SplineSet
546 264 m 1,0,-1
 483 264 l 1,1,-1
 483 334 l 1,2,-1
 546 334 l 1,3,-1
 546 264 l 1,0,-1
720 553 m 1,4,-1
 646 553 l 1,5,-1
 646 0 l 1,6,-1
 571 0 l 1,7,-1
 571 144 l 1,8,-1
 320 -20 l 1,9,-1
 274 37 l 1,10,-1
 571 227 l 1,11,-1
 571 359 l 1,12,-1
 422 359 l 1,13,14
 458 317 458 317 458 259 c 0,15,16
 458 187 458 187 421 149 c 1,17,18
 382.61 107.497 382.61 107.497 313 107 c 0,19,20
 171.557 105.99 171.557 105.99 72 336 c 0,21,22
 43 403 43 403 43 421 c 1,23,-1
 103 464 l 1,24,25
 118.635 368.108 118.635 368.108 194 266 c 0,26,27
 256 182 256 182 319 182 c 0,28,29
 381.737 182.001 381.737 182.001 383 254 c 0,30,31
 383.849 302.411 383.849 302.411 340 364 c 0,32,33
 328.1 380.715 328.1 380.715 295 421 c 1,34,-1
 295 433 l 1,35,-1
 571 433 l 1,36,-1
 571 553 l 1,37,-1
 0 553 l 1,38,-1
 0 628 l 1,39,-1
 720 628 l 1,40,-1
 720 553 l 1,4,-1
EndSplineSet
Validated: 545
LCarets2: 1 0 
Ligature2: "'vatu' Vattu Variants in Devanagari lookup 6 subtable" uni095B uni0930_uni094D.blwf
EndChar

StartChar: uni092B_uni0930_uni094D.blwf.vatu
Encoding: 260 -1 260
Width: 738
GlyphClass: 3
Flags: W
LayerCount: 2
Fore
SplineSet
334 302 m 1,0,-1
 334 553 l 1,1,-1
 115 553 l 1,2,-1
 115 337 l 2,3,4
 115 298 115 298 149 275 c 1,5,6
 178 254 178 254 220 254 c 0,7,8
 277 254 277 254 334 302 c 1,0,-1
738 553 m 1,9,-1
 407 553 l 1,10,-1
 407 368 l 1,11,12
 474 431 474 431 524 432 c 0,13,14
 593 433 593 433 638 388 c 0,15,16
 684 342 684 342 685 276 c 0,17,18
 686 220 686 220 625 132 c 0,19,20
 605 103 605 103 564 59 c 1,21,-1
 494 107 l 1,22,23
 523 122 523 122 560 168 c 1,24,25
 611 228 611 228 612 281 c 0,26,27
 613 313 613 313 588 336 c 0,28,29
 564 359 564 359 532 359 c 0,30,31
 509 359 509 359 479 336 c 1,32,-1
 407 272 l 1,33,-1
 407 0 l 5,34,-1
 334 0 l 5,35,-1
 334 133 l 1,36,-1
 83 -31 l 1,37,-1
 38 26 l 1,38,-1
 315.449 204.092 l 1,39,40
 274.173 181 274.173 181 223 181 c 0,41,42
 150 181 150 181 100 221 c 1,43,44
 43 265 43 265 42 334 c 1,45,-1
 42 553 l 1,46,-1
 0 553 l 1,47,-1
 0 628 l 1,48,-1
 738 628 l 1,49,-1
 738 553 l 1,9,-1
EndSplineSet
Validated: 545
LCarets2: 1 0 
Ligature2: "'vatu' Vattu Variants in Devanagari lookup 6 subtable" uni092B uni0930_uni094D.blwf
EndChar

